EBGaramond-It.sfdir

StartChar: numbersign
Encoding: 35 35 95
Width: 468
Flags: W
HStem: 204 60<21.8772 94 149 191> 214 60<206 248 303 368.945> 402 60<68.8772 142 198 239.5> 412 60<254.5 296 352 415.945> 630 20G<225 235.5 380 390.5>
LayerCount: 2
Fore
SplineSet
134 206 m 5x58
 90 27 l 6
 87 14 73 12 60 12 c 4
 53 12 48 20 50 27 c 6
 94 204 l 5
 31 201 l 6
 24 201 17 207 17 213 c 4
 17 222 20 260 41 261 c 6
 108 264 l 5
 142 402 l 5
 78 399 l 6
 71 399 64 405 64 411 c 4
 64 420 67 458 88 459 c 6
 157 462 l 5xa8
 199 633 l 6
 202 647 218 650 232 650 c 4
 239 650 241 640 239 633 c 6
 198 464 l 5
 311 470 l 5
 354 644 l 6
 357 658 373 661 387 661 c 4
 394 661 396 651 394 644 c 6
 352 472 l 5
 411 475 l 6
 418 475 426 468 424 461 c 4
 418 440 415 416 393 415 c 6
 337 412 l 5
 303 274 l 5
 364 277 l 6
 371 277 379 270 377 263 c 4
 371 242 368 218 346 217 c 6
 288 214 l 5
 245 38 l 6
 242 25 228 23 215 23 c 4
 208 23 203 31 205 38 c 6
 248 212 l 5
 134 206 l 5x58
149 266 m 5
 263 272 l 5
 296 410 l 5
 183 404 l 5
 149 266 l 5
EndSplineSet
Validated: 1
Substitution2: "sups subtable" numbersign.sups
Substitution2: "sinf subtable" numbersign.sinf
Substitution2: "ordn subtable" numbersign.ordn
Substitution2: "subs subtable" numbersign.subs
EndChar

StartChar: percent
Encoding: 37 37 1014
Width: 681
VWidth: 0
Flags: W
HStem: -14 24<458.745 544.272> 268 24<203.745 289.272> 321 27<582.751 666.227> 603 27<327.751 411.227> 635 20G<737 748.5>
LayerCount: 2
Fore
SplineSet
609 321 m 0
 572 321 523 238 505 177 c 24
 485 107 475 10 517 10 c 0
 559 10 603 100 622 165 c 24
 641 231 646 321 609 321 c 0
627 348 m 16
 704 348 717 262 691 177 c 0
 662 83 588 -14 500 -14 c 8
 420 -14 409 74 437 166 c 0
 463 252 542 348 627 348 c 16
354 603 m 0
 317 603 268 520 250 459 c 24
 230 389 220 292 262 292 c 0
 304 292 348 382 367 447 c 24
 386 513 391 603 354 603 c 0
372 630 m 16
 449 630 462 544 436 459 c 0
 407 365 333 268 245 268 c 8
 165 268 154 356 182 448 c 0
 208 534 287 630 372 630 c 16
122 -11 m 26
 704 638 l 26
 717 652 729 655 745 655 c 24
 752 655 758 645 752 638 c 26
 170 -11 l 26
 159 -24 146 -26 132 -26 c 24
 124 -26 115 -18 122 -11 c 26
EndSplineSet
Validated: 33
Substitution2: "sups subtable" percent.sups
Substitution2: "sinf subtable" percent.sinf
Substitution2: "ordn subtable" percent.ordn
Substitution2: "subs subtable" percent.subs
EndChar

StartChar: asterisk
Encoding: 42 42 1016
Width: 314
VWidth: 0
Flags: W
HStem: 372 298
VStem: 177 280
LayerCount: 2
Fore
SplineSet
433 610 m 1
 443 617 453 615 457 607 c 1
 459 599 453 590 444 583 c 1
 358 525 l 1
 379 513 398 501 421 483 c 1
 428 479 430 468 424 459 c 0
 418 451 407 449 400 452 c 0
 375 466 351 476 330 487 c 1
 324 459 317 429 307 394 c 0
 304 383 296 373 285 372 c 0
 284 372 l 0
 276 372 272 381 274 390 c 2
 290 482 l 1
 264 466 234 450 201 432 c 1
 191 425 181 427 177 435 c 1
 175 443 182 452 191 459 c 1
 276 517 l 1
 255 529 236 541 213 559 c 1
 206 563 204 574 210 583 c 0
 216 591 228 593 235 590 c 0
 260 576 284 566 305 555 c 1
 311 583 318 613 328 648 c 0
 331 659 338 669 349 670 c 0
 350 670 l 0
 358 670 362 661 360 652 c 2
 344 560 l 1
 370 576 400 592 433 610 c 1
EndSplineSet
Validated: 1
Substitution2: "sups subtable" asterisk.sups
Substitution2: "sinf subtable" asterisk.sinf
Substitution2: "ordn subtable" asterisk.ordn
Substitution2: "subs subtable" asterisk.subs
EndChar

StartChar: plus
Encoding: 43 43 100
Width: 590
Flags: W
HStem: -8 21G<279 286.5> 222 50<53.1042 270 330 544.648>
VStem: 270 60<-4.10672 222 272.011 475.117>
LayerCount: 2
Fore
SplineSet
330 278 m 2
 330 271 331 272 334 272 c 2
 537 272 l 2
 544 272 553 265 550 258 c 0
 544 241 538 222 519 222 c 2
 334 222 l 2
 331 222 330 221 330 218 c 2
 330 16 l 2
 330 -5 291 -8 282 -8 c 0
 276 -8 270 -1 270 6 c 2
 270 217 l 2
 270 220 269 222 266 222 c 2
 64 222 l 2
 57 222 50 228 50 234 c 0
 50 243 56 272 74 272 c 2
 263 272 l 2
 269 272 270 274 270 280 c 2
 270 451 l 2
 270 473 310 482 316 482 c 0
 323 482 330 476 330 469 c 2
 330 278 l 2
EndSplineSet
Validated: 1
Substitution2: "sups subtable" plus.sups
Substitution2: "sinf subtable" plus.sinf
Substitution2: "ordn subtable" plus.ordn
Substitution2: "subs subtable" plus.subs
EndChar

StartChar: seven
Encoding: 55 55 80
Width: 430
VWidth: 0
Flags: W
HStem: 272 21G<66.5 74> 336 70<118.53 353.891>
LayerCount: 2
Fore
SplineSet
359 326 m 2
 362 331 367 335 353 336 c 0
 339 336 301 337 282 337 c 0
 245 337 184 336 160 336 c 0
 141 336 120 321 100 297 c 0
 95 290 78 272 70 272 c 0
 63 272 62 281 62 285 c 0
 62 303 118 383 125 395 c 0
 130 404 135 406 138 406 c 0
 141 406 173 403 196 402 c 0
 223 401 276 401 313 401 c 0
 396 401 409 407 424 407 c 0
 426 407 430 401 430 394 c 0
 430 384 403 342 390 323 c 2
 52 -166 l 10
 44 -178 25 -186 16 -186 c 0
 4 -186 0 -178 0 -173 c 0
 0 -168 14 -151 32 -126 c 2
 359 326 l 2
EndSplineSet
Validated: 1
Substitution2: "'tnum' Tabular Numbers lookup 38 subtable" seven.taboldstyle
Substitution2: "'lnum' Lining Figures lookup 36 subtable" seven.lnum
Substitution2: "Single Substitution lookup 35 subtable" seven.ordn
Substitution2: "Single Substitution lookup 34 subtable" seven.subs
Substitution2: "sups subtable" seven.sups
Substitution2: "sinf subtable" seven.sinf
Substitution2: "ordn subtable" seven.ordn
Substitution2: "subs subtable" seven.subs
EndChar

StartChar: eight
Encoding: 56 56 85
Width: 420
VWidth: 0
Flags: W
HStem: -13 37<122.863 207.378> 555 34<277.897 364.937>
VStem: 30 70<42.9575 155.133> 160 60<370.969 491.245> 260 70<85.1733 218.307> 385 60<434.79 540.078>
LayerCount: 2
Fore
SplineSet
206 263 m 0
 116 195 100 147 100 102 c 8
 100 62 125 24 165 24 c 16
 203 24 260 35 260 110 c 0
 260 170 241 220 217 262 c 0
 215 266 210 266 206 263 c 0
266 335 m 0
 365 407 385 433 385 480 c 8
 385 520 371 555 316 555 c 0
 273 555 220 513 220 460 c 0
 220 421 238 378 256 338 c 0
 258 333 262 332 266 335 c 0
275 300 m 0
 304 246 330 194 330 148 c 0
 330 68 218 -13 130 -13 c 8
 77 -13 30 27 30 80 c 16
 30 145 66 195 189 285 c 0
 193 288 194 293 192 298 c 0
 176 335 160 371 160 420 c 0
 160 510 262 589 350 589 c 8
 401 589 445 551 445 500 c 16
 445 439 398 394 278 310 c 0
 274 307 273 304 275 300 c 0
EndSplineSet
Validated: 1
Substitution2: "'tnum' Tabular Numbers lookup 38 subtable" eight.taboldstyle
Substitution2: "'lnum' Lining Figures lookup 36 subtable" eight.lnum
Substitution2: "Single Substitution lookup 35 subtable" eight.ordn
Substitution2: "Single Substitution lookup 34 subtable" eight.subs
Substitution2: "sups subtable" eight.sups
Substitution2: "sinf subtable" eight.sinf
Substitution2: "ordn subtable" eight.ordn
Substitution2: "subs subtable" eight.subs
EndChar

StartChar: semicolon
Encoding: 59 59 71
Width: 210
VWidth: 0
Flags: W
HStem: 29 88<75.3066 113.724> 263 110<165.26 225.74>
VStem: 144 103<284.203 351.797>
LayerCount: 2
Fore
SplineSet
212 373 m 24
 240 373 256 348 247 318 c 24
 238 288 207 263 179 263 c 24
 151 263 135 288 144 318 c 24
 153 348 184 373 212 373 c 24
91 29 m 0
 65 32 53 49 60 71 c 0
 68 98 99 117 126 117 c 0
 171 117 190 76 173 20 c 0
 142 -81 38 -145 -10 -147 c 0
 -11 -147 -11 -147 -12 -147 c 0
 -32 -147 -29 -128 -9 -124 c 0
 34 -115 93 -85 114 -15 c 0
 119 1 111 27 91 29 c 0
EndSplineSet
Validated: 33
Substitution2: "sups subtable" semicolon.sups
Substitution2: "sinf subtable" semicolon.sinf
Substitution2: "ordn subtable" semicolon.ordn
Substitution2: "subs subtable" semicolon.subs
EndChar

StartChar: less
Encoding: 60 60 101
Width: 590
Flags: W
HStem: -6 21G<525.5 529>
LayerCount: 2
Fore
SplineSet
133 229 m 2
 513 55 l 2
 532 46 537 16 537 7 c 0
 537 2 532 -6 526 -6 c 0
 525 -6 524 -5 523 -5 c 2
 94 195 l 2
 77 203 53 216 53 222 c 0
 53 231 66 259 86 268 c 2
 523 468 l 2
 524 468 525 469 526 469 c 0
 532 469 538 460 536 454 c 0
 530 433 525 417 505 408 c 2
 132 234 l 2
 129 233 130 230 133 229 c 2
EndSplineSet
Validated: 1
Substitution2: "sups subtable" less.sups
Substitution2: "sinf subtable" less.sinf
Substitution2: "ordn subtable" less.ordn
Substitution2: "subs subtable" less.subs
EndChar

StartChar: greater
Encoding: 62 62 102
Width: 590
Flags: W
HStem: -6 21G<61 64.5>
LayerCount: 2
Fore
SplineSet
457 234 m 2
 77 408 l 2
 58 417 53 447 53 456 c 0
 53 461 58 469 64 469 c 0
 65 469 66 468 67 468 c 2
 496 268 l 2
 513 260 537 247 537 241 c 0
 537 232 524 204 504 195 c 2
 67 -5 l 2
 66 -5 65 -6 64 -6 c 0
 58 -6 52 3 54 9 c 0
 60 30 65 46 85 55 c 2
 458 229 l 2
 461 230 460 233 457 234 c 2
EndSplineSet
Validated: 1
Substitution2: "sups subtable" greater.sups
Substitution2: "sinf subtable" greater.sinf
Substitution2: "ordn subtable" greater.ordn
Substitution2: "subs subtable" greater.subs
EndChar

StartChar: I
Encoding: 73 73 33
Width: 371
VWidth: 0
Flags: W
HStem: -5 29<5.7629 87.4897 224.031 286.641> 622 31<210.487 270.933 389.79 472.785>
AnchorPoint: "ogonek" 173 18 basechar 0
AnchorPoint: "below_accent" 148 -100 basechar 0
AnchorPoint: "top_accent" 360 700 basechar 0
LayerCount: 2
Fore
SplineSet
275 550 m 2
 289 597 278 613 234 622 c 0
 214 626 210 632.509765625 210 642 c 0
 210 650.25 224 653 240 653 c 0
 290 653 305 650 348 650 c 24
 388 650 400 653 450 653 c 0
 466 653 474 650.25 474 642 c 0
 474 632.509765625 460 626 437 622 c 0
 388 613 363 597 349 550 c 2
 211 98 l 2
 197 51 218 33 262 24 c 0
 282 20 287 15.490234375 287 6 c 0
 287 -2.25 273 -5 257 -5 c 0
 207 -5 192 0 149 0 c 24
 103 0 79 -5 29 -5 c 0
 13 -5 5 -2.25 5 6 c 0
 5 15.490234375 18 20 41 24 c 0
 90 33 123 51 137 98 c 2
 275 550 l 2
EndSplineSet
Validated: 33
Substitution2: "Swash subtable" I.sw
Substitution2: "c2sc subtable" I.sc
Substitution2: "sups subtable" I.sups
Substitution2: "sinf subtable" I.sinf
Substitution2: "ordn subtable" I.ordn
Substitution2: "subs subtable" I.subs
EndChar

StartChar: T
Encoding: 84 84 34
Width: 635
VWidth: 0
Flags: W
HStem: -5 27<120.496 198.158 343.086 401.807> 607 35<196.229 388.493 469.995 669.037>
VStem: 681 25<497.112 565.837>
AnchorPoint: "cedilla" 352 18 basechar 0
AnchorPoint: "below_accent" 300 -100 basechar 0
AnchorPoint: "top_accent" 307 700 basechar 0
LayerCount: 2
Back
SplineSet
544.316 604 m 0
 492.316 604 410.316 602 392.316 600 c 0
 378.316 598 376.316 575 376.316 557 c 0
 376.316 382 376.316 278 376.316 109 c 0
 376.316 87 379.316 72 395.316 57 c 24
 419.316 35 440.316 28 471.316 22 c 0
 488.316 19 487.316 -3 471.316 -3 c 0
 414.316 -3 389.316 2 336.316 2 c 24
 283.316 2 255.316 -3 201.316 -3 c 0
 189.316 -3 184.316 19 201.316 22 c 0
 231.316 28 253.316 35 277.316 57 c 24
 293.316 72 296.316 87 296.316 109 c 0
 296.316 280 296.316 378 296.316 557 c 0
 296.316 575 294.316 597 278.316 600 c 0
 252.316 605 219.316 604 157.316 604 c 0
 125.316 604 97.3164 588 83.3164 562 c 0
 77.3164 551 49.3164 522 34.3164 522 c 0
 19.3164 522 25.3164 547 32.3164 560 c 0
 50.3164 598 59.3164 629 65.3164 671 c 0
 68.3164 693 80.3164 693 85.3164 693 c 0
 90.3164 693 99.3164 673 105.316 662 c 0
 113.316 648 147.316 643 175.316 642 c 24
 324.316 636 409.316 638 558.316 645 c 24
 584.316 646 608.316 652 621.316 663 c 0
 634.316 674 643.316 681 648.316 681 c 0
 653.316 681 666.316 669 664.316 659 c 0
 656.316 620 652.316 580 656.316 535 c 0
 657.316 524 653.316 509 642.316 511 c 0
 630.316 513 628.316 531 626.316 541 c 0
 620.316 565 608.316 604 544.316 604 c 0
EndSplineSet
Fore
SplineSet
327 102 m 2
 313 54 333 31 377 22 c 0
 397 18 402 15.4902 402 6 c 0
 402 -2.25 388 -5 372 -5 c 0
 322 -5 306.775 0 265 0 c 24
 217.77 0 194 -5 144 -5 c 0
 128 -5 120 -2.25 120 6 c 0
 120 15.4902 134 18 157 22 c 0
 206 31 239 54 253 102 c 2
 383 557 l 2
 389 575 393 607 379 607 c 0
 349 607 289 607 250 607 c 0
 194 607 161 560 142 524 c 0
 135 511 131 506 123 506 c 0
 115 506 115 506 115 517 c 0
 115 522 143 596 161 646 c 0
 164 655 169 666 174 666 c 0
 184 666 184 642 223 642 c 2
 691 642 l 2
 720 642 733 666 743 666 c 0
 746 666 749 658 749 650 c 0
 749 643 745 634 741 627 c 0
 733.558 613.977 714 565 706 511 c 0
 704.361 499.94 700 497 695 497 c 0
 686 497 681 506 681 520 c 0
 681 525 697 607 630 607 c 0
 582 607 507 607 488 607 c 0
 474 607 463 575 457 557 c 2
 327 102 l 2
EndSplineSet
Validated: 33
Substitution2: "Swash subtable" T.sw
Substitution2: "c2sc subtable" T.sc
Substitution2: "sups subtable" T.sups
Substitution2: "sinf subtable" T.sinf
Substitution2: "ordn subtable" T.ordn
Substitution2: "subs subtable" T.subs
EndChar

StartChar: U
Encoding: 85 85 48
Width: 737
VWidth: 0
Flags: W
HStem: -14 40<287.692 457.017> 620 33<194.681 245.501 355.376 416.649 658.732 696.984 785.167 856.043>
AnchorPoint: "cedilla" 397 8 basechar 0
AnchorPoint: "ogonek" 475 18 basechar 0
AnchorPoint: "below_accent" 355 -100 basechar 0
AnchorPoint: "top_accent" 543 700 basechar 0
LayerCount: 2
Fore
SplineSet
752 547 m 0
 710 432 684 346 653 254 c 0
 601 99 523 -14 344 -14 c 8
 225.418945312 -14 103.349609375 54.7373046875 151.674804688 221.5 c 2
 246 547 l 2
 260.26953125 595.220703125 244 614 225 620 c 0
 205 626 193 632.509765625 193 642 c 0
 193 650.25 215 653 231 653 c 0
 259 653 285.271484375 650.211914062 320 650 c 24
 349.259765625 649.821289062 375 652 395 652 c 0
 411 652 418 649.25 418 641 c 0
 418 631.509765625 405 628 382 621 c 0
 366 616 332.51171875 589.14453125 321 549 c 2
 233.674804688 237.5 l 2
 192.294921875 89.8935546875 271.865234375 26 370 26 c 16
 516 26 579 144 627 300 c 0
 640 344 666 434 688 511 c 0
 703 562 707 612 683 620 c 0
 671 624 658 630.509765625 658 640 c 0
 658 648.25 673 651 689 651 c 0
 717 651 731.08984375 649.62890625 758 650 c 24
 787.66015625 650.409179688 813 653 834 653 c 0
 850 653 858 650.25 858 642 c 0
 858 632.509765625 844 627 821 622 c 0
 786 615 766 587 752 547 c 0
EndSplineSet
Validated: 33
Substitution2: "Swash subtable" U.sw
Substitution2: "c2sc subtable" U.sc
Substitution2: "sups subtable" U.sups
Substitution2: "sinf subtable" U.sinf
Substitution2: "ordn subtable" U.ordn
Substitution2: "subs subtable" U.subs
Substitution2: "Single Substitution lookup 19 subtable" U.LAT
Substitution2: "loclLAT subtable" U.LAT
EndChar

StartChar: bracketright
Encoding: 93 93 52
Width: 341
VWidth: 0
Flags: W
HStem: -200 33<-17.9529 146.076> 673 29<246.205 389.208>
LayerCount: 2
Fore
SplineSet
434 702 m 0
 464 702 444 664 437 640 c 24
 425 602 415 580 403 542 c 26
 189 -170 l 18
 181 -195 175 -200 152 -200 c 10
 -1 -203 l 26
 -11 -203 -25 -201 -22 -190 c 24
 -18 -178 -3 -173 8 -172 c 0
 52 -168 75 -167 117 -167 c 16
 137 -167 144 -164 159 -118 c 0
 207 30 231 114 276 262 c 16
 322 411 347 495 388 644 c 16
 392 659 388 673 374 673 c 0
 349 673 330 672 310 672 c 0
 297 672 283 672 267 674 c 8
 257 675 245 675 246 686 c 24
 246 695 259 701 267 701 c 26
 421 702 l 18
 425 702 430 702 434 702 c 0
EndSplineSet
Validated: 33
Substitution2: "sups subtable" bracketright.sups
Substitution2: "sinf subtable" bracketright.sinf
Substitution2: "ordn subtable" bracketright.ordn
Substitution2: "subs subtable" bracketright.subs
EndChar

StartChar: grave
Encoding: 96 96 87
Width: 257
VWidth: 0
Flags: W
HStem: 449 215<272 327>
VStem: 309 34<449.106 511.757>
LayerCount: 2
Fore
SplineSet
231 636 m 0
 235 650 256 664 272 664 c 0
 293 664 305 655 310 637 c 0
 319 603 348 477 343 462 c 0
 340 453 336 449 327 449 c 0
 319 449 312 464 309 471 c 0
 269 582 225 617 231 636 c 0
EndSplineSet
Validated: 33
Substitution2: "sups subtable" grave.sups
Substitution2: "sinf subtable" grave.sinf
Substitution2: "ordn subtable" grave.ordn
Substitution2: "subs subtable" grave.subs
EndChar

StartChar: a
Encoding: 97 97 0
Width: 451
Flags: W
HStem: -14 60<66.6045 134.407 310.118 368.837> 353 53<292.466 366.303> 406 20G<412 425.5>
VStem: 14 79<6.7959 105.185> 269 179<30 90> 369 82<301 411> 390 61<396.786 424.212>
AnchorPoint: "ogonek" 369 18 basechar 0
AnchorPoint: "below_accent" 148 -100 basechar 0
AnchorPoint: "top_accent" 370 550 basechar 0
LayerCount: 2
Fore
SplineSet
329 353 m 0xd4
 265 353 93 156 93 77 c 0
 93 50 97 46 116 46 c 0
 187 46 369 281 369 321 c 0
 369 339 346 353 329 353 c 0xd4
300 -14 m 0
 281 -14 269 8 269 30 c 0xb8
 269 65 296 122 311 153 c 0
 320 171 315.458984375 174.459960938 309.299804688 167.599609375 c 0
 186.299804688 30.599609375 125 -14 57 -14 c 0
 40 -14 14 4 14 21 c 0
 14 130 150 285 256 362 c 0
 284 382 331 406 345 406 c 0
 355 406 371.299804688 397.599609375 378.299804688 386.599609375 c 0
 383.1015625 379.053710938 387.446289062 382.213867188 390 388 c 0xd2
 401.299804688 413.599609375 407 426 417 426 c 0
 434 426 451 416 451 406 c 0xb4
 451 401 447.990234375 392.002929688 444 381 c 2
 341 97 l 2
 332 71 343 49 360 49 c 0
 370 49 412 74 424 88 c 0
 427 92 448 111 448 90 c 0xb8
 448 87 441 74 438 70 c 0
 417 38 357 -14 300 -14 c 0
EndSplineSet
Validated: 33
Substitution2: "Smallcaps subtable" a.sc
Substitution2: "sups subtable" a.sups
Substitution2: "sinf subtable" a.sinf
Substitution2: "ordn subtable" a.ordn
Substitution2: "subs subtable" a.subs
EndChar

StartChar: h
Encoding: 104 104 4
Width: 504
Flags: W
HStem: -14 41<245.684 332.768> 379 42<372.751 467.5>
VStem: 438 66<220.903 378.727>
AnchorPoint: "cedilla" 67 8 basechar 0
AnchorPoint: "below_accent" 201 -100 basechar 0
AnchorPoint: "top_accent" 288 812 basechar 0
LayerCount: 2
Back
Fore
SplineSet
222 23 m 20
 222 36 237 52 249 52 c 4
 273 52 283 27 305 27 c 4
 373 27 438 255 438 332 c 4
 438 356 428 379 415 379 c 4
 393 379 359 368 283 292 c 4
 248 258 165 151 125 78 c 4
 90 14 79 -18 63 -18 c 0
 53 -18 46 4 46 16 c 0
 46 22 48 36 59 75 c 2
 200 558 l 2
 207 581 218 619 213 632 c 0
 209 644 160 650 160 659 c 0
 160 664 162 668 166 670 c 0
 196 685 263 707 279 707 c 0
 285 707 296 707 296 697 c 0
 296 686 294 683 292 674 c 2
 160 212 l 2
 157 202 164 202 169 208 c 4
 296 368 383 421 448 421 c 4
 487 421 504 394 504 333 c 4
 504 213 402 -14 265 -14 c 4
 242 -14 222 0.8759765625 222 23 c 20
EndSplineSet
Validated: 33
Substitution2: "Smallcaps subtable" h.sc
Substitution2: "sups subtable" h.sups
Substitution2: "sinf subtable" h.sinf
Substitution2: "ordn subtable" h.ordn
Substitution2: "subs subtable" h.subs
EndChar

StartChar: v
Encoding: 118 118 22
Width: 402
Flags: W
HStem: -14 57<116.618 232.623> 398 20G<210.5 235 382.5 403>
VStem: 378 47<219.955 382.481>
AnchorPoint: "below_accent" 253 -100 basechar 0
AnchorPoint: "top_accent" 337 550 basechar 0
LayerCount: 2
Back
Fore
SplineSet
157 133 m 2
 137 74 152 43 182 43 c 0
 271 43 378 179 378 288 c 0
 378 310 365 328 341 353 c 0
 335 359 335 368 335 373 c 0
 335 381 369 418 396 418 c 0
 410 418 425 395 425 349 c 0
 425 261 399 172 322 81 c 0
 268 18 207 -14 153 -14 c 0
 82 -14 77 80 104 151 c 10
 148 270 l 2
 156 293 169 334 156 334 c 0
 147 334 116 307 88 280 c 0
 85 277 75 279 75 283 c 0
 75 288 76 298 87 313 c 0
 137 380 196 418 225 418 c 0
 245 418 251 406 240 373 c 2
 157 133 l 2
EndSplineSet
Validated: 33
Substitution2: "Smallcaps subtable" v.sc
Substitution2: "sups subtable" v.sups
Substitution2: "sinf subtable" v.sinf
Substitution2: "ordn subtable" v.ordn
Substitution2: "subs subtable" v.subs
AlternateSubs2: "v_alternates subtable" v.init v.alt v.initalt
Substitution2: "ss03 subtable" v.alt
Substitution2: "Single Substitution lookup 18 subtable" v.LATmedi
Substitution2: "loclLAT subtable" v.LAT
EndChar

StartChar: y
Encoding: 121 121 24
Width: 356
Flags: W
HStem: -287 60<-89.8674 -9.21213> 355 59<78.9391 133.582> 403 20G<337.5 348>
VStem: 26 28<263.771 317.558> 167 56<87.9897 300.203> 324 56<261.366 415.265>
AnchorPoint: "top_accent" 274 550 basechar 0
LayerCount: 2
Fore
SplineSet
110 355 m 0xdc
 90 355 61 314 54 290 c 0
 52 283 43 261 35 261 c 0
 30 261 26 274 26 289 c 0
 26 350 84 414 129 414 c 0xdc
 149 414 181 397 196 348 c 0
 214 290 229 212 223 79 c 0
 222 55 229 59 238 76 c 0
 282 160 324 271 324 401 c 0
 324 414 332 423 343 423 c 0xbc
 353 423 380 401 380 374 c 0
 380 250 280 53 132 -130 c 0
 62 -217 -15 -287 -70 -287 c 0
 -90 -287 -115 -273 -115 -245 c 0
 -115 -223 -90 -195 -73 -195 c 0
 -56 -195 -51 -227 -15 -227 c 0
 6 -227 45 -200 69 -166 c 0
 121 -93 167 12 167 116 c 0
 167 301 130 355 110 355 c 0xdc
EndSplineSet
Validated: 33
Substitution2: "Smallcaps subtable" y.sc
Substitution2: "sups subtable" y.sups
Substitution2: "sinf subtable" y.sinf
Substitution2: "ordn subtable" y.ordn
Substitution2: "subs subtable" y.subs
EndChar

StartChar: braceright
Encoding: 125 125 1033
Width: 345
VWidth: 0
Flags: W
HStem: -154 27<-10.8507 83.2687> 688 27<246.642 326.328>
LayerCount: 2
Fore
SplineSet
348 279 m 0
 350 280 353 281 351 283 c 0
 317 300 270 348 290 414 c 16
 308 472 334 519 355 587 c 16
 377 660 326 688 266 688 c 16
 256 688 243 689 246 700 c 16
 249 709 259 715 267 715 c 8
 354 715 443 676 414 582 c 8
 393 512 367 466 348 404 c 8
 330 346 356 308 401 288 c 8
 404 286 411 288 409 282 c 0
 407 276 401 275 396 273 c 16
 339 253 290 215 272 157 c 16
 253 95 251 49 230 -21 c 16
 201 -115 89 -154 2 -154 c 16
 -6 -154 -14 -148 -11 -139 c 8
 -8 -128 7 -127 17 -127 c 8
 77 -127 146 -99 168 -26 c 8
 189 42 191 89 209 147 c 8
 229 213 315 270 348 279 c 0
EndSplineSet
Validated: 33
Substitution2: "sups subtable" braceright.sups
Substitution2: "sinf subtable" braceright.sinf
Substitution2: "ordn subtable" braceright.ordn
Substitution2: "subs subtable" braceright.subs
EndChar

StartChar: asciitilde
Encoding: 126 126 110
Width: 500
Flags: W
HStem: 260 73<254.041 377.762> 308 73<121.948 238.491>
LayerCount: 2
Fore
SplineSet
50 279 m 0x40
 71 318 130 381 175 381 c 0x40
 221 381 271 333 337 333 c 0
 364 333 420 358 437 380 c 0
 438 381 439 382 440 382 c 0
 445 382 453 367 450 362 c 0
 436 335 374 260 325 260 c 0x80
 277 260 212 308 158 308 c 0
 135 308 81 279 65 261 c 0
 60 256 47 273 50 279 c 0x40
EndSplineSet
Validated: 1
Substitution2: "sups subtable" asciitilde.sups
Substitution2: "sinf subtable" asciitilde.sinf
Substitution2: "ordn subtable" asciitilde.ordn
Substitution2: "subs subtable" asciitilde.subs
EndChar

StartChar: cent
Encoding: 162 162 1035
Width: 381
VWidth: 0
Flags: W
HStem: -14 59<232 297.436> 319 94<400.26 443.586>
LayerCount: 2
Fore
SplineSet
176 -12 m 1
 102 3 59 89 89 188 c 0
 124 301 233 401 347 412 c 1
 367 462 l 2
 371 473 382 479 392 479 c 0
 399 479 402 470 399 462 c 2
 379 413 l 1
 415 411 449 398 464 365 c 0
 471 349 450 333 433 323 c 0
 429 321 423 319 419 319 c 0
 411 319 404 323 403 329 c 0
 398 354 388 372 365 379 c 1
 232 46 l 1
 236 45 241 45 246 45 c 0
 285 45 331 50 366 88 c 0
 369 91 372 93 375 93 c 0
 383 93 388 84 382 77 c 0
 329 15 275 -12 207 -14 c 1
 187 -65 l 2
 183 -74 173 -80 165 -80 c 0
 157 -80 150 -74 154 -65 c 2
 176 -12 l 1
202 53 m 1
 335 384 l 1
 333 384 l 2
 259 384 185 297 162 222 c 0
 135 135 155 75 202 53 c 1
EndSplineSet
Validated: 33
EndChar

StartChar: section
Encoding: 167 167 1108
Width: 370
VWidth: 0
Flags: W
HStem: -148 54<45.0188 140.127> 596 44<340.074 419.5>
LayerCount: 2
Fore
SplineSet
295 305 m 0
 269 348 228 412 227 458 c 0
 227 463 220 462 218 458 c 0
 203 431 193 412 185 385 c 0
 164 316 176 266 213 204 c 0
 239 161 280 97 281 51 c 0
 281 46 288 47 290 51 c 0
 305 78 315 97 323 124 c 0
 344 193 332 243 295 305 c 0
408 640 m 0
 431 640 460 631 467 621 c 0
 471 616 475 611 473 603 c 0
 472 599 442 556 423 556 c 0
 419 556 416 558 413 562 c 1
 400 580 383 596 366 596 c 0
 329 596 300 565 290 533 c 0
 279 496 302 438 341 385 c 0
 396 310 397 247 370 159 c 0
 348 86 321 49 271 -11 c 24
 221 -70 167 -113 122 -137 c 0
 105 -146 86 -148 69 -148 c 0
 36 -148 15 -134 21 -116 c 0
 24 -107 36 -81 63 -64 c 0
 71 -59 78 -66 81 -70 c 0
 92 -85 117 -94 138 -94 c 0
 170 -94 196 -64 212 -12 c 0
 227 38 187 95 155 149 c 0
 117 212 104 270 122 329 c 0
 149 418 191 467 240 513 c 1
 272 571 342 640 408 640 c 0
EndSplineSet
Validated: 33
Substitution2: "sups subtable" section.sups
Substitution2: "sinf subtable" section.sinf
Substitution2: "ordn subtable" section.ordn
Substitution2: "subs subtable" section.subs
EndChar

StartChar: dieresis
Encoding: 168 168 72
Width: 5
VWidth: 0
Flags: W
HStem: 494 100<-101.941 -47.0592 62.0592 117.302>
VStem: -121 93<513.281 574.719> 43 93<512.342 574.719>
LayerCount: 2
Fore
SplineSet
105 594 m 0
 128 594 144 569 136 544 c 0
 128 519 98 494 75 494 c 0
 52 494 35 519 43 544 c 0
 51 569 82 594 105 594 c 0
-59 594 m 0
 -36 594 -20 569 -28 544 c 0
 -36 519 -67 494 -90 494 c 0
 -113 494 -129 519 -121 544 c 0
 -113 569 -82 594 -59 594 c 0
EndSplineSet
Validated: 33
EndChar

StartChar: ordfeminine
Encoding: 170 170 574
Width: 236
VWidth: 0
Flags: W
HStem: 161 35<77.9653 286.077> 268 40<257 311.577> 491 33<238.141 308.5>
VStem: 75 258
LayerCount: 2
Fore
SplineSet
102 196 m 26
 282 196 l 26
 288 196 294 189 289 182 c 24
 279 169 268 161 255 161 c 26
 83 161 l 26
 77 161 73 167 75 173 c 0
 78 182 91 196 102 196 c 26
175 342 m 0
 168 319 181 308 192 308 c 0
 207 308 221 319 232 327 c 0
 238 331 240 335 245 350 c 10
 255 379 l 18
 259 391 255 393 245 390 c 0
 198 376 179 356 175 342 c 0
273 268 m 0
 241 268 238 299 234 299 c 0
 226 299 201 268 155 268 c 0
 131 268 115 304 122 327 c 0
 130 352 140 368 172 380 c 10
 248 408 l 18
 264 414 266 416 271 432 c 2
 278 455 l 26
 284 475 278 491 257 491 c 0
 243 491 224 486 217 478 c 0
 213 472 208 460 207 453 c 0
 205 445 176 438 161 434 c 0
 157 433 156 437 161 444 c 0
 171 459 176 469 194 482 c 0
 217 499 265 524 295 524 c 0
 322 524 342 499 333 471 c 10
 292 347 l 26
 287 330 282 308 298 308 c 0
 308 308 314 310 319 316 c 0
 325 323 329 307 325 301 c 0
 323 298 294 268 273 268 c 0
EndSplineSet
Validated: 33
EndChar

StartChar: registered
Encoding: 174 174 1087
Width: 337
Flags: W
HStem: 436 20<120.61 199.39> 488 9<106.001 115.584 152.746 164.354> 534 17<148 164.58> 589 14<148.164 170.654> 630 20<120.61 199.39>
VStem: 53 20<503.61 582.39> 123 25<498.664 533.999 551 583.903> 164 55<492.562 512.985> 176 25<552.747 587.951> 247 20<503.61 582.39>
LayerCount: 2
Fore
SplineSet
160 630 m 0xfe40
 112 630 73 591 73 543 c 0
 73 495 112 456 160 456 c 0
 208 456 247 495 247 543 c 0
 247 591 208 630 160 630 c 0xfe40
160 650 m 0
 219 650 267 602 267 543 c 0
 267 484 219 436 160 436 c 0
 101 436 53 484 53 543 c 0
 53 602 101 650 160 650 c 0
176 567 m 0xfec0
 176 578 168 589 159 589 c 0
 150 589 148 585 148 580 c 2
 148 557 l 2
 148 551 150 551 155 551 c 0
 165 551 176 558 176 567 c 0xfec0
107 488 m 2
 106 488 106 490 106 492 c 0
 106 494 106 497 107 497 c 0
 112 499 123 505 123 509 c 2
 123 571 l 2
 123 576 117 582 111 584 c 0
 109 584 107 596 111 597 c 0
 132 602 139 603 159 603 c 0
 185 603 201 590 201 572 c 0xfec0
 201 555 186 548 182 547 c 0
 178 547 196 509 208 500 c 0
 210 498 219 490 219 488 c 0
 219 485 211 485 207 485 c 0
 182 485 170 510 164 528 c 0xff40
 163 532 156 534 154 534 c 0
 152 534 148 533 148 531 c 2
 148 509 l 2
 148 503 153 500 163 498 c 0
 165 497 165 488 163 488 c 2
 107 488 l 2
EndSplineSet
Validated: 33
EndChar

StartChar: plusminus
Encoding: 177 177 1026
Width: 590
Flags: W
HStem: 38 50<53.1042 534.648> 351 50<53.1042 270 320 534.648>
VStem: 270 50<124.104 351 401.011 606.195>
LayerCount: 2
Fore
SplineSet
64 38 m 2
 57 38 50 44 50 50 c 0
 50 59 56 88 74 88 c 2
 527 88 l 2
 534 88 543 81 540 74 c 0
 534 57 528 38 509 38 c 2
 64 38 l 2
320 407 m 2
 320 400 321 401 324 401 c 2
 527 401 l 2
 534 401 543 394 540 387 c 0
 534 370 528 351 509 351 c 2
 324 351 l 2
 321 351 320 350 320 347 c 2
 320 145 l 2
 320 127 291 121 282 121 c 0
 276 121 270 128 270 135 c 2
 270 346 l 2
 270 349 269 351 266 351 c 2
 64 351 l 2
 57 351 50 357 50 363 c 0
 50 372 56 401 74 401 c 2
 263 401 l 2
 269 401 270 403 270 409 c 2
 270 580 l 2
 270 599 300 611 306 611 c 0
 313 611 320 605 320 598 c 2
 320 407 l 2
EndSplineSet
Validated: 1
EndChar

StartChar: uni00B3
Encoding: 179 179 576
Width: 277
VWidth: 0
Flags: W
HStem: 434 34<226.457 299.49> 588 11<258.448 266.16> 723 47<314.741 382.046>
LayerCount: 2
Fore
SplineSet
236 434 m 0
 209 434 176 439 185 467 c 0
 187 475 202 495 210 495 c 0
 216 495 219 492 220 490 c 0
 229 482 246 468 274 468 c 0
 286 468 330 472 348 530 c 8
 359 566 341 595 306 595 c 0
 297 595 280 591 269 588 c 0
 263 586 253 594 259 599 c 24
 278 614 298 615 313 624 c 0
 347 644 373 654 383 686 c 16
 390 707 367 723 350 723 c 0
 329 723 303 713 274 693 c 0
 270 690 266 686 263 687 c 24
 260 689 258 694 261 698 c 0
 285 729 330 770 379 770 c 1
 426 769 455 750 439 699 c 0
 431 674 402 650 363 632 c 0
 359 630 358 627 362 627 c 8
 396 625 417 598 406 561 c 16
 381 480 285 434 236 434 c 0
EndSplineSet
Validated: 33
EndChar

StartChar: questiondown
Encoding: 191 191 1043
Width: 327
VWidth: 0
Flags: W
HStem: -181 88<138.539 236.548> 374 120<316.544 379.456>
VStem: 292 112<398.16 469.84> 299 32<239.366 297.695>
LayerCount: 2
Fore
SplineSet
330 374 m 24xe0
 299 374 282 401 292 434 c 24
 302 467 335 494 366 494 c 24
 397 494 414 467 404 434 c 24
 394 401 361 374 330 374 c 24xe0
197 -181 m 0
 166 -181 133 -164 112 -131 c 0
 77 -75 66 14 82 65 c 0
 97 114 130 149 152 160 c 0
 200 184 216 192 252 213 c 0
 284 231 288 244 299 276 c 0
 302 286 311 299 320 299 c 0
 327 299 332 286 331 270 c 0xd0
 330 247 331 233 321 187 c 0
 313 151 269 126 198 93 c 0
 168 79 129 51 120 22 c 0
 100 -44 116 -92 179 -93 c 0
 197 -93 205 -89 223 -89 c 0
 243 -89 253 -118 245 -145 c 0
 239 -164 213 -181 197 -181 c 0
EndSplineSet
Validated: 33
EndChar

StartChar: Oslash
Encoding: 216 216 1023
Width: 716
VWidth: 0
Flags: W
HStem: -14 39<303.677 467.934> 625 39<456.715 628.576>
AnchorPoint: "cedilla" 412 8 basechar 0
AnchorPoint: "below_accent" 370 -100 basechar 0
AnchorPoint: "top_accent" 383 700 basechar 0
LayerCount: 2
Fore
SplineSet
544 625 m 0
 406 625 286 490 243 350 c 0
 222 281 215 215 226 161 c 1
 689 529 l 1
 670 590 621 625 544 625 c 0
143 320 m 0
 198 501 360 664 569 664 c 0
 647 664 713 633 752 579 c 1
 850 658 l 2
 859 665 871 663 871 654 c 0
 871 645 869 630 858 621 c 2
 769 549 l 1
 796 494 800 420 774 335 c 0
 719 155 559 -14 355 -14 c 0
 279 -14 216 17 175 69 c 1
 76 -11 l 2
 73 -13 70 -14 67 -14 c 0
 57 -14 47 -4 46 0 c 0
 45 8 52 18 62 26 c 2
 154 100 l 1
 123 158 117 234 143 320 c 0
697 492 m 1
 238 123 l 1
 262 64 311 25 379 25 c 0
 519 25 622 134 674 305 c 0
 696 377 705 441 697 492 c 1
EndSplineSet
Validated: 33
Substitution2: "c2sc subtable" Oslash.sc
EndChar

StartChar: Ccircumflex
Encoding: 264 264 187
Width: 622
VWidth: 0
Flags: W
HStem: -14 37<315.982 450.038> 628 35<422.993 591.501> 725 132
VStem: 96 84<142.219 360.884> 622 33<467.178 536.318>
LayerCount: 2
Fore
SplineSet
577.487304688 788 m 0
 569.487304688 795 570.487304688 795 558.487304688 788 c 0
 529.487304688 773 525.487304688 769 471.487304688 743 c 0
 458.487304688 736 429.487304688 725 417.487304688 725 c 0
 403.487304688 725 402.487304688 737 416.487304688 747 c 2
 544.487304688 835 l 2
 567.487304688 851 574.487304688 857 588.487304688 857 c 0
 602.487304688 857 606.487304688 851 620.487304688 835 c 2
 693.487304688 747 l 2
 701.487304688 737 693.487304688 724 679.487304688 724 c 0
 667.487304688 724 660.487304688 732 651.487304688 739 c 0
 613.487304688 765 597.487304688 773 577.487304688 788 c 0
EndSplineSet
Refer: 32 67 N 1 0 0 1 0 0 3
Validated: 1
Substitution2: "c2sc subtable" Ccircumflex.sc
EndChar

StartChar: Dcaron
Encoding: 270 270 193
Width: 773
VWidth: 0
Flags: HW
HStem: -7 35<192.833 439.505> -5 29<20.7629 111.218> 618 33<187.538 282.055 395.287 554.01> 724 133
VStem: 697 86<273.574 501.999>
LayerCount: 2
Fore
SplineSet
574.859375 793 m 4x38
 603.859375 808 625.859375 816 679.859375 842 c 4
 692.859375 849 704.859375 857 716.859375 857 c 4
 730.859375 857 730.859375 844 716.859375 834 c 6
 589.859375 746 l 6
 566.859375 730 558.859375 724 544.859375 724 c 4
 530.859375 724 527.859375 730 513.859375 746 c 6
 439.859375 834 l 6
 431.859375 844 439.859375 856 453.859375 856 c 4
 465.859375 856 487.859375 845 496.859375 838 c 4
 534.859375 812 536.859375 808 556.859375 793 c 4
 564.859375 786 562.859375 786 574.859375 793 c 4x38
EndSplineSet
Refer: 43 68 N 1 0 0 1 0 0 3
Substitution2: "c2sc subtable" Dcaron.sc
EndChar

StartChar: dcaron
Encoding: 271 271 194
Width: 483
VWidth: 0
Flags: W
HStem: -14 32<77.22 158.669> 389 31<296.055 363.976> 685 20<542 550.5>
VStem: 26 70<18.6526 140.602> 319 194<36 110>
LayerCount: 2
Fore
SplineSet
556 535 m 0
 572 576 577 590 590 654 c 0
 593 668 608 683 618 690 c 0
 636 702 639 705 653 705 c 0
 666 705 662 682 653 661 c 0
 623 592 604 567 581 537 c 0
 572 525 558 512 554 512 c 0
 550 512 552 526 556 535 c 0
EndSplineSet
Refer: 11 100 N 1 0 0 1 0 0 2
Validated: 33
Substitution2: "Smallcaps subtable" dcaron.sc
EndChar

StartChar: Ecaron
Encoding: 282 282 203
Width: 621
VWidth: 0
Flags: W
HStem: -5 35<8.01822 107.75 228.884 496.445> 322 27<307.177 478.603> 388 20<556.5 561.5> 618 32<218.007 283.946 386.483 609.242> 724 133
VStem: 492 28<252.052 308.246> 618 55<568.25 613.321>
LayerCount: 2
Fore
SplineSet
716.836914062 793 m 4
 745.836914062 808 767.836914062 816 821.836914062 842 c 4
 834.836914062 849 846.836914062 857 858.836914062 857 c 4
 872.836914062 857 872.836914062 844 858.836914062 834 c 6
 731.836914062 746 l 6
 708.836914062 730 700.836914062 724 686.836914062 724 c 4
 672.836914062 724 669.836914062 730 655.836914062 746 c 6
 581.836914062 834 l 6
 573.836914062 844 581.836914062 856 595.836914062 856 c 4
 607.836914062 856 629.836914062 845 638.836914062 838 c 4
 676.836914062 812 678.836914062 808 698.836914062 793 c 4
 706.836914062 786 704.836914062 786 716.836914062 793 c 4
EndSplineSet
Refer: 35 69 N 1 0 0 1 0 0 3
Validated: 1
Substitution2: "c2sc subtable" Ecaron.sc
EndChar

StartChar: hbar
Encoding: 295 295 1009
Width: 428
VWidth: 0
Flags: W
HStem: -6 22<342.5 410.214> 362 52<317.711 425> 538 33<182.742 236 308 432.655> 685 20G<350.5 352.5>
AnchorPoint: "below_accent" 231 -100 basechar 0
AnchorPoint: "top_accent" 242 757 basechar 0
LayerCount: 2
Fore
SplineSet
389 62 m 6
 386 51 379 30 378 24 c 1
 378 20 387 16 394 16 c 0
 400 16 415 20 423 26 c 2
 461 59 l 1
 471 53 l 1
 430 10 399 -6 362 -6 c 0
 323 -6 316 21 330 67 c 6
 393 272 l 6
 409 323 376 362 339 362 c 4
 317 362 282 355 261 340 c 4
 238 323 228 309 215 268 c 6
 139 17 l 5
 84 0 l 1
 72 4 l 5
 236 538 l 5
 189 538 l 6
 181 538 180 547 182 553 c 4
 185 562 198 571 208 571 c 6
 246 571 l 5
 256 605 253 632 228 639 c 4
 220 641 227 662 235 664 c 4
 283 676 316 692 348 704 c 4
 349 704 350 705 351 705 c 4
 354 705 355 701 355 698 c 5
 351 686 339 670 308 571 c 5
 428 571 l 6
 434 571 440 564 435 557 c 4
 425 544 415 538 402 538 c 6
 298 538 l 5
 252 388 l 6
 248 376 246 357 248 351 c 5
 282 374 343 414 397 414 c 4
 453 414 484 372 460 294 c 6
 389 62 l 6
EndSplineSet
Validated: 33
Substitution2: "Smallcaps subtable" hbar.sc
EndChar

StartChar: Itilde
Encoding: 296 296 215
Width: 371
VWidth: 0
Flags: W
HStem: -5 29<5.7629 87.4897 224.031 286.641> 622 31<210.487 270.933 389.79 472.785> 749 63<314.908 481.569> 757 63<289.046 458.64>
VStem: 224.274 324
LayerCount: 2
Fore
SplineSet
224.274414062 743 m 0x60
 259.274414062 779 314.274414062 820 328.274414062 820 c 0x60
 351.274414062 820 449.274414062 812 472.274414062 812 c 0
 486.274414062 812 513.274414062 827 536.274414062 849 c 0
 537.274414062 850 538.274414062 850 539.274414062 850 c 0
 545.274414062 850 552.274414062 836 548.274414062 831 c 0
 524.274414062 806 461.274414062 749 447.274414062 749 c 0xa0
 424.274414062 749 322.274414062 757 299.274414062 757 c 0
 285.274414062 757 258.274414062 743 238.274414062 725 c 0
 237.274414062 724 236.274414062 724 235.274414062 724 c 0
 228.274414062 724 219.274414062 738 224.274414062 743 c 0x60
EndSplineSet
Refer: 33 73 N 1 0 0 1 0 0 3
Validated: 1
Substitution2: "c2sc subtable" Itilde.sc
EndChar

StartChar: Ibreve
Encoding: 300 300 219
Width: 371
VWidth: 0
Flags: W
HStem: -5 29<5.7629 87.4897 224.031 286.641> 622 31<210.487 270.933 389.79 472.785> 724 70<322.698 445.085>
VStem: 517.258 29<841.993 872.004>
LayerCount: 2
Fore
SplineSet
297.2578125 857 m 0
 301.2578125 835 323.2578125 794 388.2578125 794 c 0
 453.2578125 794 499.2578125 835 517.2578125 857 c 0
 524.2578125 866 535.2578125 878 544.2578125 878 c 0
 553.2578125 878 550.2578125 867 546.2578125 854 c 0
 526.2578125 790 441.2578125 724 367.2578125 724 c 0
 293.2578125 724 244.2578125 779 267.2578125 854 c 0
 271.2578125 867 274.2578125 878 283.2578125 878 c 0
 292.2578125 878 295.2578125 866 297.2578125 857 c 0
EndSplineSet
Refer: 33 73 N 1 0 0 1 0 0 3
Validated: 1
Substitution2: "c2sc subtable" Ibreve.sc
EndChar

StartChar: dotlessi
Encoding: 305 305 76
Width: 274
Flags: W
HStem: -14 55<76 160.386>
VStem: 51 71<14.7369 107.25>
AnchorPoint: "top_accent" 245 550 basechar 0
LayerCount: 2
Fore
SplineSet
61 76 m 2
 133 270 l 2
 141 293 146 318 133 318 c 0
 122 318 96 309 66 295 c 0
 62 293 51 296 51 300 c 0
 51 305 52 309 60 315 c 0
 126 362 162 384 223 418 c 0
 229 421 242 425 242 414 c 0
 242 400 238 387 232 370 c 2
 129 86 l 2
 125 75 122 65 122 57 c 0
 122 47 127 41 134 41 c 0
 166 41 236 108 246 118 c 0
 247 119 248 120 250 120 c 0
 253 120 256 118 256 115 c 0
 256 38 127 -14 92 -14 c 0
 60 -14 49 2 49 21 c 0
 49 44 52 53 61 76 c 2
EndSplineSet
Substitution2: "Smallcaps subtable" dotlessi.sc
EndChar

StartChar: ldot
Encoding: 320 320 234
Width: 271
VWidth: 0
Flags: W
HStem: -14 55<78 158.697> 314 100<275.719 332.708>
VStem: 50 76<5.25383 105.281> 258 93<332.025 396.748>
LayerCount: 2
Fore
SplineSet
258 347 m 0
 258 385 290 414 319 414 c 16
 339 414 351 400 351 380 c 0
 351 343 317 314 289 314 c 16
 269 314 258 327 258 347 c 0
EndSplineSet
Refer: 2 108 N 1 0 0 1 0 0 2
Validated: 1
Ligature2: "liga_standard subtable" l.CAT periodcentered
Substitution2: "Smallcaps subtable" ldot.sc
LCarets2: 1 0 
EndChar

StartChar: eng
Encoding: 331 331 1046
Width: 490
Flags: W
HStem: -288 41<92.6839 182.836> -17 21G<32 45> 372 42<323.201 410.396>
VStem: 389 66<204.558 371.727>
AnchorPoint: "top_accent" 375 550 basechar 0
LayerCount: 2
Fore
SplineSet
395 414 m 4
 434 414 455 387 455 326 c 0
 455 214 360.534179688 -8.498046875 311.877929688 -113.799804688 c 0
 269.458984375 -205.603515625 194.555664062 -288 112 -288 c 0
 89 -288 69 -273.124023438 69 -251 c 16
 69 -238 84 -222 96 -222 c 0
 120 -222 130 -247 152 -247 c 0
 188.122070312 -247 218.358398438 -179.796875 250.532226562 -110.799804688 c 0
 278.927734375 -49.9052734375 389 203 389 325 c 0
 389 349 386 372 366 372 c 0
 343 372 290 351 246 297 c 0
 215 259 143 151 103 78 c 0
 68 14 53 -17 37 -17 c 0
 27 -17 20 5 20 17 c 0
 20 23 28 46 42 84 c 2
 129 312 l 2
 140 341 144 356 131 356 c 0
 111 356 91 352 59 310 c 0
 54 304 46 304 44 314 c 0
 43 326 52 353 61 364 c 0
 83 392 109 413 154 414 c 0
 181 414 208 402 192 360 c 2
 138 212 l 2
 134 202 143 201 147 208 c 0
 228 348 329 414 395 414 c 4
EndSplineSet
Validated: 33
Substitution2: "Smallcaps subtable" eng.sc
EndChar

StartChar: Obreve
Encoding: 334 334 243
Width: 712
VWidth: 0
Flags: W
HStem: -14 35<264.006 414.248> 628 36<391.576 555.605> 724 70<458.335 580.722>
VStem: 89 82<128.393 340.569> 642 82<325.945 533.828> 652.895 29<841.993 872.004>
LayerCount: 2
Fore
SplineSet
432.89453125 857 m 0xf0
 436.89453125 835 458.89453125 794 523.89453125 794 c 0
 588.89453125 794 634.89453125 835 652.89453125 857 c 0
 659.89453125 866 670.89453125 878 679.89453125 878 c 0
 688.89453125 878 685.89453125 867 681.89453125 854 c 0
 661.89453125 790 576.89453125 724 502.89453125 724 c 0
 428.89453125 724 379.89453125 779 402.89453125 854 c 0
 406.89453125 867 409.89453125 878 418.89453125 878 c 0
 427.89453125 878 430.89453125 866 432.89453125 857 c 0xf0
EndSplineSet
Refer: 46 79 N 1 0 0 1 0 0 3
Validated: 1
Substitution2: "c2sc subtable" Obreve.sc
EndChar

StartChar: OE
Encoding: 338 338 581
Width: 892
VWidth: 0
Flags: W
HStem: -14 39<299.548 489.234> -5 40<598.836 807.266> 320 32<676.999 799.401> 388 20G<864.5 869.5> 618 35<759.522 954.561> 625 39<452.257 629.645>
VStem: 809 28<252.012 307.756> 967 23<532.38 586.708>
LayerCount: 2
Fore
SplineSet
722 320 m 0x3b
 721 320 l 0
 698 320 659 320 652 291 c 1
 633 230 616 170 600 113 c 0
 588 72 593 35 635 35 c 2
 731 35 l 2
 736 35 793 43 808 53 c 0
 829 67 853 99 866 116 c 0
 872 124 875 126 882 126 c 24
 888 125 893 121 890 114 c 0
 874 75 860 44 843 12 c 0
 839 4 834 -5 825 -5 c 8
 710 -5 626 2 533 2 c 0
 487 2 433 -5 431 -5 c 0x7b
 405 -11 378 -14 350 -14 c 0
 185 -14 81 130 139 320 c 0
 195 502 356 664 565 664 c 0xb7
 594 664 621 659 646 652 c 0
 648 651 656 651 659 651 c 0
 698 651 688 648 708 648 c 16
 811 649 945 653 987 653 c 0
 991 653 995 653 997 653 c 0
 1004 653 1012 651 1011 644 c 0
 1006 606 1000 576 990 541 c 0
 988 535 981 532 975 532 c 0
 968 532 967 535 967 542 c 0
 967 564 966 581 961 591 c 0
 950 612 930 618 907 618 c 2
 785 618 l 2
 775 618 760 604 754 592 c 0
 740 565 725 527 713 487 c 0
 701 448 687 408 677 374 c 0
 674 363 671 352 680 352 c 2
 776 352 l 2
 803 352 829 368 845 391 c 0
 848 396 862 408 867 408 c 0
 872 408 878 401 874 392 c 0
 853 340 850 320 837 269 c 0
 834 260 830 252 823 252 c 8
 811 252 809 268 809 275 c 0
 809 306 791 312 777 314 c 0
 756 318 739 320 722 320 c 0x3b
537 146 m 0
 562 221 578 271 594 322 c 0
 610 373 624 424 645 499 c 0
 646 501 654 538 655 540 c 0
 667 601 617 625 539 625 c 0
 401 625 281 490 238 350 c 0
 186 179 236 25 374 25 c 0xb7
 443 25 499 27 515 81 c 0
 518 91 531 131 537 146 c 0
EndSplineSet
Validated: 33
Substitution2: "c2sc subtable" OE.sc
EndChar

StartChar: oe
Encoding: 339 339 582
Width: 604
Flags: W
HStem: -15 50<345.431 435.172> -14 30<102.149 170.582> 217 29<367.001 439.437> 384 30<226.264 292.852 464.759 533.002>
VStem: 25 64<30.5807 194.315> 306 61<248.515 296.141> 536 61<302.528 384.145>
AnchorPoint: "top_accent" 412 550 basechar 0
LayerCount: 2
Back
SplineSet
320 380 m 0x70
 247 380 182 293 157 210 c 0
 127 111 156 16 224 16 c 0
 292 16 361 100 388 189 c 0
 417 284 393 380 320 380 c 0x70
370 65 m 0
 324 18 264 -14 196 -14 c 0x70
 99 -14 48 66 85 186 c 0
 123 310 239 414 345 414 c 0
 400 414 441 384 460 338 c 0
 463 330 465 328 471 335 c 0
 520 388 579 413 638 413 c 0
 690 413 739 387 719 322 c 0
 712 300 705 282 691 275 c 0
 677 268 654 267 632 267 c 18
 474 265 l 2
 460 265 457 249 449 222 c 0
 421 129 459 47 520 46 c 0
 523 46 526 46 529 46 c 0
 562 46 592 52 629 88 c 0
 632 91 635 92 638 92 c 0
 645 92 650 84 644 77 c 0
 586 13 546 -14 480 -14 c 0xb0
 432 -14 394 15 380 65 c 0
 376 65 374 65 370 65 c 0
491 311 m 0
 480 297 488 296 494 296 c 18
 563 296 l 10
 592 296 622 297 642 305 c 8
 654 310 661 330 663 337 c 0
 673 374 639 386 613 386 c 0
 565 386 522 350 491 311 c 0
EndSplineSet
Fore
SplineSet
508 385 m 0x3e
 453 385 367 282 367 252 c 0
 367 246 369 246 374 246 c 0
 404 246 536 273 536 353 c 0
 536 371 528 385 508 385 c 0x3e
306 304 m 0
 306 354 297 384 263 384 c 0
 183 384 89 189 89 96 c 0
 89 46 98 16 132 16 c 0x7e
 212 16 306 211 306 304 c 0
364.970431516 334.019367933 m 1
 407.595673778 381.106271644 458.682617188 414 523 414 c 0
 577 414 597 392 597 351 c 0
 597 271 434 217 364 217 c 0
 356 217 352.642578125 215.23046875 349 207 c 0
 335.500976562 176.5 332 154 332 112 c 0
 332 62 352 35 386 35 c 0
 434 35 474 72 494 98 c 0
 500 106 507 109 512 109 c 0
 518 109 522 105 522 99 c 0
 522 97 522 94 520 91 c 0
 480 26 423 -15 353 -15 c 0xbe
 321.164565379 -15 284.664788693 9.65437949174 272.328658249 60.0509872437 c 1
 231.599818082 16.1665641881 179.76919583 -14 120 -14 c 0
 80 -14 25 28 25 104 c 0
 25 224 125 414 275 414 c 0
 307.730469069 414 350.504221939 385.878805356 364.970431516 334.019367933 c 1
EndSplineSet
Validated: 1
Substitution2: "Smallcaps subtable" oe.sc
Ligature2: "LATliga subtable" o e
LCarets2: 1 0 
EndChar

StartChar: Tbar
Encoding: 358 358 1012
Width: 632
VWidth: 0
Flags: W
HStem: -3 25<181.985 235.605 409.977 449.717> 362 36<262.149 386 471 598.628> 604 35<303.538 450.972 532.292 740.063>
AnchorPoint: "cedilla" 356 18 basechar 0
AnchorPoint: "below_accent" 334 -100 basechar 0
AnchorPoint: "top_accent" 341 700 basechar 0
LayerCount: 2
Fore
SplineSet
690 604 m 0
 642 604 565 602 548 600 c 0
 534 598 526 575 520 557 c 2
 471 398 l 1
 594 398 l 2
 601 398 607 391 602 384 c 0
 592 371 580 362 566 362 c 2
 460 362 l 1
 383 109 l 2
 376 87 375 72 385 57 c 0
 401 35 418 28 445 22 c 0
 460 19 452 -3 437 -3 c 0
 384 -3 362 2 313 2 c 0
 264 2 236 -3 186 -3 c 0
 175 -3 176 19 193 22 c 0
 223 28 246 35 275 57 c 0
 294 72 301 87 308 109 c 2
 386 362 l 1
 269 362 l 2
 261 362 260 374 262 380 c 0
 265 389 279 398 290 398 c 2
 397 398 l 1
 445 557 l 2
 451 575 456 597 442 600 c 0
 426 604 404 604 372 604 c 0
 360 604 346 604 330 604 c 0
 300 604 263 591 242 565 c 0
 233 554 206 527 192 527 c 0
 184 527 191 547 201 560 c 0
 229 598 245 629 263 671 c 0
 273 693 281 694 286 694 c 0
 291 694 298 673 300 662 c 0
 303 648 333 643 359 642 c 0
 416 640 463 639 508 639 c 0
 572 639 634 641 716 645 c 0
 744 646 776 650 789 664 c 0
 804 679 814 686 821 686 c 0
 826 686 832 679 827 669 c 0
 808 630 786 587 776 552 c 0
 773 542 766 527 757 527 c 0
 756 527 756 527 755 527 c 0
 744 529 748 549 747 558 c 0
 744 577 750 604 690 604 c 0
EndSplineSet
Validated: 33
Substitution2: "c2sc subtable" Tbar.sc
EndChar

StartChar: Utilde
Encoding: 360 360 265
Width: 737
VWidth: 0
Flags: W
HStem: -14 40<287.692 457.017> 620 33<194.681 245.501 355.376 416.649 658.732 696.984 785.167 856.043> 749 63<502.408 669.069> 757 63<476.546 646.14>
VStem: 411.774 324
LayerCount: 2
Fore
SplineSet
411.774414062 743 m 0x60
 446.774414062 779 501.774414062 820 515.774414062 820 c 0x60
 538.774414062 820 636.774414062 812 659.774414062 812 c 0
 673.774414062 812 700.774414062 827 723.774414062 849 c 0
 724.774414062 850 725.774414062 850 726.774414062 850 c 0
 732.774414062 850 739.774414062 836 735.774414062 831 c 0
 711.774414062 806 648.774414062 749 634.774414062 749 c 0xa0
 611.774414062 749 509.774414062 757 486.774414062 757 c 0
 472.774414062 757 445.774414062 743 425.774414062 725 c 0
 424.774414062 724 423.774414062 724 422.774414062 724 c 0
 415.774414062 724 406.774414062 738 411.774414062 743 c 0x60
EndSplineSet
Refer: 48 85 N 1 0 0 1 0 0 3
Validated: 1
Substitution2: "c2sc subtable" Utilde.sc
EndChar

StartChar: Uring
Encoding: 366 366 271
Width: 737
VWidth: 0
Flags: W
HStem: -14 40<287.692 457.017> 620 33<194.681 245.501 355.376 416.649 658.732 696.984 785.167 856.043> 724 22<539.821 593.632> 865 23<564.786 620.439>
LayerCount: 2
Fore
SplineSet
607.887695312 888 m 16
 652.887695312 888 678.887695312 859 663.887695312 811 c 8
 648.887695312 761 595.887695312 724 549.887695312 724 c 8
 507.887695312 724 480.887695312 753 495.887695312 803 c 8
 510.887695312 852 561.887695312 888 607.887695312 888 c 16
531.887695312 806 m 8
 521.887695312 774 535.887695312 746 565.887695312 746 c 24
 592.887695312 746 617.887695312 778 626.887695312 806 c 8
 635.887695312 837 623.887695312 865 594.887695312 865 c 24
 566.887695312 865 540.887695312 835 531.887695312 806 c 8
EndSplineSet
Refer: 48 85 N 1 0 0 1 0 0 3
Validated: 1
Substitution2: "c2sc subtable" Uring.sc
EndChar

StartChar: Ycircumflex
Encoding: 374 374 279
Width: 595
VWidth: 0
Flags: W
HStem: -5 29<87.8438 164.653 310.55 368.641> 620 33<123.308 190.385 295.351 366.821 488.633 544.872 642.804 714.896> 725 132
LayerCount: 2
Fore
SplineSet
477.043945312 788 m 0
 469.043945312 795 470.043945312 795 458.043945312 788 c 0
 429.043945312 773 425.043945312 769 371.043945312 743 c 0
 358.043945312 736 329.043945312 725 317.043945312 725 c 0
 303.043945312 725 302.043945312 737 316.043945312 747 c 2
 444.043945312 835 l 2
 467.043945312 851 474.043945312 857 488.043945312 857 c 0
 502.043945312 857 506.043945312 851 520.043945312 835 c 2
 593.043945312 747 l 2
 601.043945312 737 593.043945312 724 579.043945312 724 c 0
 567.043945312 724 560.043945312 732 551.043945312 739 c 0
 513.043945312 765 497.043945312 773 477.043945312 788 c 0
EndSplineSet
Refer: 49 89 N 1 0 0 1 0 0 3
Validated: 1
Substitution2: "c2sc subtable" Ycircumflex.sc
EndChar

StartChar: Ydieresis
Encoding: 376 376 281
Width: 595
VWidth: 0
Flags: W
HStem: -5 29<87.8438 164.653 310.55 368.641> 620 33<123.308 190.385 295.351 366.821 488.633 544.872 642.804 714.896> 724 110<346.088 406.568 523.088 582.568>
VStem: 324.828 103<745.203 812.797> 501.828 102<745.203 812.797>
LayerCount: 2
Fore
SplineSet
569.828125 834 m 24
 597.828125 834 612.828125 809 603.828125 779 c 24
 594.828125 749 563.828125 724 535.828125 724 c 24
 507.828125 724 492.828125 749 501.828125 779 c 24
 510.828125 809 541.828125 834 569.828125 834 c 24
392.828125 834 m 24
 420.828125 834 436.828125 809 427.828125 779 c 24
 418.828125 749 387.828125 724 359.828125 724 c 24
 331.828125 724 315.828125 749 324.828125 779 c 24
 333.828125 809 364.828125 834 392.828125 834 c 24
EndSplineSet
Refer: 49 89 N 1 0 0 1 0 0 3
Validated: 1
Substitution2: "c2sc subtable" Ydieresis.sc
EndChar

StartChar: ohorn
Encoding: 417 417 289
Width: 426
VWidth: 0
Flags: W
HStem: -14 30<184.52 275.717> 380 34<266.756 363.662>
AnchorPoint: "ogonek" 337 18 basechar 0
AnchorPoint: "below_accent" 246 -100 basechar 0
AnchorPoint: "top_accent" 384 550 basechar 0
LayerCount: 2
Fore
SplineSet
319 380 m 0
 288 380 256 364 232 340 c 0
 200 307 179 258 164 210 c 0
 134 111 155 16 223 16 c 0
 262 16 299 33 328 72 c 0
 351 103 368 150 380 189 c 0
 409 284 392 380 319 380 c 0
489 445 m 0
 495 463 526 494 552 494 c 0
 570 494 573 476 563 442 c 0
 546 385 510 366 463 344 c 0
 462 342 460 336 459 332 c 0
 472 298 473 257 460 213 c 0
 424 96 325 -14 195 -14 c 0
 98 -14 52 86 83 186 c 0
 121 310 236 414 343 414 c 0
 368 414 388 409 402 402 c 0
 425 391 443 382 461 382 c 0
 477 382 498 389 502 403 c 0
 506 416 500 425 493 430 c 0
 489 432 487 438 489 445 c 0
EndSplineSet
Validated: 33
EndChar

StartChar: Uhorn
Encoding: 431 431 290
Width: 710
VWidth: 0
Flags: W
HStem: -14 50<308.237 448.172> 620 32<230.399 260.032 375.047 421.459 681.117 711.549>
VStem: 862 83<673.689 755.877>
AnchorPoint: "ogonek" 490 18 basechar 0
AnchorPoint: "below_accent" 393 -100 basechar 0
AnchorPoint: "top_accent" 390 700 basechar 0
LayerCount: 2
Fore
SplineSet
872 697 m 0
 861 707 856 713 862 731 c 0
 870 756 896 764 923 764 c 0
 952 764 952 736 945 713 c 0
 927 655 876 633 808 609 c 1
 790 596 777 577 765 546 c 0
 754 515 695 342 668 254 c 0
 621 99 482 -14 348 -14 c 0
 169 -14 135 128 194 322 c 2
 260 540 l 2
 279 602 259 610 232 620 c 0
 223 624 226 652 238 652 c 0
 282 652 294 649 330 649 c 0
 366 649 371 652 423 652 c 0
 433 652 426 624 414 622 c 0
 373 616 351 586 332 530 c 0
 303 444 274 344 259 294 c 0
 219 162 262 36 385 36 c 0
 503 36 594 144 642 300 c 0
 655 344 692 471 702 510 c 0
 726 602 720 610 680 622 c 0
 670 625 679 654 691 654 c 2
 767 654 l 2
 806 654 816 656 852 656 c 1
 866 660 876 665 878 671 c 0
 883 686 880 690 872 697 c 0
EndSplineSet
Validated: 33
EndChar

StartChar: uhorn
Encoding: 432 432 291
Width: 519
VWidth: 0
Flags: W
HStem: -20 57<126.947 225.889> 373 24<355.049 383.532>
AnchorPoint: "ogonek" 433 18 basechar 0
AnchorPoint: "below_accent" 259 -100 basechar 0
AnchorPoint: "top_accent" 357 550 basechar 0
LayerCount: 2
Fore
SplineSet
570 441 m 0
 575 456 572 460 565 467 c 0
 555 477 551 483 557 501 c 0
 565 526 590 534 615 534 c 0
 642 534 641 506 634 483 c 0
 616 425 568 402 503 378 c 0
 490 373 475 363 464 326 c 2
 399 114 l 2
 392 90 372 45 391 45 c 0
 400 45 433 46 443 48 c 0
 444 48 l 0
 452 48 445 22 436 21 c 0
 389 14 342 -2 313 -14 c 0
 309 -16 295 -20 290 -20 c 0
 289 -20 287 -20 287 -19 c 0
 290 -7 316 44 318 57 c 1
 258 6 196 -14 143 -14 c 0
 87 -14 68 27 92 105 c 2
 156 316 l 2
 165 345 154 361 132 373 c 0
 126 376 134 396 141 397 c 0
 189 399 204 405 241 414 c 1
 250 415 253 410 249 400 c 0
 236 369 229 353 220 323 c 2
 161 128 l 2
 146 80 168 37 205 37 c 0
 234 37 255 38 282 57 c 0
 298 68 329 91 342 132 c 2
 401 323 l 2
 414 364 355 370 350 373 c 0
 351 376 357 397 357 397 c 0
 447 402 457 409 491 419 c 0
 493 419 565 425 570 441 c 0
EndSplineSet
Validated: 33
EndChar

StartChar: uni01D9
Encoding: 473 473 304
Width: 737
VWidth: 0
Flags: HW
HStem: -14 40<287.692 457.017> 620 33<194.681 245.501 355.376 416.649 658.732 696.984 785.167 856.043> 724 110<468.088 528.568 645.088 704.568> 894 133
VStem: 446.828 103<745.203 812.797> 623.828 102<745.203 812.797>
LayerCount: 2
Fore
SplineSet
652.108398438 963 m 4
 681.108398438 978 703.108398438 986 757.108398438 1012 c 4
 770.108398438 1019 782.108398438 1027 794.108398438 1027 c 4
 808.108398438 1027 808.108398438 1014 794.108398438 1004 c 6
 667.108398438 916 l 6
 644.108398438 900 636.108398438 894 622.108398438 894 c 4
 608.108398438 894 605.108398438 900 591.108398438 916 c 6
 517.108398438 1004 l 6
 509.108398438 1014 517.108398438 1026 531.108398438 1026 c 4
 543.108398438 1026 565.108398438 1015 574.108398438 1008 c 4
 612.108398438 982 614.108398438 978 634.108398438 963 c 4
 642.108398438 956 640.108398438 956 652.108398438 963 c 4
EndSplineSet
Refer: 154 220 N 1 0 0 1 0 0 3
EndChar

StartChar: Gcaron
Encoding: 486 486 310
Width: 687
VWidth: 0
Flags: W
HStem: -14 37<332.283 472.538> 256 34<456.065 535.558 631.69 695.418> 628 35<414.962 585.501> 724 133
VStem: 98 84<152.169 376.763> 616 33<467.178 536.318>
LayerCount: 2
Fore
SplineSet
572.0859375 793 m 4
 601.0859375 808 623.0859375 816 677.0859375 842 c 4
 690.0859375 849 702.0859375 857 714.0859375 857 c 4
 728.0859375 857 728.0859375 844 714.0859375 834 c 6
 587.0859375 746 l 6
 564.0859375 730 556.0859375 724 542.0859375 724 c 4
 528.0859375 724 525.0859375 730 511.0859375 746 c 6
 437.0859375 834 l 6
 429.0859375 844 437.0859375 856 451.0859375 856 c 4
 463.0859375 856 485.0859375 845 494.0859375 838 c 4
 532.0859375 812 534.0859375 808 554.0859375 793 c 4
 562.0859375 786 560.0859375 786 572.0859375 793 c 4
EndSplineSet
Refer: 40 71 N 1 0 0 1 0 0 3
Validated: 1
EndChar

StartChar: uni01E8
Encoding: 488 488 312
Width: 685
VWidth: 0
Flags: W
HStem: -5 29<16.8438 95.2952 226.541 285.641 406.032 466.279 606.352 678.641> 323 22<293.891 311.574> 622 31<210.593 271.933 378.594 457.556 576.097 620.534 723.464 823.13> 724 133
LayerCount: 2
Fore
SplineSet
860.532226562 793 m 4
 889.532226562 808 911.532226562 816 965.532226562 842 c 4
 978.532226562 849 990.532226562 857 1002.53222656 857 c 4
 1016.53222656 857 1016.53222656 844 1002.53222656 834 c 6
 875.532226562 746 l 6
 852.532226562 730 844.532226562 724 830.532226562 724 c 4
 816.532226562 724 813.532226562 730 799.532226562 746 c 6
 725.532226562 834 l 6
 717.532226562 844 725.532226562 856 739.532226562 856 c 4
 751.532226562 856 773.532226562 845 782.532226562 838 c 4
 820.532226562 812 822.532226562 808 842.532226562 793 c 4
 850.532226562 786 848.532226562 786 860.532226562 793 c 4
EndSplineSet
Refer: 61 75 N 1 0 0 1 0 0 3
Validated: 1
EndChar

StartChar: uni0226
Encoding: 550 550 331
Width: 772
VWidth: 0
Flags: W
HStem: -5 36<17.8519 96.2793 218.75 264.899 429.027 521.115 647.592 701.899> 736 110<806.225 866.705>
VStem: 784.965 103<757.203 824.797>
LayerCount: 2
Fore
SplineSet
852.96484375 846 m 24
 880.96484375 846 896.96484375 821 887.96484375 791 c 24
 878.96484375 761 847.96484375 736 819.96484375 736 c 24
 791.96484375 736 775.96484375 761 784.96484375 791 c 24
 793.96484375 821 824.96484375 846 852.96484375 846 c 24
EndSplineSet
Refer: 31 65 N 1 0 0 1 0 0 3
Validated: 1
EndChar

StartChar: uni0275
Encoding: 629 629 2021
Width: 432
VWidth: 0
Flags: W
HStem: -14 30<185.787 279.923> 191 37<175 385> 383 31<276.002 364.975>
LayerCount: 2
Fore
SplineSet
347 414 m 4
 448 414 498 321 465 213 c 4
 429 96 329 -14 199 -14 c 4
 102 -14 51 70 87 187 c 4
 121 298 240 414 347 414 c 4
162 191 m 5
173 229 m 5
 175 228 l 6
 394 228 l 5
 408 309 386 383 323 383 c 4
 292 383 265 374 235 343 c 4
 206 313 187 271 173 229 c 5
385 191 m 6
 162 191 l 5
 140 99 162 16 226 16 c 4
 264 16 302 32 331 71 c 4
 354 102 372 150 384 189 c 4
 384 190 385 191 385 191 c 6
EndSplineSet
Validated: 33
EndChar

StartChar: circumflex
Encoding: 710 710 90
Width: 4
VWidth: 0
Flags: W
HStem: 447 201<55.9062 63.1966>
VStem: 57 35<447.486 465>
LayerCount: 2
Fore
SplineSet
-73 465 m 2
 -81 457 -93 447 -104 447 c 0
 -111 447 -114 456 -105 468 c 2
 -105 468 -18 582 13 619 c 0
 28 637 41 648 48 648 c 0
 55 648 61 637 65 619 c 0
 75 576 92 468 92 468 c 2
 94 456 85 447 78 447 c 0
 67 447 60 458 57 465 c 2
 22 561 l 1
 -73 465 l 2
EndSplineSet
Validated: 1
EndChar

StartChar: breve
Encoding: 728 728 346
Width: 4
VWidth: 0
Flags: W
HStem: 461 55<-34.4995 59.695>
VStem: -73 31<527.234 599.434> 97 29<562.239 597.942>
LayerCount: 2
Fore
SplineSet
-42 580 m 4
 -37 558 -48 516 8 516 c 4
 64 516 78 558 97 580 c 4
 104 589 110 601 119 601 c 4
 128 601 130 590 126 577 c 4
 106 513 56 461 -9 461 c 4
 -74 461 -96 502 -73 577 c 4
 -69 590 -61 601 -52 601 c 4
 -43 601 -44 589 -42 580 c 4
EndSplineSet
Validated: 33
EndChar

StartChar: ring
Encoding: 730 730 348
Width: 3
VWidth: 0
Flags: W
HStem: 479 26<22.0012 74.3949> 622 25<44.7943 98.3954>
LayerCount: 2
Fore
SplineSet
87 647 m 0
 128 647 152 612 139 568 c 0
 123 516 73 479 32 479 c 0
 -9 479 -33 517 -20 561 c 0
 -4 614 46 647 87 647 c 0
18 569 m 0
 9 541 17 505 43 505 c 0
 69 505 91 529 100 557 c 0
 112 596 101 622 75 622 c 0
 54 622 28 602 18 569 c 0
EndSplineSet
Validated: 33
EndChar

StartChar: ogonek
Encoding: 731 731 349
Width: 4
VWidth: 0
Flags: W
HStem: -287 66<-254 -166.394>
LayerCount: 2
Fore
SplineSet
-99 18 m 9
 -75 18 l 17
 -156 -39 -193 -93 -211 -152 c 0
 -224 -196 -208 -221 -176 -221 c 0
 -150 -221 -130 -208 -119 -201 c 0
 -114 -198 -106 -201 -109 -207 c 0
 -114 -219 -125 -230 -134 -238 c 0
 -142 -245 -181 -287 -227 -287 c 8
 -281 -287 -311 -253 -288 -179 c 0
 -272 -126 -197 -39 -99 18 c 9
EndSplineSet
Validated: 33
EndChar

StartChar: hungarumlaut
Encoding: 733 733 351
Width: 5
VWidth: 0
Flags: W
HStem: 445 219
VStem: -160 317
LayerCount: 2
Fore
SplineSet
-121 472 m 0
 -127 464 -141 447 -149 445 c 1
 -150 445 -151 445 -152 445 c 0
 -159 445 -162 448 -160 456 c 0
 -158 471 -76 591 -51 628 c 0
 -37 648 -20 660 2 664 c 16
 4 664 6 664 8 664 c 0
 22 664 33 654 32 642 c 0
 29 623 -91 510 -121 472 c 0
5 472 m 0
 -2 464 -16 447 -24 445 c 1
 -25 445 -26 445 -27 445 c 0
 -34 445 -36 448 -34 456 c 0
 -32 471 50 591 75 628 c 0
 89 648 106 660 128 664 c 16
 130 664 131 664 133 664 c 0
 147 664 158 654 157 642 c 0
 154 623 40 512 5 472 c 0
EndSplineSet
Validated: 33
EndChar

StartChar: uni02E2
Encoding: 738 738 621
Width: 188
VWidth: 0
Flags: W
HStem: 269 30<140.686 209.13> 503 33<227.362 285.682>
VStem: 112 25<305.562 331.301> 286 27<468.461 500.457>
LayerCount: 2
Fore
SplineSet
259 503 m 0
 235 503 222 485 218 472 c 0
 213 456 239 434 250 417 c 0
 260 402 290 376 280 343 c 0
 267 301 226 269 156 269 c 0
 144 269 109 282 108 290 c 0
 107 299 108 313 112 327 c 0
 114 333 138 335 137 328 c 0
 136 308 156 299 175 299 c 0
 203 299 216 319 219 329 c 0
 224 349 212 365 197 380 c 0
 176 401 151 426 163 464 c 0
 176 506 220 536 269 536 c 0
 270 536 270 536 271 536 c 0
 295 536 312 515 316 509 c 0
 321 500 318 487 313 470 c 0
 312 468 310 467 307 467 c 0
 299 467 285 474 286 479 c 0
 289 500 266 503 259 503 c 0
EndSplineSet
Validated: 33
EndChar

StartChar: uni02F7
Encoding: 759 759 1118
Width: 332
VWidth: 0
Flags: W
HStem: -213 73<71.6496 193.279> -197 73<39.3057 160.581>
VStem: -19 269
LayerCount: 2
Fore
SplineSet
-19 -211 m 0x60
 12 -172 47 -124 89 -124 c 0x60
 132 -124 141 -140 179 -140 c 16
 203 -140 221 -125 244 -103 c 0
 245 -102 246 -101 247 -101 c 0
 252 -101 254 -116 250 -121 c 0
 229 -148 192 -213 146 -213 c 0xa0
 101 -213 100 -197 50 -197 c 0
 29 -197 9 -211 -11 -229 c 0
 -12 -230 -12 -230 -13 -230 c 0
 -18 -230 -23 -216 -19 -211 c 0x60
EndSplineSet
Validated: 1
EndChar

StartChar: acutecomb
Encoding: 769 769 623
Width: 161
VWidth: 0
Flags: W
HStem: 463 189
VStem: 10 141
AnchorPoint: "top_accent" 40 550 mark 0
LayerCount: 2
Fore
SplineSet
41 478 m 4
 34.3916 470.629 26 463 18 463 c 4
 13 463 10 467 10 471 c 4
 10 475 10.0599 478.971 12 483 c 4
 25 510 70 596 87 627 c 4
 94.2125 640.152 102 652 112 652 c 4
 122 652 151 630 151 615 c 4
 151 610 67 507 41 478 c 4
EndSplineSet
Validated: 1
Substitution2: "Single Substitution lookup 13 subtable" acutecomb.stack
Substitution2: "'case' Case-Sensitive Forms lookup 6 subtable" acutecomb.cap
EndChar

StartChar: uni0305
Encoding: 773 773 984
Width: 372
VWidth: 0
Flags: W
HStem: 523 60<175.534 531.799>
AnchorPoint: "top_accent" 200 550 mark 0
LayerCount: 2
Fore
SplineSet
201 583 m 26
 538 583 l 26
 545 583 550 576 546 569 c 24
 534 548 523 523 503 523 c 26
 173 523 l 26
 166 523 162 529 164 535 c 0
 167 544 181 583 201 583 c 26
EndSplineSet
Validated: 1
EndChar

StartChar: uni0308
Encoding: 776 776 624
Width: 271
VWidth: 0
Flags: W
HStem: 524 100<23.5835 87.1805 174.584 238.181>
VStem: 10 90<536.747 611.266> 161 90<536.747 611.266>
AnchorPoint: "top_accent" 127 550 mark 0
LayerCount: 2
Fore
SplineSet
217 624 m 16
 237.969726562 624 251 602.37890625 251 581 c 16
 251 551.4296875 225.5703125 524 196 524 c 8
 175.563476562 524 161 542.559570312 161 563 c 8
 161 595.294921875 184.705078125 624 217 624 c 16
66 624 m 16
 86.9697265625 624 100 602.37890625 100 581 c 16
 100 551.4296875 74.5703125 524 45 524 c 8
 24.5634765625 524 10 542.559570312 10 563 c 8
 10 595.294921875 33.705078125 624 66 624 c 16
EndSplineSet
Validated: 1
Substitution2: "'case' Case-Sensitive Forms lookup 6 subtable" uni0308.cap
EndChar

StartChar: uni0323
Encoding: 803 803 2047
Width: 218
VWidth: 0
Flags: W
HStem: -192 101<30.7131 89.7602>
VStem: 13 94<-174.878 -108.285>
AnchorPoint: "below_accent" 71 -100 mark 0
LayerCount: 2
Fore
SplineSet
13 -142 m 0
 22 -113 49 -91 75 -91 c 0
 102 -91 116 -113 107 -142 c 0
 98 -170 71 -192 44 -192 c 0
 18 -192 4 -170 13 -142 c 0
EndSplineSet
Validated: 33
Substitution2: "'case' Case-Sensitive Forms lookup 6 subtable" uni0323.cap
EndChar

StartChar: uni0324
Encoding: 804 804 2079
Width: 271
VWidth: 0
Flags: W
HStem: -196 100<23.5835 87.1805 174.584 238.181>
VStem: 10 90<-183.253 -108.734> 161 90<-183.253 -108.734>
AnchorPoint: "below_accent" 127 -100 mark 0
LayerCount: 2
Fore
SplineSet
217 -96 m 16
 237.969726562 -96 251 -117.62109375 251 -139 c 16
 251 -168.5703125 225.5703125 -196 196 -196 c 8
 175.563476562 -196 161 -177.440429688 161 -157 c 8
 161 -124.705078125 184.705078125 -96 217 -96 c 16
66 -96 m 16
 86.9697265625 -96 100 -117.62109375 100 -139 c 16
 100 -168.5703125 74.5703125 -196 45 -196 c 12
 24.5634765625 -196 10 -177.440429688 10 -157 c 8
 10 -124.705078125 33.705078125 -96 66 -96 c 16
EndSplineSet
Validated: 1
Substitution2: "'case' Case-Sensitive Forms lookup 6 subtable" uni0324.cap
EndChar

StartChar: Gamma
Encoding: 915 915 1081
Width: 573
VWidth: 0
Flags: W
HStem: -5 29<5.84375 90.7769 249.692 312.641> 618 32<218.007 283.946 386.337 609.242>
VStem: 618 55<568.25 613.321>
LayerCount: 2
Fore
SplineSet
236 98 m 2
 221.8203125 51.0537109375 244 33 288 24 c 0
 308 20 313 15.490234375 313 6 c 0
 313 -2.25 299 -5 283 -5 c 0
 233 -5 212.282226562 0 167 0 c 24
 113.14453125 0 79 -5 29 -5 c 0
 13 -5 5 -2 5 6 c 0
 5 15 18 20 41 24 c 0
 90 33 134 51 149 99 c 2
 286 549 l 2
 300.53510968 596.840679203 285 613 241 622 c 0
 221 626 216 632.51 216 642 c 0
 216 650.25 231 653 247 653 c 0
 262 653 314 650 356 650 c 2
 611 650 l 2
 636 650 660 654 665 654 c 0
 672 654 673 651 673 644 c 0
 673 632 654 593 646 540 c 0
 645 534 635 523 629 523 c 0
 622 523 618 539 618 546 c 0
 618 583 621 618 570 618 c 2
 416 618 l 2
 406 618 382.204101562 605.231445312 377 588 c 2
 236 98 l 2
EndSplineSet
Validated: 33
EndChar

StartChar: Delta
Encoding: 916 916 1099
Width: 738
VWidth: 0
Flags: W
HStem: 1 55<115.106 439.52>
AnchorPoint: "top_accent" 685 700 basechar 0
LayerCount: 2
Fore
SplineSet
104 1 m 2
 63 1 54 -3 23 -3 c 0
 7 -3 -5.05150120952e-16 11.75 0 20 c 0
 8.57224447676e-16 34 39.552734375 73.3583984375 75 108 c 2
 547 564 l 2
 576 592 593 622 601 622 c 0
 614 622 625 626 647 636 c 0
 664 644 691 676 696 676 c 0
 701 676 703.286132812 661.930664062 698 644 c 2
 511 20 l 2
 504.965429083 -0.114272391752 494 -3 474 -3 c 0
 448 -3 415 1 373 1 c 2
 104 1 l 2
360 57 m 0
 427 57 436.142578125 55.625 454 112 c 2
 575 494 l 2
 583.59375 521.131835938 585 539 579 539 c 0
 574 539 559.875 531.124023438 535 506 c 2
 135 102 l 2
 88.7080078125 55.2451171875 122.846679688 56 136 56 c 0
 158 56 341.560546875 57 360 57 c 0
EndSplineSet
Validated: 33
EndChar

StartChar: Theta
Encoding: 920 920 1131
Width: 716
VWidth: 0
Flags: W
HStem: -14 39<308.088 467.934> 301 70<388.929 536.539> 396 19G<380.5 385.5 630.5 636.5> 625 39<460.668 625.249>
VStem: 537 27<248.353 295.143>
LayerCount: 2
Fore
SplineSet
603 393 m 0
 617 408 627 416 634 416 c 0
 639 416 646 409 639 400 c 0
 607 356 584 317 564 269 c 0
 559 258 554 246 543 246 c 0
 536 246 536 258 537 272 c 0
 538 288 526 301 507 301 c 26
 392 301 l 18
 364 301 340 300 329 286 c 0
 320 275 298 248 284 248 c 0
 276 248 283 268 293 281 c 0
 321 319 345 356 365 398 c 0
 372 412 378 415 383 415 c 0
 388 415 390 408 389 396 c 0
 388 382 396 371 410 371 c 26
 549 371 l 26
 569 371 591 381 603 393 c 0
543 625 m 0
 405 625 286 490 243 350 c 0
 191 179 241 25 379 25 c 0
 519 25 622 134 674 305 c 0
 732 495 692 625 543 625 c 0
143 320 m 0
 198 500 357 659 562 664 c 0
 564 664 567 664 569 664 c 0
 731 664 834 532 774 335 c 0
 719 155 559 -14 355 -14 c 0
 190 -14 85 130 143 320 c 0
EndSplineSet
Validated: 33
EndChar

StartChar: Lambda
Encoding: 923 923 1082
Width: 772
VWidth: 0
Flags: W
HStem: -5 36<17.8519 96.2793 218.7 264.899 429.027 521.434 647.592 701.899>
AnchorPoint: "top_accent" 790 700 basechar 0
AnchorPoint: "below_accent" 334 -100 basechar 0
AnchorPoint: "ogonek" 508 18 basechar 0
AnchorPoint: "cedilla" 124 8 basechar 0
LayerCount: 2
Fore
SplineSet
240 102 m 6
 193.708007812 55.2451171875 228 32 241 30 c 0
 262 27 268 19 265 10 c 0
 263 2 251 -1 235 -1 c 0
 218 -1 185 1 151 1 c 0
 110 1 69 -5 38 -5 c 0
 22 -5 13 0 15 8 c 0
 18 17 29 24 52 31 c 0
 87 41 136 65 180 108 c 2
 652 564 l 2
 681 592 698 622 706 622 c 0
 719 622 730 626 752 636 c 0
 769 644 796 676 801 676 c 0
 806 676 808 662 803 644 c 2
 648 128 l 2
 630 67 643 35 678 28 c 0
 698 24 705 14 702 5 c 0
 700 -3 688 -5 672 -5 c 0
 646 -5 586 1 544 1 c 0
 508 1 474 0 452 0 c 0
 436 0 426 3 428 11 c 0
 431 20 447 27 465 31 c 0
 533 45 541.142578125 55.625 559 112 c 2
 680 494 l 2
 688.59375 521.131835938 690 539 684 539 c 0
 679 539 664.875 531.124023438 640 506 c 2
 240 102 l 6
EndSplineSet
Validated: 33
EndChar

StartChar: Omega
Encoding: 937 937 1152
Width: 770
VWidth: 0
Flags: W
HStem: 0 70<116.729 282.177 531 702.752> 631 33<500.924 630.864>
VStem: 76 31<86.6316 142.494>
AnchorPoint: "below_accent" 415 -100 basechar 0
AnchorPoint: "top_accent" 19 650 basechar 0
LayerCount: 2
Fore
SplineSet
282 81 m 0
 200 128 160 227 198 347 c 8
 254 523 430 664 594 664 c 16
 745 664 842 530 789 362 c 16
 751 241 651 137 541 85 c 0
 537 83 527 75 531 74 c 0
 551 70 575 70 595 70 c 2
 619 70 l 2
 664 70 701 76 732 113 c 0
 745 129 758 143 770 143 c 0
 776 143 778 137 774 130 c 0
 742 79 711 37 699 12 c 0
 694 3 690 -5 681 -5 c 0
 653 -5 634 0 608 0 c 0
 574 0 554 1 538 1 c 0
 507 1 498 0 446 0 c 0
 429 0 459 44 461 48 c 0
 468 58 486 74 491 77 c 0
 564 124 655 227 687 332 c 0
 729 469 699 631 572 631 c 8
 453 631 337 497 300 377 c 0
 262 252 270 135 331 71 c 0
 342 60 340 37 336 11 c 0
 335 6 332 0 325 0 c 0
 273 0 264 1 232 1 c 0
 217 1 196 0 162 0 c 0
 136 0 114 -5 86 -5 c 0
 77 -5 77 3 78 12 c 0
 81 37 77 79 76 130 c 0
 76 137 82 143 88 143 c 0
 100 143 104 129 107 113 c 0
 115 76 149 70 195 70 c 2
 214 70 l 2
 231 70 251 70 269 72 c 0
 275 72 286 79 282 81 c 0
EndSplineSet
Validated: 33
EndChar

StartChar: iota
Encoding: 953 953 2202
Width: 189
VWidth: 2048
Flags: W
HStem: -14 21G<48 81> 389 20G<144.219 168.5>
VStem: 116 75<322.648 399.653>
LayerCount: 2
Back
Fore
SplineSet
180 124 m 0
 180 85 108 -14 54 -14 c 0
 42 -14 32 0 32 28 c 0
 32 40 34.3671875 64.560546875 45 100 c 2
 116 347 l 2
 123.182617188 371.98828125 132.437989113 409 156 409 c 0
 181 409 191 402 191 384 c 0
 191 366 115 175 115 136 c 0
 115 130 120.852539062 120.275390625 136 130 c 0
 150.002929688 138.989257812 165 152 168 152 c 0
 177 152 180 144 180 124 c 0
EndSplineSet
Validated: 1
EndChar

StartChar: mu
Encoding: 956 956 1180
Width: 587
VWidth: 0
Flags: W
HStem: -286 21G<36.5 60.5> -14 62<161.588 279.073> -12 74<452.626 535.88> 396 20G<161.5 197.5 475 498.5>
VStem: -3 56<-252.5 -48.8333> 85 58<74.616 209.464> 421 96<301.986 375.41>
LayerCount: 2
Back
SplineSet
393 58 m 20
 420 58 445 80 464 106 c 4
 470 115 481 110 479 102 c 28
 473 78 455 49 448 41 c 4
 407 -7 386 -15 358 -15 c 4
 329 -15 319 0 316 48 c 4
 316 54 313 93 318 114 c 5
 307 98 222 -13 179 -13 c 4
 137 -13 122 6 97 38 c 4
 91 46 86 62 80 62 c 4
 65 62 48 -18 39 -78 c 4
 27 -156 49 -236 43 -254 c 4
 37 -274 26 -285 9 -285 c 12
 -19 -285 -30 -265 -31 -234 c 4
 -32 -210 4 -75 27 0 c 4
 32 17 51 60 61 92 c 4
 71 125 115 288 128 332 c 4
 141 374 166 418 201 418 c 20
 227 418 228 391 213 343 c 4
 200 301 133 172 121 132 c 4
 113 106 124 52 165 52 c 20
 211 52 245 74 281 122 c 28
 336 196 355 255 379 332 c 4
 391 371 418 415 447 415 c 4
 476 415 468 374 461 352 c 4
 450 315 376 215 360 162 c 4
 349 125 350 58 393 58 c 20
393 58 m 20
 420 58 445 80 464 106 c 4
 470 115 481 110 479 102 c 28
 473 78 455 49 448 41 c 4
 407 -7 386 -15 358 -15 c 4
 329 -15 319 0 316 48 c 4
 316 54 313 93 318 114 c 5
 307 98 222 -13 179 -13 c 4
 137 -13 122 6 97 38 c 4
 91 46 86 62 80 62 c 4
 65 62 48 -18 39 -78 c 4
 27 -156 49 -236 43 -254 c 4
 37 -274 26 -285 9 -285 c 12
 -19 -285 -30 -265 -31 -234 c 4
 -32 -210 4 -75 27 0 c 4
 32 17 51 60 61 92 c 4
 71 125 115 288 128 332 c 4
 141 374 166 418 201 418 c 20
 227 418 228 391 213 343 c 4
 200 301 133 172 121 132 c 4
 113 106 124 52 165 52 c 20
 211 52 245 74 281 122 c 28
 336 196 355 255 379 332 c 4
 391 371 418 415 447 415 c 4
 476 415 468 374 461 352 c 4
 450 315 376 215 360 162 c 4
 349 125 350 58 393 58 c 20
EndSplineSet
Fore
SplineSet
397 90 m 4xbe
 396 96 386 117 383 112 c 0
 347 38 291 -14 241 -14 c 0
 193 -14 155 4 129 36 c 0
 121 45 110 66 105 60 c 0
 83 32 53 -20 53 -80 c 0
 53 -158 77 -186 83 -250 c 0
 85 -269 70 -286 51 -286 c 0
 22 -286 -3 -269 -3 -236 c 0
 -3 -116 21 -12 59 66 c 0
 72 93 85 113 85 132 c 0
 85 216 105 289 116 330 c 0
 127 370 140 416 183 416 c 0
 212 416 220 382 218 354 c 0
 215 312 143 184 143 130 c 0
 143 93 154 50 191 48 c 0xde
 253 45 294 72 333 120 c 0
 389 189 395 254 421 330 c 0
 434 369 463 414 487 414 c 0
 510 414 517 387 517 364 c 0
 517 328 479 270 441 212 c 0
 431 197 427 181 427 166 c 4
 427 123 449 62 492 62 c 4
 523 62 548 80 566 106 c 4
 572 115 574 115 585 115 c 4
 592 115 592 83 587 74 c 4
 563 30 529 -12 477 -12 c 4
 424 -12 407 42 397 90 c 4xbe
EndSplineSet
Validated: 33
EndChar

StartChar: uni0400
Encoding: 1024 1024 967
Width: 621
VWidth: 0
Flags: W
HStem: -5 35<8.01822 107.75 228.884 496.445> 322 27<307.177 478.603> 388 20<556.5 561.5> 618 32<218.007 283.946 386.483 609.242> 719 153
VStem: 492 28<252.052 308.246> 495 167 618 55<568.25 613.321>
LayerCount: 2
Fore
SplineSet
656 719 m 4xfa
 653 719 647 721 638 728 c 4
 598 758 548 796 508 830 c 4
 499 838 495 842 495 849 c 4
 495 863 539 872 553 872 c 4
 564 872 573 869 580 859 c 4
 607 820 633 780 657 740 c 4
 660 735 662 729 662 725 c 4
 662 722 660 719 656 719 c 4xfa
EndSplineSet
Refer: 660 1045 N 1 0 0 1 0 0 3
Validated: 1
EndChar

StartChar: uni0401
Encoding: 1025 1025 968
Width: 621
VWidth: 0
Flags: W
HStem: -5 35<8.01822 107.75 228.884 496.445> 322 27<307.177 478.603> 388 20<556.5 561.5> 618 32<218.007 283.946 386.483 609.242> 699 110<434.26 494.74 611.26 670.74>
VStem: 413 103<720.203 787.797> 492 28<252.052 308.246> 590 102<720.203 787.797> 618 55<568.25 613.321>
LayerCount: 2
Fore
SplineSet
658 809 m 24xf9
 686 809 701 784 692 754 c 24
 683 724 652 699 624 699 c 24
 596 699 581 724 590 754 c 24
 599 784 630 809 658 809 c 24xf9
481 809 m 24
 509 809 525 784 516 754 c 24
 507 724 476 699 448 699 c 24
 420 699 404 724 413 754 c 24xfc
 422 784 453 809 481 809 c 24
EndSplineSet
Refer: 660 1045 N 1 0 0 1 0 0 3
Validated: 1
EndChar

StartChar: uni0402
Encoding: 1026 1026 1173
Width: 623
VWidth: 0
Flags: W
HStem: -218 13<282.331 291.987> -5 29<136.948 216.232 355.306 416.899> 363 5<434 535> 604 35<292.538 411.972 493.292 700.892>
LayerCount: 2
Fore
SplineSet
342 103 m 2
 327 54 348 33 392 24 c 0
 412 20 420 15 417 6 c 0
 415 -2 403 -5 387 -5 c 0
 337 -5 322 0 280 0 c 24
 234 0 209 -5 159 -5 c 0
 143 -5 133 -2 135 6 c 0
 138 15 149 20 172 24 c 0
 221 33 252 54 267 103 c 2
 406 557 l 2
 412 575 417 597 403 600 c 0
 387 604 380 604 357 604 c 0
 348 604 335 604 319 604 c 0
 289 604 252 591 231 565 c 0
 222 554 195 527 181 527 c 0
 173 527 180 547 190 560 c 0
 218 598 234 629 252 671 c 0
 262 693 270 694 275 694 c 0
 280 694 287 673 289 662 c 0
 292 648 322 643 348 642 c 16
 400 640 443 639 485 639 c 0
 544 639 601 641 677 645 c 8
 705 647 736 650 750 664 c 0
 765 679 775 686 782 686 c 0
 787 686 793 679 788 669 c 0
 769 630 748 587 738 552 c 0
 735 542 727 527 718 527 c 0
 705 527 709 549 708 558 c 0
 705 577 711 604 651 604 c 0
 603 604 526 602 509 600 c 0
 495 598 487 575 481 557 c 2
 435 409 l 2
 425 378 424 368 434 368 c 0
 435 368 440 368 442 369 c 0
 470 383 512 396 559 396 c 0
 672 396 732 315 680 146 c 0
 624 -36 450 -180 374 -205 c 0
 344 -215 322 -218 307 -218 c 0
 286 -218 279 -211 281 -205 c 0
 283 -198 315 -195 358 -177 c 0
 492 -121 563 50 589 136 c 0
 639 298 622 363 535 363 c 0
 489 363 436 347 426 341 c 0
 416 335 410 325 406 313 c 2
 342 103 l 2
EndSplineSet
Validated: 33
EndChar

StartChar: uni0403
Encoding: 1027 1027 1142
Width: 573
VWidth: 0
Flags: W
HStem: -5 29<5.84375 90.7769 249.692 312.641> 618 32<218.007 283.946 386.337 609.242> 697 153
VStem: 492 167 618 55<568.25 613.321>
LayerCount: 2
Fore
SplineSet
498 697 m 0xf0
 494 697 492 700 492 703 c 0
 492 707 494 713 497 718 c 0
 521 758 547 798 574 837 c 0
 581 847 590 850 601 850 c 0
 615 850 659 841 659 827 c 0
 659 820 655 816 646 808 c 0
 606 774 556 736 516 706 c 0
 507 699 501 697 498 697 c 0xf0
EndSplineSet
Refer: 1087 1043 N 1 0 0 1 0 0 3
Validated: 1
EndChar

StartChar: uni0404
Encoding: 1028 1028 1171
Width: 595
VWidth: 0
Flags: W
HStem: -15 30<289.247 422.355> 314 49<266.123 530.255> 632 32<456.087 612.896>
VStem: 672 23<472.65 547.784>
LayerCount: 2
Fore
SplineSet
538 632 m 0
 406 632 298 520 246 372 c 0
 243 364 246 363 250 363 c 16
 285 361 314 361 342 361 c 0
 375 361 407 362 449 363 c 8
 493 364 537 366 562 373 c 0
 568 375 571 368 569 362 c 0
 568 359 501 314 481 314 c 0
 366 314 297 333 242 336 c 0
 237 336 234 334 232 326 c 0
 202 208 210 22 330 15 c 0
 334 15 339 15 343 15 c 0
 411 15 467 46 507 76 c 0
 532 95 552 121 566 143 c 0
 573 155 587 168 593 168 c 0
 594 168 l 0
 601 167 600 154 597 143 c 0
 589 117 568 74 554 51 c 0
 539 26 514 14 488 5 c 0
 449 -9 379 -15 312 -15 c 8
 145 -15 89 158 144 338 c 8
 198 514 370 664 534 664 c 16
 580 664 609 660 646 651 c 0
 662 647 696 634 712 633 c 0
 719 633 715 617 714 603 c 0
 711 574 704 526 695 494 c 0
 692 485 687 470 678 471 c 0
 668 472 671 489 672 502 c 0
 674 534 656 570 648 581 c 0
 642 591 624 632 538 632 c 0
EndSplineSet
Validated: 33
EndChar

StartChar: uni0409
Encoding: 1033 1033 1152
Width: 826
VWidth: 0
Flags: W
HStem: -4 38<5.51868 87.1158 193.346 250.899 378.496 461.285 571.633 652.077> 343 33<595.036 730.775>
VStem: 479 81<50.0195 325.714 355.736 359.333> 491 70<286.667 325.714 355.736 558.996>
LayerCount: 2
Fore
SplineSet
492 1 m 0xd0
 456 1 422 0 400 0 c 0
 384 0 374 3 376 11 c 0
 379 20 394 26 413 31 c 0
 468 45 478 65 479 105 c 2xe0
 491 541 l 2
 491 553 491 559 489 559 c 0
 487 559 482 553 475 542 c 2
 197 102 l 2
 174 66 195 39 227 30 c 0
 247 24 254 19 251 10 c 0
 249 2 237 -1 221 -1 c 0
 204 -1 171 1 137 1 c 0
 96 1 55 -5 24 -5 c 0
 8 -5 -1 0 1 8 c 0
 4 17 15 24 38 31 c 0
 73 41 108 57 142 108 c 2
 459 578 l 2
 465 587 472 596 478 608 c 24
 484 619 488 635 490 636 c 0
 502 640 513 646 525 651 c 0
 541 658 551 670 556 670 c 0
 561 670 561 665 561 656 c 2
 561 366 l 1
 561 366 554 344 570 351 c 0
 602 366 673 376 720 376 c 0
 833 376 887 316 852 200 c 0
 806 51 630 -4 568 -4 c 0
 549 -4 546 2 492 1 c 0xd0
560 308 m 1
 560 146 l 2
 559 112 560 34 594 34 c 0
 664 34 737 99 763 185 c 0
 795 290 755 343 656 343 c 0
 639 343 578 332 568 326 c 0
 558 320 560 308 560 308 c 1
EndSplineSet
Validated: 33
Substitution2: "cyrillic_DLLj subtable" uni0409.alt
EndChar

StartChar: uni040A
Encoding: 1034 1034 1167
Width: 901
VWidth: 0
Flags: W
HStem: -3 30<55.9141 119.358 252.051 297.903 416.914 470.939 615.575 703.782> 330 40<322.911 590.086 686.77 814.486> 630 22<256.045 284.13 431.219 475.27 616.684 641.375>
LayerCount: 2
Fore
SplineSet
626 -4 m 1
 626 -4 563 2 524 2 c 0
 483 2 465 -3 416 -3 c 0
 405 -3 408 24 425 27 c 0
 455 33 468 37 492 56 c 24
 511 72 520 88 526 109 c 2
 590 318 l 2
 592 325 584 330 573 330 c 2
 320 330 l 10
 316 330 303 325 301 317 c 2
 238 109 l 2
 229 81 237 67 248 48 c 24
 258 31 264 30 291 24 c 0
 298 22 300 15 298 9 c 0
 296 3 290 -3 283 -3 c 0
 230 -3 216 2 172 2 c 24
 127 2 105 -3 55 -3 c 0
 44 -3 47 24 64 27 c 0
 94 33 104 29 125 46 c 24
 147 65 156 87 163 109 c 2
 300 557 l 2
 306 575 307 591 298 606 c 24
 289 622 277 620 258 630 c 0
 250 634 256 652 264 652 c 0
 320 652 328 649 369 649 c 24
 409 649 420 652 474 652 c 0
 485 652 477 634 467 630 c 0
 442 620 432 624 407 606 c 0
 394 597 381 576 375 557 c 2
 323 386 l 2
 321 378 326 370 333 370 c 2
 585 370 l 2
 590 370 607 376 610 385 c 6
 662 557 l 2
 668 575 667 590 658 604 c 24
 648 620 637 620 618 630 c 0
 610 634 617 652 625 652 c 0
 681 652 686 649 725 649 c 24
 767 649 779 652 833 652 c 0
 844 652 836 634 826 630 c 0
 801 620 796 622 771 604 c 0
 758 595 742 574 737 557 c 2
 691 408 l 2
 680 373 689 372 695 372 c 0
 719 372 752 376 799 376 c 0
 912 376 964 310 929 194 c 0
 904 112 838 54 786 30 c 0
 741 9 687 -4 626 -4 c 1
708 332 m 0
 681 332 668 328 660 303 c 2
 600 108 l 2
 594 90 595 68 602 56 c 0
 609 45 627 30 650 30 c 0
 723 30 818 103 844 189 c 0
 868 266 834 299 813 314 c 0
 799 324 777 332 731 332 c 0
 724 332 716 332 708 332 c 0
EndSplineSet
Validated: 33
EndChar

StartChar: uni040D
Encoding: 1037 1037 1143
Width: 717
VWidth: 0
Flags: W
HStem: -5 29<27.9477 103.938 224.343 290.899 441.698 519.761 633.559 689.899> 622 31<227.102 284.532 395.255 473.442 637.101 695.43 806.674 880.442> 697 153
VStem: 590 167
LayerCount: 2
Fore
SplineSet
751 697 m 4
 748 697 742 699 733 706 c 4
 693 736 643 774 603 808 c 4
 594 816 590 820 590 827 c 4
 590 841 634 850 648 850 c 4
 659 850 668 847 675 837 c 4
 702 798 728 758 752 718 c 4
 755 713 757 707 757 703 c 4
 757 700 755 697 751 697 c 4
EndSplineSet
Refer: 1140 1048 N 1 0 0 1 0 0 3
Validated: 5
EndChar

StartChar: uni040F
Encoding: 1039 1039 1144
Width: 754
VWidth: 0
Flags: W
HStem: -3 22<29.7297 77.0457 698.52 728.316> 0 41<220.492 322.004 418.184 566.273> 627 25<222.097 257.5 423.876 470.227 671.096 706.5 871.375 918.227>
LayerCount: 2
Fore
SplineSet
311 0 m 2x60
 153 0 l 10x60
 106 0 85 -3 31 -3 c 0
 20 -3 28 15 38 19 c 0xa0
 63 29 81 26 106 44 c 0
 119 53 133 72 139 92 c 2
 276 540 l 2
 283 562 283 576 274 592 c 24
 263 612 256 621 229 627 c 0
 222 629 220 635 222 641 c 0
 224 647 230 652 237 652 c 0
 290 652 306 647 351 647 c 24
 396 647 417 652 467 652 c 0
 478 652 476 630 459 627 c 0
 416 618 376 589 359 540 c 0
 334 464 239 158 221 99 c 0
 211 67 223 41 252 41 c 2
 522 41 l 2x60
 555 41 586 77 595 106 c 2
 728 540 l 2
 735 562 732 576 723 592 c 24
 712 612 705 621 678 627 c 0
 671 629 669 635 671 641 c 0
 673 647 678 652 685 652 c 0
 738 652 754 647 799 647 c 24
 844 647 865 652 915 652 c 0
 926 652 924 630 907 627 c 0
 877 621 864 612 841 592 c 24
 823 576 814 562 807 540 c 2
 670 92 l 2
 664 74 668 58 679 44 c 24
 692 27 708 29 727 19 c 0
 735 15 728 -3 720 -3 c 0xa0
 664 -3 648 0 601 0 c 2
 441 0 l 2
 404 0 345 -214 312 -214 c 0
 279 -214 348 0 311 0 c 2x60
EndSplineSet
Validated: 33
EndChar

StartChar: uni0411
Encoding: 1041 1041 1139
Width: 527
VWidth: 0
Flags: W
HStem: -5 29<11.6976 91.998> -4 41<220.71 343.594> 343 15<303.95 332.728> 611 39<372.483 565.333> 622 31<215.101 275.933>
VStem: 570 34<519.59 603.497>
LayerCount: 2
Fore
SplineSet
34 -5 m 0xa4
 18 -5 8 -2 10 6 c 0
 13 15 23 20 46 24 c 0
 95 33 127 51 141 98 c 2
 280 550 l 2
 294 597 283 613 239 622 c 0
 219 626 212 633 215 642 c 0
 217 650 229 653 245 653 c 0xac
 295 653 311 650 353 650 c 18
 584 650 l 2
 587 650 615 655 621 655 c 0
 628 655 627 645 626 641 c 0
 614 600 611 575 604 544 c 0
 601 527 590 519 584 519 c 0
 577 519 568 536 570 547 c 0
 573 570 577 611 522 611 c 2
 400 611 l 2
 390 611 366 588 362 576 c 2
 311 408 l 2
 301 376 296 358 307 358 c 0
 308 358 309 358 311 359 c 0
 336 367 369 376 416 376 c 0
 529 376 581 310 546 194 c 0
 512 84 442 51 402 30 c 0
 357 6 304 -4 243 -4 c 0x74
 224 -4 175 4 134 4 c 0
 95 4 84 -5 34 -5 c 0xa4
219 108 m 2
 205 63 223 37 269 37 c 0x64
 342 37 434 103 460 189 c 0
 484 266 452 303 431 318 c 0
 417 328 388 343 342 343 c 0
 314 343 289 335 280 307 c 2
 219 108 l 2
EndSplineSet
Validated: 33
EndChar

StartChar: uni0414
Encoding: 1044 1044 1166
Width: 650
VWidth: 0
Flags: W
HStem: 0 40<174.541 491.853>
VStem: -10 47<-202.094 -98.5632> 498 91<41.4033 386.636> 509 70<272.364 556.996> 520 40<-200.12 -121.733>
LayerCount: 2
Fore
SplineSet
589 61 m 6xe0
 589 41 607 41 633 40 c 4
 643 40 641 30 638 22 c 20
 630 -3 592 -80 560 -174 c 4
 554 -190 541 -205 526 -205 c 12
 509 -205 513 -182 520 -162 c 4xc8
 564 -28 550 0 486 0 c 6
 171 0 l 6
 107 0 75 -29 37 -163 c 4
 31 -183 21 -206 4 -206 c 20
 -11 -206 -14 -191 -10 -175 c 4
 15 -81 21 -32 30 21 c 4
 32 30 40 40 50 40 c 4
 76 41 93 39 103 51 c 4
 116 67 136 90 150 110 c 6
 465 566 l 6
 471 575 477 584 483 596 c 28
 489 607 493 623 495 624 c 4
 507 628 525 633 537 638 c 4
 553 645 569 670 574 670 c 4
 579 670 579 665 579 656 c 6xd0
 589 61 l 6xe0
498 120 m 6xe0
 509 539 l 6xd0
 509 551 510 557 507 557 c 4
 504 557 500 551 492 540 c 6
 194 104 l 6
 160 55 176 40 200 40 c 6
 470 40 l 6
 498 40 497 69 498 120 c 6xe0
EndSplineSet
Validated: 33
Substitution2: "cyrillic_DLLj subtable" uni0414.alt
EndChar

StartChar: uni0416
Encoding: 1046 1046 1185
Width: 893
VWidth: 0
Flags: W
HStem: -18 43<-7.56358 85.7668 831.881 897.282> -3 25<314.773 368.082 542.34 579.947> 590 75<255.469 324.693 938.248 1008.96> 632 20G<524 556>
LayerCount: 2
Fore
SplineSet
450 2 m 24x40
 399 2 368 -3 318 -3 c 0
 307 -3 309 19 326 22 c 0x40
 356 28 378 35 407 57 c 24
 426 72 434 87 441 109 c 2
 502 310 l 1
 502 310 509 329 501 329 c 1
 484 327 473 324 441 312 c 0
 408 300 382 275 367 257 c 0
 330 214 280 153 219 76 c 0
 177 23 106 -18 53 -18 c 0
 30 -18 1 -9 -8 0 c 0
 -10 3 -11 8 -9 13 c 0
 -7 19 -3 25 2 25 c 0
 104 26 150 99 181 138 c 0
 208 172 261 242 303 283 c 0
 348 327 389 350 407 356 c 0
 414 358 418 360 409 366 c 0
 397 374 387 382 380 391 c 0
 359 419 348 467 339 528 c 0
 334 560 317 590 294 590 c 0
 289 590 269 580 253 580 c 0
 249 580 245 580 242 582 c 8
 230 588 234 606 238 618 c 0
 246 645 282 665 307 665 c 0xa0
 343 665 370 613 377 550 c 0
 384 489 396 439 407 422 c 0
 423 397 448 365 511 358 c 0
 515 357 518 362 523 377 c 2
 578 557 l 2
 584 575 577 584 568 596 c 24
 554 614 540 620 521 630 c 0
 513 634 520 652 528 652 c 0
 584 652 601 649 648 649 c 24
 692 649 704 652 760 652 c 0x10
 768 652 765 634 754 630 c 0
 729 620 711 614 686 596 c 24
 670 584 658 575 652 557 c 2
 597 377 l 2
 592 362 592 357 597 358 c 0
 665 365 709 397 740 422 c 0
 762 439 805 489 849 550 c 0
 894 613 953 665 989 665 c 0
 1014 665 1038 645 1030 618 c 0
 1026 606 1018 588 1003 582 c 16
 999 580 995 580 991 580 c 0
 975 580 961 590 956 590 c 0
 933 590 897 560 873 528 c 0
 826 467 787 419 748 391 c 0
 736 382 722 374 705 366 c 0
 692 360 695 358 701 356 c 0
 715 350 741 327 759 283 c 0
 776 242 787 172 793 138 c 0
 800 99 802 26 903 25 c 0
 908 25 909 19 907 13 c 0
 905 8 902 3 898 0 c 0
 883 -9 848 -18 825 -18 c 0xa0
 772 -18 725 17 715 76 c 0
 702 153 689 214 678 257 c 0
 673 275 664 300 638 312 c 0
 613 324 606 327 590 329 c 1
 581 329 577 310 577 310 c 1
 515 109 l 2
 508 87 507 72 517 57 c 24
 533 35 551 28 577 22 c 0
 592 19 580 -3 569 -3 c 0
 519 -3 497 2 450 2 c 24x40
EndSplineSet
Validated: 33
EndChar

StartChar: uni0417
Encoding: 1047 1047 1153
Width: 472
VWidth: 0
Flags: W
HStem: -14 31<159.1 271.812> 332 46<234.773 335.202> 339 33<279.705 385.753> 633 31<347.987 446.094>
VStem: 80 33<85.4367 172.625>
LayerCount: 2
Fore
SplineSet
336 339 m 0xb8
 319 339 301 332 265 332 c 0
 252 332 228 334 233 352 c 24
 238 370 266 378 278 378 c 0xd8
 315 378 312 372 351 372 c 0
 404 372 443 437 461 495 c 0
 478 552 488 632 393 633 c 0
 392 633 392 633 391 633 c 0
 341 633 291 596 241 505 c 0
 234 490 214 480 209 480 c 0
 204 480 205 496 208 505 c 0
 219 540 229 563 245 597 c 0
 250 607 254 615 263 617 c 0
 307 628 361 664 418 664 c 0
 511 664 586 617 553 508 c 0
 539 463 513 427 494 412 c 0
 468 392 453 382 418 369 c 0
 413 367 410 361 415 359 c 0
 465 340 529 310 494 194 c 0
 447 42 295 -14 182 -14 c 0
 132 -14 103 0 78 15 c 0
 68 21 55 34 58 52 c 0
 63 80 70 122 80 158 c 0
 82 166 94 174 104 174 c 0
 108 174 111 159 113 130 c 0
 118 60 155 17 206 17 c 0
 207 17 l 0
 305 18 375 103 401 189 c 0
 425 266 412 339 336 339 c 0xb8
EndSplineSet
Validated: 33
EndChar

StartChar: uni0418
Encoding: 1048 1048 1156
Width: 717
VWidth: 0
Flags: W
HStem: -5 29<27.9477 103.938 224.343 290.899 441.698 519.761 633.559 689.899> 622 31<227.102 284.532 395.255 473.442 637.101 695.43 806.674 880.442>
AnchorPoint: "top_accent" 396 700 basechar 0
LayerCount: 2
Fore
SplineSet
354 551 m 2
 246 197 l 2
 242 183 244 179 253 186 c 2
 681 534 l 2
 698 547 702 558 703 562 c 0
 713 596 699 614 661 622 c 0
 641 626 634 633 637 642 c 0
 639 650 651 653 667 653 c 0
 717 653 732 650 774 650 c 24
 807 650 809 653 859 653 c 0
 875 653 885 650 883 642 c 0
 880 633 869 626 846 622 c 0
 797 613 788 590 776 552 c 2
 637 100 l 2
 622 51 621 33 665 24 c 0
 685 20 693 15 690 6 c 0
 688 -2 676 -5 660 -5 c 0
 610 -5 603 0 565 0 c 24
 526 0 514 -5 464 -5 c 0
 448 -5 438 -2 440 6 c 0
 443 15 453 20 476 24 c 0
 518 32 545 46 557 85 c 6
 664 434 l 2
 682 492 681 494 670 485 c 2
 233 128 l 2
 223 120 216 97 212 85 c 0
 199 43 226 32 266 24 c 0
 286 20 294 15 291 6 c 0
 289 -2 277 -5 261 -5 c 0
 211 -5 197 0 154 0 c 24
 114 0 100 -5 50 -5 c 0
 34 -5 24 -2 26 6 c 0
 29 15 40 20 63 24 c 0
 112 33 126 51 141 99 c 2
 280 551 l 2
 294 597 296 613 252 622 c 0
 232 626 224 633 227 642 c 0
 229 650 242 653 258 653 c 0
 308 653 316 650 353 650 c 24
 391 650 402 653 452 653 c 0
 468 653 478 650 476 642 c 0
 473 633 462 626 439 622 c 0
 390 613 366 590 354 551 c 2
EndSplineSet
Validated: 33
EndChar

StartChar: uni041A
Encoding: 1050 1050 661
Width: 661
VWidth: 0
Flags: HW
HStem: -18 43<562.715 654.528> -5 29<5.7629 87.4897 223.91 286.641> 324 34<296.828 362.998> 588 82<618.925 707.403> 622 31<210.487 270.933 389.87 472.785>
AnchorPoint: "below_accent" 355 -100 basechar 0
AnchorPoint: "top_accent" 544 700 basechar 0
LayerCount: 2
Fore
SplineSet
211 98 m 2xb0
 196.513671875 51.146484375 218 33 262 24 c 0
 282 20 287 15.490234375 287 6 c 0
 287 -2.25 273 -5 257 -5 c 0
 207 -5 191.165039062 0 149 0 c 24
 102.159179688 0 79 -5 29 -5 c 0
 13 -5 5 -2.25 5 6 c 0
 5 15.490234375 18 20 41 24 c 0
 90 33 123 51 137 98 c 2
 275 550 l 2
 289 597 278 613 234 622 c 0
 214 626 210 632.509765625 210 642 c 0
 210 650.25 224 653 240 653 c 0
 290 653 305.86328125 650 348 650 c 24
 387.796875 650 400 653 450 653 c 0
 466 653 474 650.25 474 642 c 0
 474 632.509765625 460 626 437 622 c 0x68
 388 613 363.290039062 596.9140625 349 550 c 10
 296 376 l 18
 291.66796875 361.779296875 290.9 358 296 358 c 0
 342 358 354.703125 361.512695312 363 365 c 8
 466.7265625 408.59765625 511.596679688 476.1484375 566 570 c 0
 596.9453125 623.384765625 641.294921875 670 703 670 c 0
 729 670 750 647 750 616 c 0
 750 591 729 573 705 573 c 0
 686.5 573 664.360351562 588 641 588 c 0
 624 588 610.041992188 568.963867188 587 528 c 8
 542.376953125 448.668945312 502.188476562 408.234375 425 360 c 16
 415.671875 354.170898438 415.26267368 352.900271526 422 351 c 0
 441.5 345.5 461 320 469 300 c 0
 486.4140625 256.465820312 522.994140625 120.625976562 548 67 c 0
 562.369140625 36.185546875 591 25 647 25 c 0
 651 25 661 21 661 14 c 0
 661 -3 613 -18 557 -18 c 0
 501 -18 473.815458001 30.9653052645 456 83 c 0
 436.888872326 138.819036171 421 202 407 246 c 0
 401.335688235 263.802122689 379.5 310 344 318 c 0
 316.947394369 324.096361832 304 324 288 324 c 0
 279 324 277.931640625 314.560546875 275 305 c 2
 211 98 l 2xb0
EndSplineSet
EndChar

StartChar: uni041B
Encoding: 1051 1051 1149
Width: 636
VWidth: 0
Flags: W
HStem: -5 36<3.85188 80.5892 196.502 250.899 377.027 455.229 583.558 649.899>
VStem: 479 84<50.625 359.333> 491 70<286.667 558.996>
LayerCount: 2
Fore
SplineSet
563 128 m 2xc0
 563 48 591 35 626 28 c 0
 647 24 653 14 650 5 c 0
 648 -3 636 -5 620 -5 c 0
 594 -5 534 1 492 1 c 4
 456 1 422 0 400 0 c 4
 384 0 374 3 376 11 c 4
 379 20 394 26 413 31 c 4
 468 45 478 65 479 105 c 6xc0
 491 541 l 6
 491 553 491 559 489 559 c 4
 487 559 482 553 475 542 c 6
 197 102 l 6
 174 66 195 39 227 30 c 4
 247 24 254 19 251 10 c 4
 249 2 237 -1 221 -1 c 4
 204 -1 171 1 137 1 c 4
 96 1 55 -5 24 -5 c 4
 8 -5 -1 0 1 8 c 4
 4 17 15 24 38 31 c 4
 73 41 108 57 142 108 c 6
 459 578 l 6
 465 587 472 596 478 608 c 28
 484 619 488 635 490 636 c 0
 502 640 513 646 525 651 c 0
 541 658 551 670 556 670 c 0
 561 670 561 665 561 656 c 2xa0
 563 128 l 2xc0
EndSplineSet
Validated: 33
Substitution2: "cyrillic_DLLj subtable" uni041B.alt
EndChar

StartChar: uni041F
Encoding: 1055 1055 1085
Width: 781
VWidth: 0
HStem: -3 25<32.9852 86.6052 268.977 310.903 481.773 535.082 716.977 758.903> 608 44<387.875 754.601> 630 22<237.684 281.786 889.911 937.038>
LayerCount: 2
Fore
SplineSet
242 109 m 8xc0
 236 87 234 72 244 57 c 24
 260 35 277 28 304 22 c 0
 311 20 313 14 311 8 c 0
 309 2 303 -3 296 -3 c 0
 243 -3 218 2 167 2 c 24
 117 2 87 -3 37 -3 c 0
 26 -3 27 19 44 22 c 0
 74 28 97 35 126 57 c 24
 145 72 151 87 159 109 c 0
 217 285 246 382 296 557 c 0
 301 575 305 596 294 610 c 24
 281 627 258 620 239 630 c 0
 231 634 238 652 246 652 c 0
 302 652 318 649 365 649 c 16
 452 649 521 648 589 648 c 0
 657 648 725 649 813 649 c 8
 860 649 881 652 935 652 c 0
 946 652 939 634 929 630 c 0xa0
 904 620 889 624 864 606 c 0
 851 597 834 578 827 557 c 24
 766 382 737 284 690 109 c 24
 684 87 682 72 692 57 c 24
 708 35 725 28 752 22 c 0
 759 20 761 14 759 8 c 0
 757 2 751 -3 744 -3 c 0
 691 -3 667 2 616 2 c 24
 566 2 535 -3 485 -3 c 0
 474 -3 476 19 493 22 c 0
 523 28 545 35 574 57 c 24
 593 72 599 87 607 109 c 0
 632 185 741 542 759 601 c 0
 761 608 759 608 756 608 c 16
 679 609 622 611 561 611 c 0
 512 611 462 610 399 608 c 8
 395 608 393 605 391 597 c 0
 373 539 262 183 242 109 c 8xc0
EndSplineSet
Validated: 33
EndChar

StartChar: uni0423
Encoding: 1059 1059 1175
Width: 578
VWidth: 0
Flags: W
HStem: -40 71<116.119 204.333> 620 32<198.399 232 381.194 444.459 559.885 606.454> 628 28<729.869 789.638>
LayerCount: 2
Fore
SplineSet
182 31 m 0xa0
 224 31 253 54 289 106 c 0
 297 117 299 145 298 158 c 2
 272 522 l 10
 270 548 262 565 252 582 c 0
 241 601 227 610 200 620 c 0
 191 624 194 652 206 652 c 16
 250 652 275 649 319 649 c 24
 368 649 394 652 446 652 c 0xc0
 456 652 449 624 437 622 c 0
 396 616 373 608 364 579 c 0
 355 551 355 535 357 504 c 2
 372 269 l 1
 372 249 372 240 377 240 c 0
 382 240 390 249 405 269 c 2
 607 543 l 10
 619 559 628 576 620 589 c 24
 605 612 587 614 558 622 c 0
 548 625 558 654 570 654 c 18
 683 654 l 18
 725 654 749 656 791 656 c 8
 801 656 790 630 783 628 c 8
 753 620 735 620 707 603 c 24
 681 587 676 583 650 547 c 2
 410 222 l 2
 271 34 202 -40 156 -40 c 0
 134 -40 112 -39 96 -24 c 8
 83 -12 83 5 90 26 c 0
 96 47 126 53 136 54 c 0
 149 54 160 31 182 31 c 0xa0
EndSplineSet
Validated: 33
EndChar

StartChar: uni0426
Encoding: 1062 1062 1145
Width: 795
VWidth: 0
Flags: W
HStem: -3 31<7.4436 90.2104> 0 40<200.236 535.062> 626 29<193.359 255.969 392.51 474.156 619.359 681.969 818.51 900.156>
VStem: 613 95<-178 29> 613 32<-202.717 -114.717>
LayerCount: 2
Fore
SplineSet
689 43 m 20x70
 696 43 708 37 708 29 c 4x70
 708 20 665 -88 645 -172 c 4x68
 641 -189 636 -203 627 -203 c 4
 618 -203 613 -192 613 -178 c 4
 613 -152 637 0 595 0 c 14
 132 0 l 30x70
 92.203125 0 80 -3 30 -3 c 4
 14 -3 6 0 6 8 c 4
 6 17 20 24 43 28 c 4xb0
 92 37 117 53 131 100 c 6
 269 552 l 6
 283 599 262 617 218 626 c 4
 198 630 193 635 193 644 c 4
 193 652 207 655 223 655 c 4
 273 655 288.834960938 650 331 650 c 28
 377.840820312 650 401 655 451 655 c 4
 467 655 475 652 475 644 c 4
 475 635 462 630 439 626 c 4
 390 617 357 599 343 552 c 6
 205 100 l 6
 191 53 201 40 246 40 c 6
 469 40 l 6
 519 40 543 53 557 100 c 6
 695 552 l 6
 709 599 688 617 644 626 c 4
 624 630 619 635 619 644 c 4
 619 652 633 655 649 655 c 4
 699 655 714.834960938 650 757 650 c 28
 803.840820312 650 827 655 877 655 c 4
 893 655 901 652 901 644 c 4
 901 635 888 630 865 626 c 4
 816 617 783 599 769 552 c 6
 631 100 l 6
 617 53 657.28515625 43 689 43 c 20x70
EndSplineSet
EndChar

StartChar: uni0427
Encoding: 1063 1063 1158
Width: 622
VWidth: 0
Flags: W
HStem: -3 25<343.985 397.605 570.977 612.904> 287 50<350.433 488.649> 632 20G<211 243 420 452.5 553 585>
LayerCount: 2
Fore
SplineSet
532 329 m 0
 506 311 436 288 380 287 c 0
 378 287 378 287 376 287 c 0
 315 287 255 306 235 343 c 0
 217 375 218 404 232 450 c 2
 265 557 l 2
 271 575 264 584 255 596 c 24
 241 614 227 620 208 630 c 0
 200 634 207 652 215 652 c 0
 271 652 282 649 326 649 c 24
 373 649 393 652 447 652 c 0
 458 652 451 634 441 630 c 0
 416 620 394 613 369 595 c 0
 356 586 344 574 339 557 c 2
 309 458 l 2
 283 372 371 337 443 337 c 0
 479 337 524 350 538 358 c 0
 546 363 550 371 553 382 c 2
 606 557 l 2
 612 575 607 585 598 596 c 24
 584 614 569 620 550 630 c 0
 542 634 549 652 557 652 c 0
 613 652 624 649 668 649 c 24
 715 649 736 652 790 652 c 0
 801 652 793 634 783 630 c 0
 758 620 736 613 711 595 c 0
 698 586 687 574 682 557 c 2
 545 109 l 2
 538 87 536 72 546 57 c 24
 562 35 579 28 606 22 c 0
 613 20 615 14 613 8 c 0
 611 2 606 -3 599 -3 c 0
 546 -3 521 2 470 2 c 24
 423 2 398 -3 348 -3 c 0
 337 -3 338 19 355 22 c 0
 385 28 408 35 437 57 c 24
 456 72 463 87 470 109 c 2
 533 313 l 2
 538 329 537 332 532 329 c 0
EndSplineSet
Validated: 33
EndChar

StartChar: uni0428
Encoding: 1064 1064 1146
Width: 947
VWidth: 0
Flags: W
HStem: -3 22<887.031 912.316> 0 41<215.062 440.22 537.826 758.749> 627 25<217.096 252.5 541.097 575.408 745.177 792.015 865.097 898.932 1068.37 1115.23>
LayerCount: 2
Fore
SplineSet
581 41 m 2x60
 714 41 l 2x60
 747 41 779 77 788 106 c 2
 921 540 l 2
 928 562 924 576 915 592 c 24
 904 611 899 621 872 627 c 0
 865 629 863 635 865 641 c 0
 867 647 873 652 880 652 c 0
 933 652 948 647 992 647 c 24
 1038 647 1062 652 1112 652 c 0
 1123 652 1121 630 1104 627 c 0
 1062 618 1016 591 1000 540 c 2
 863 92 l 2
 857 74 861 59 871 44 c 24
 881 29 892 29 911 19 c 0
 919 15 912 -3 904 -3 c 0xa0
 848 -3 837 0 794 0 c 16
 668 0 569 1 470 1 c 0
 372 1 273 1 147 0 c 8x60
 105 0 94 -3 40 -3 c 0
 29 -3 36 15 46 19 c 0xa0
 71 29 75 26 100 44 c 0
 113 53 128 72 134 92 c 2
 271 540 l 2
 278 562 278 576 269 592 c 24
 258 612 251 621 224 627 c 0
 217 629 215 635 217 641 c 0
 219 647 224 652 231 652 c 0
 284 652 300 647 345 647 c 24
 387 647 406 652 456 652 c 0
 467 652 465 630 448 627 c 0
 418 621 408 611 387 592 c 24
 368 575 358 562 351 540 c 2
 216 99 l 2
 206 67 217 41 246 41 c 2
 382 41 l 2
 440 41 455 77 464 106 c 2
 597 540 l 2
 604 562 601 576 592 592 c 24
 581 611 575 621 548 627 c 0
 541 629 539 635 541 641 c 0
 543 647 549 652 556 652 c 0
 609 652 624 647 668 647 c 24
 714 647 738 652 788 652 c 0
 799 652 798 630 781 627 c 0
 739 618 692 591 676 540 c 2
 539 92 l 2
 533 74 529 41 581 41 c 2x60
EndSplineSet
Validated: 33
EndChar

StartChar: uni0429
Encoding: 1065 1065 1147
Width: 947
VWidth: 0
Flags: W
HStem: 0 41<215.062 447.697 545.826 771.843> 627 25<226.097 257.684 549.096 582.932 753.177 800.227 876.097 909.932 1083.18 1130.23>
VStem: 803 40<-200.12 -121.733>
LayerCount: 2
Fore
SplineSet
791 0 m 0
 624 0 505 0 370 0 c 0
 303 0 231 0 147 0 c 8
 105 0 93 -3 39 -3 c 0
 28 -3 36 15 46 19 c 0
 71 29 75 26 100 44 c 0
 113 53 127 72 133 92 c 2
 270 540 l 2
 277 562 276 575 269 592 c 24
 261 611 260 621 233 627 c 0
 226 629 224 635 226 641 c 0
 228 647 234 652 241 652 c 0
 294 652 304 647 345 647 c 24
 387 647 405 652 455 652 c 0
 466 652 465 630 448 627 c 0
 418 621 408 611 387 592 c 24
 368 575 357 562 350 540 c 2
 216 99 l 2
 206 67 217 41 246 41 c 2
 389 41 l 2
 447 41 463 77 472 106 c 2
 604 540 l 2
 611 562 608 576 599 592 c 24
 588 611 583 621 556 627 c 0
 549 629 547 635 549 641 c 0
 551 647 556 652 563 652 c 0
 616 652 631 647 675 647 c 24
 722 647 747 652 797 652 c 0
 808 652 806 630 789 627 c 0
 747 618 700 591 684 540 c 2
 547 92 l 2
 541 74 537 41 589 41 c 2
 729 41 l 2
 762 41 790 77 799 106 c 2
 932 540 l 2
 939 562 935 576 926 592 c 24
 915 611 910 621 883 627 c 0
 876 629 874 635 876 641 c 0
 878 647 884 652 891 652 c 0
 944 652 959 647 1003 647 c 24
 1051 647 1077 652 1127 652 c 0
 1138 652 1136 630 1119 627 c 0
 1077 618 1030 591 1014 540 c 0
 962 370 932 270 875 92 c 0
 869 74 874 63 884 52 c 24
 893 42 893 42 919 41 c 0
 929 41 922 30 920 22 c 16
 912 -3 875 -80 843 -174 c 0
 837 -190 824 -205 809 -205 c 8
 792 -205 796 -182 803 -162 c 0
 847 -28 855 0 791 0 c 0
EndSplineSet
Validated: 33
EndChar

StartChar: uni042B
Encoding: 1067 1067 1179
Width: 789
VWidth: 0
Flags: W
HStem: -4 31<232.641 353.08 502.367 567.917 713.13 766.903> 343 15<305.739 335.728> 630 21<230.134 263.878 401.788 463.766>
LayerCount: 2
Fore
SplineSet
501 -3 m 0
 490 -3 491 19 508 22 c 0
 538 28 561 35 590 57 c 24
 609 72 616 87 623 109 c 2
 760 557 l 2
 766 575 759 584 751 596 c 24
 737 614 723 620 704 630 c 0
 696 634 702 652 710 652 c 0
 766 652 777 649 821 649 c 24
 868 649 889 652 943 652 c 0
 954 652 946 634 936 630 c 0
 911 620 889 613 864 595 c 0
 851 586 840 574 835 557 c 2
 698 109 l 2
 691 87 690 72 700 57 c 24
 716 35 733 28 760 22 c 0
 767 20 769 14 767 8 c 0
 765 2 759 -3 752 -3 c 0
 699 -3 674 2 623 2 c 24
 576 2 551 -3 501 -3 c 0
357 647 m 24
 399 647 427 651 466 651 c 8
 474 651 463 631 455 630 c 0
 421 625 411 625 399 618 c 0
 389 612 377 600 368 576 c 0
 339 501 333 488 311 408 c 0
 302 377 298 358 309 358 c 0
 310 358 312 358 314 359 c 0
 339 367 372 376 419 376 c 0
 532 376 583 310 548 194 c 0
 514 84 445 51 405 30 c 0
 360 6 307 -4 246 -4 c 0
 227 -4 178 4 137 4 c 0
 98 4 52 -2 26 -2 c 0
 19 -2 25 14 33 20 c 24
 59 39 79 34 104 54 c 24
 127 72 141 89 149 114 c 2
 274 522 l 2
 283 550 293 572 284 596 c 24
 276 619 267 619 234 630 c 0
 227 632 228 651 236 651 c 16
 275 651 309 647 357 647 c 24
460 179 m 0
 485 256 454 303 433 318 c 0
 419 328 390 343 344 343 c 0
 327 343 308 338 298 332 c 0
 288 326 285 319 280 307 c 0
 259 248 235 161 221 108 c 0
 216 90 214 68 221 56 c 0
 228 45 245 27 268 27 c 0
 341 27 417 48 460 179 c 0
EndSplineSet
Validated: 33
EndChar

StartChar: uni042C
Encoding: 1068 1068 1178
Width: 525
VWidth: 0
Flags: W
HStem: -4 31<232.641 353.08> 343 15<305.739 335.728> 630 21<229.783 263.878 401.788 463.766>
LayerCount: 2
Fore
SplineSet
357 647 m 24
 399 647 427 651 466 651 c 8
 474 651 463 631 455 630 c 0
 421 625 411 625 399 618 c 0
 389 612 377 600 368 576 c 0
 339 501 333 488 311 408 c 0
 302 377 298 358 309 358 c 0
 310 358 312 358 314 359 c 0
 339 367 372 376 419 376 c 0
 532 376 583 310 548 194 c 0
 514 84 445 51 405 30 c 0
 360 6 307 -4 246 -4 c 0
 227 -4 178 4 137 4 c 0
 98 4 52 -2 26 -2 c 0
 19 -2 25 14 33 20 c 24
 59 39 79 34 104 54 c 24
 127 72 141 89 149 114 c 2
 274 522 l 2
 283 550 293 572 284 596 c 24
 276 619 267 619 234 630 c 0
 227 632 228 651 236 651 c 16
 275 651 309 647 357 647 c 24
460 179 m 0
 485 256 454 303 433 318 c 0
 419 328 390 343 344 343 c 0
 327 343 308 338 298 332 c 0
 288 326 285 319 280 307 c 0
 259 248 235 161 221 108 c 0
 216 90 214 68 221 56 c 0
 228 45 245 27 268 27 c 0
 341 27 417 48 460 179 c 0
EndSplineSet
Validated: 33
EndChar

StartChar: uni042D
Encoding: 1069 1069 1154
Width: 595
VWidth: 0
Flags: W
HStem: -15 30<187.922 334.941> 320 49<276.086 537.877> 632 32<361.966 516.312>
VStem: 72 44<73.0096 160.126>
LayerCount: 2
Fore
SplineSet
572 357 m 0
 606 496 581 632 449 632 c 0
 363 632 314 591 302 581 c 0
 287 570 248 534 231 502 c 0
 224 489 216 472 205 471 c 0
 195 470 199 485 202 494 c 0
 213 526 235 574 249 603 c 0
 256 617 264 633 271 633 c 0
 287 634 328 647 347 651 c 0
 390 660 443 664 473 664 c 8
 634 664 711 514 658 341 c 16
 604 163 432 -15 261 -15 c 16
 205 -15 140 -9 110 5 c 0
 90 14 72 26 72 51 c 0
 73 74 78 117 86 143 c 0
 89 154 96 167 104 168 c 0
 105 168 l 0
 111 168 116 155 116 143 c 0
 117 121 121 95 135 76 c 0
 158 44 188 15 263 15 c 0
 401 15 506 163 558 311 c 0
 561 319 558 320 554 320 c 16
 516 322 487 322 457 322 c 0
 426 322 395 322 355 320 c 8
 310 318 264 314 239 307 c 0
 233 305 230 312 232 318 c 0
 233 321 303 369 323 369 c 0
 438 369 507 350 562 347 c 0
 567 347 570 349 572 357 c 0
EndSplineSet
Validated: 33
EndChar

StartChar: uni042E
Encoding: 1070 1070 1164
Width: 937
VWidth: 0
Flags: W
HStem: -14 39<549.894 696.551> -3 25<22.9852 76.6052 249.977 290.174> 300 48<297 401> 625 39<705.089 855.208> 632 20G<232 264>
LayerCount: 2
Fore
SplineSet
785 625 m 0xb0
 659 625 546 485 505 350 c 0
 457 194 475 25 620 25 c 0
 746 25 854 170 895 305 c 0
 942 457 927 625 785 625 c 0xb0
27 -3 m 0x60
 16 -3 17 19 34 22 c 0
 64 28 87 35 116 57 c 0
 135 72 142 87 149 109 c 2
 286 557 l 2
 292 575 285 584 277 596 c 0
 263 614 248 620 229 630 c 0
 221 634 228 652 236 652 c 0
 292 652 303 649 347 649 c 0
 394 649 415 652 469 652 c 0x68
 480 652 472 634 462 630 c 0
 437 620 415 613 390 595 c 0
 377 586 366 574 361 557 c 2
 297 348 l 1
 414 345 l 1
 478 515 642 664 803 664 c 0
 968 664 1049 512 995 335 c 0
 939 152 766 -14 596 -14 c 0xb0
 435 -14 357 133 401 304 c 1
 282 300 l 1
 224 109 l 2
 217 87 215 72 225 57 c 0
 241 35 258 28 285 22 c 0
 299 19 293 -3 278 -3 c 0
 225 -3 200 2 149 2 c 0
 102 2 77 -3 27 -3 c 0x60
EndSplineSet
Validated: 33
EndChar

StartChar: uni042F
Encoding: 1071 1071 1102
Width: 633
VWidth: 0
Flags: W
HStem: -18 43<23.4364 108.399> -2 27<349.233 398.033> 627 30<496.667 614.409 735.593 787.692>
LayerCount: 2
Fore
SplineSet
400 506 m 0x20
 382 448 394 359 507 356 c 0
 512 356 517 356 521 356 c 0
 541 356 552 360 563 393 c 0
 589 472 596 501 615 573 c 0
 623 603 623 627 572 627 c 0
 467 627 417 563 400 506 c 0x20
538 309 m 0
 542 321 541 330 530 329 c 0
 492 325 411 296 385 272 c 0
 347 237 319 204 254 100 c 0
 231 63 137 -18 84 -18 c 0
 61 -18 32 -9 23 0 c 0
 21 3 20 8 22 13 c 0
 24 19 28 25 33 25 c 0xa0
 135 26 190 123 220 176 c 0
 277 276 350 327 384 339 c 0
 391 341 391 346 387 348 c 0
 378 354 336 386 323 406 c 0
 314 421 299 463 313 508 c 0
 346 617 445 657 581 657 c 0
 635 657 653 649 688 649 c 8
 727 649 750 652 789 652 c 8
 797 652 791 632 782 630 c 0
 742 619 739 617 714 596 c 0
 700 584 688 550 679 522 c 0
 654 447 633 382 613 318 c 0
 593 254 575 189 554 114 c 0
 547 89 551 72 562 54 c 24
 574 34 598 39 613 20 c 24
 618 14 613 -2 606 -2 c 0
 580 -2 526 2 475 2 c 24
 427 2 370 -2 351 -2 c 0x60
 346 -2 347 4 349 11 c 0
 351 18 355 25 360 26 c 0
 424 42 460 67 473 108 c 0
 491 161 519 251 538 309 c 0
EndSplineSet
Validated: 33
EndChar

StartChar: uni0431
Encoding: 1073 1073 1965
Width: 409
VWidth: 0
Flags: W
HStem: -14 30<174.245 264.573> 383 31<269.937 348.821> 681 20G<573.5 576>
LayerCount: 2
Fore
SplineSet
216 366 m 0
 255 395 292 414 334 414 c 0
 434 414 474 321 441 213 c 0
 405 96 315 -14 185 -14 c 0
 88 -14 46 51 107 252 c 0
 143 371 181 440 267 533 c 1
 339 611 431 653 478 665 c 0
 538 680 548 686 570 700 c 0
 571 701 573 701 574 701 c 0
 578 701 577 694 576 690 c 0
 565 653 530 614 507 601 c 0
 477 584 453 579 385 568 c 0
 316 557 253 515 218 402 c 0
 217 397 215 393 214 389 c 0
 212 381 210 374 208 367 c 0
 206 362 210 361 216 366 c 0
309 383 m 0
 278 383 257 368 234 345 c 0
 213 324 186 274 172 226 c 0
 133 95 145 16 213 16 c 0
 252 16 283 38 312 77 c 0
 335 108 349 150 361 189 c 0
 390 284 382 383 309 383 c 0
EndSplineSet
Validated: 33
Substitution2: "loclSRB subtable" uni0431.SRB
EndChar

StartChar: uni0432
Encoding: 1074 1074 1188
Width: 375
VWidth: 0
Flags: W
HStem: -3 30<26.3341 85.8988 161.912 263.044> 197 30<216.043 300.244> 381 25<147.15 174.879 256.861 344.79>
LayerCount: 2
Fore
SplineSet
217 252 m 2
 209 227 227 227 234 227 c 0
 250 227 282 228 305 238 c 0
 323 246 346 262 358 302 c 0
 370 341 369 381 295 381 c 0
 263 381 252 369 246 348 c 2
 217 252 l 2
229 402 m 0
 252 402 267 406 303 406 c 0
 390 406 445 386 422 311 c 0
 413 280 391 254 379 243 c 0
 362 228 346 220 325 216 c 0
 325 215 324 213 324 211 c 0
 355 203 398 181 380 121 c 0
 363 65 326 29 298 15 c 0
 269 1 216 -3 177 -3 c 0
 165 -3 135 3 109 3 c 0
 79 2 74 -3 40 -3 c 0
 36 -3 20 -4 23 6 c 0
 26 16 37 20 48 24 c 0
 67 30 86 31 95 59 c 2
 178 330 l 2
 187 360 176 372 161 378 c 0
 153 382 144 386 147 396 c 0
 150 406 166 405 170 405 c 0
 204 405 199 401 229 402 c 0
233 197 m 0
 215 197 198 192 192 172 c 2
 163 77 l 2
 153 43 163 27 195 27 c 0
 241 27 287 34 311 112 c 0
 323 151 307 181 293 188 c 0
 283 193 263 197 233 197 c 0
EndSplineSet
Validated: 33
EndChar

StartChar: uni0433
Encoding: 1075 1075 1945
Width: 330
VWidth: 0
Flags: HW
HStem: -12 54<88.4833 192.974> 375 43<129.973 230.573>
VStem: 5 75<52.607 124.942> 240 65<264.363 366.104>
AnchorPoint: "below_accent" 180 -100 basechar 0
AnchorPoint: "top_accent" 252 550 basechar 0
LayerCount: 2
Fore
SplineSet
86 358 m 0
 86 363 93 369 106 379 c 0
 136 402 171 418 212 418 c 0
 262 418 305 386 305 336 c 8
 305 286 282 251 240 225 c 2
 150 171 l 10
 113 149 80 136 80 87 c 8
 80 57 112 42 142 42 c 16
 181 42 218 62 245 82 c 0
 249 85 253 89 258 88 c 24
 262 87 262 80 262 77 c 0
 262 46 182 -12 110 -12 c 8
 59 -12 5 13 5 64 c 16
 5 112 33 137 75 162 c 2
 170 218 l 2
 218.003864814 246.297015048 240 282 240 326 c 0
 240 353 218 375 191 375 c 0
 146 375 119 355 108 342 c 0
 104 337 102 337 97 337 c 0
 86 337 86 350 86 358 c 0
EndSplineSet
EndChar

StartChar: uni0434
Encoding: 1076 1076 1973
Width: 382
VWidth: 0
Flags: W
HStem: -169 21G<-12 -1 287 298> 0 39<64.0643 80.0283 126.097 269.851> 398 20G<330.5 333.5>
VStem: -16 38<-163.838 -65.1246> 275 62<40.5809 292>
LayerCount: 2
Fore
SplineSet
245 39 m 6
 268 39 275 66 275 89 c 6
 276 292 l 6
 271 292 271 292 266 292 c 6
 137 84 l 14
 130 72 125 59 126 52 c 4
 128 41 134 39 142 39 c 6
 245 39 l 6
96 0 m 6
 63 0 40 -52 22 -126 c 4
 17 -146 7 -169 -9 -169 c 4
 -15 -169 -20 -154 -16 -138 c 4
 9 -44 12 8 11 28 c 4
 10 48 34 40 44 40 c 4
 68 40 92 68 108 92 c 22
 250 315 l 6
 254 321 259 331 264 341 c 28
 270 353 278 372 279 373 c 4
 287 375 309 397 316 404 c 4
 326 413 329 418 332 418 c 4
 335 418 335 415 335 409 c 6
 337 107 l 6
 337 62 332 40 367 40 c 4
 378 40 408 49 395 28 c 4
 382 8 353 -44 321 -138 c 4
 315 -154 301 -169 295 -169 c 4
 279 -169 283 -146 290 -126 c 4
 317 -52 326 0 293 0 c 6
 96 0 l 6
EndSplineSet
Validated: 33
Substitution2: "cyrillic_DLLj subtable" uni0434.alt
EndChar

StartChar: uni0436
Encoding: 1078 1078 1970
Width: 555
VWidth: 0
Flags: W
HStem: -6 21<39.1145 86 477 531.666> 205 22<286.3 313.954 379.912 394.102> 347 70<149.679 213.146 585.594 646.395> 378 27<322.15 352.101 432.307 478.618>
AnchorPoint: "below_accent" 328 -100 basechar 0
AnchorPoint: "top_accent" 328 550 basechar 0
LayerCount: 2
Fore
SplineSet
353 329 m 0xe0
 361 359 351 372 336 378 c 0
 328 382 319 386 322 396 c 0
 325 406 341 405 345 405 c 0
 379 405 374 400 404 400 c 4
 434 400 430 405 464 405 c 0
 468 405 484 406 481 396 c 0
 478 386 467 382 456 378 c 0xd0
 437 372 419 358 410 328 c 0
 394 277 386 251 380 231 c 0
 378 224 384 227 388 227 c 0
 406 227 430 238 445 255 c 0
 482 296 528 344 547 363 c 0
 583 399 618 417 635 417 c 8
 656 417 664 388 659 372 c 0
 654 357 632 325 614 325 c 0
 601 325 600 347 589 347 c 0
 574 347 568 343 555 330 c 2
 466 233 l 2
 460 226 457 219 459 212 c 2
 505 26 l 2
 506 22 509 15 516 15 c 0
 522 15 536 19 543 24 c 2
 583 58 l 1
 592 52 l 1
 552 10 522 -6 487 -6 c 0
 467 -6 445 -4 442 11 c 2
 401 174 l 2
 396 196 389 205 380 205 c 0
 376 205 370 199 370 199 c 1
 360 162 343 107 330 62 c 0
 316 16 l 1
 264 0 l 1
 253 4 l 1
 271 60 l 0
 286 105 302 162 314 199 c 1
 314 199 311 205 307 205 c 0
 298 205 286 196 267 174 c 2
 128 14 l 2
 115 -1 96 -6 76 -6 c 0
 41 -6 21 10 7 52 c 1
 19 58 l 1
 39 24 l 2
 43 19 54 15 60 15 c 0
 67 15 71 25 74 29 c 2
 232 212 l 2
 238 219 240 226 238 233 c 0
 230 260 217 314 212 330 c 0
 207 343 204 347 189 347 c 0
 178 347 163 325 150 325 c 0
 132 325 129 357 134 372 c 0
 139 388 165 417 186 417 c 16
 203 417 236 400 244 363 c 0
 248 342 260 296 272 255 c 0
 277 238 295 227 313 227 c 0
 317 227 322 224 324 231 c 0
 330 251 338 278 353 329 c 0xe0
EndSplineSet
Validated: 33
EndChar

StartChar: uni0437
Encoding: 1079 1079 1974
Width: 321
VWidth: 0
Flags: W
HStem: -8 32<104.112 198.213> 190 47<165.23 257.538> 271 21G<126.5 136.5> 381 30<221.443 300.811>
VStem: 54 27<53.1933 127.673>
AnchorPoint: "below_accent" 174 -100 basechar 0
AnchorPoint: "top_accent" 174 550 basechar 0
LayerCount: 2
Fore
SplineSet
289 411 m 0
 351 411 395 386 372 311 c 0
 363 280 345 255 333 245 c 0
 315 231 310 229 283 218 c 0
 283 217 281 211 281 211 c 0
 314 207 344 178 326 120 c 0
 303 44 259 28 233 14 c 1
 204 -3 165 -8 126 -8 c 0
 114 -8 84 -3 63 10 c 24
 50 19 39 30 41 46 c 0
 44 73 48 84 54 105 c 0
 59 121 66 130 74 130 c 0
 78 130 80 114 81 100 c 0
 86 44 113 24 145 24 c 0
 191 24 234 55 252 115 c 0
 264 154 262 196 228 196 c 0
 215 196 205 190 186 190 c 0
 172 190 159 196 164 212 c 0
 170 231 185 237 206 237 c 0
 217 237 225 231 241 231 c 0
 261 231 292 255 304 295 c 0
 316 334 315 381 267 381 c 4
 234 381 202 358 168 317 c 0
 153 299 142 271 131 271 c 0
 122 271 124 281 128 294 c 0
 136 320 138 321 151 351 c 0
 155 361 163 376 172 380 c 0
 196 391 253 411 289 411 c 0
EndSplineSet
Validated: 33
EndChar

StartChar: uni043A
Encoding: 1082 1082 1056
Width: 414
VWidth: 0
Flags: W
HStem: -21 60<255.429 313.638> 356 58<52.457 140.214 309.518 399.414>
VStem: 0 51<-14.3854 70.163>
LayerCount: 2
Fore
SplineSet
165 363 m 2
 117 221 l 2
 112.029296875 206.295898438 121 210 126 217 c 0
 198 312 316 414 364 414 c 0
 400 414 414 394 414 363 c 0
 414 356 402.48046875 345 392 345 c 8
 373.853515625 345 366 352 346 352 c 0
 290 352 210 274 185 240 c 0
 180.260742188 233.5546875 178.85546875 232.14453125 182 229 c 0
 194 217 211.072265625 192.0234375 219 168 c 2
 252 68 l 2
 256.7734375 53.5341796875 270 39 285 39 c 0
 310 39 339 66 357 95 c 0
 364 107 368 110 373 110 c 0
 375 110 378 105 378 100 c 0
 378 35 294 -21 264 -21 c 0
 249 -21 214.264648438 -17.099609375 201 28 c 2
 166 147 l 2
 157.626953125 170.356445312 148 190 137 190 c 0
 129 190 120.24609375 178.25 115 167 c 16
 86.904296875 106.749023438 67.3251953125 56.40625 51 16 c 0
 42.23046875 -5.705078125 37 -15 25 -15 c 0
 15 -15 0 3 0 15 c 0
 0 21 0.23828125 35.552734375 13 74 c 2
 92 312 l 2
 101.771484375 341.436523438 107 356 94 356 c 0
 74 356 54 352 22 310 c 0
 17 304 9 304 7 314 c 0
 6 326 15 353 24 364 c 0
 46 392 72 413 117 414 c 0
 144 414 176.852539062 398.063476562 165 363 c 2
EndSplineSet
Validated: 33
EndChar

StartChar: uni043B
Encoding: 1083 1083 1972
Width: 367
VWidth: 0
Flags: W
HStem: -6 34<-12.6309 66.6295> -6 21<297 354.129> 398 20G<328.5 331.5>
VStem: 273 61<23.2914 292>
LayerCount: 2
Fore
SplineSet
115 52 m 6x70
 111 46 103 41 96 35 c 0
 57 1 46 -6 18 -6 c 0
 -8 -6 -26 3 -28 18 c 0
 -29 30 -17 38 -0 38 c 0
 7 38 16 36 28 32 c 0
 37 29 46 28 51 28 c 0xb0
 59 28 70 32 82 44 c 0
 86 48 83 55 85 58 c 22
 249 315 l 6
 253 321 258 331 263 341 c 28
 269 353 276 372 277 373 c 4
 285 375 307 397 314 404 c 4
 324 413 327 418 330 418 c 4
 333 418 333 415 333 409 c 6
 334 61 l 6
 330 49 325 29 324 23 c 1
 324 19 332 15 339 15 c 0
 345 15 359 19 366 24 c 2
 406 57 l 1
 415 52 l 1
 375 10 344 -6 309 -6 c 0
 285 -6 275 7 273 30 c 6
 274 292 l 6
 269 292 269 292 264 292 c 6
 115 52 l 6x70
EndSplineSet
Validated: 33
Substitution2: "cyrillic_DLLj subtable" uni043B.alt
EndChar

StartChar: uni043C
Encoding: 1084 1084 1948
Width: 535
VWidth: 0
Flags: W
HStem: -17 21G<249.5 257.5> -3 24<24 59.6234 138.203 154.357 501.008 517.814> 384 24<151.794 180.062 575.442 620.772>
LayerCount: 2
Fore
SplineSet
273 -1 m 0x60
 265 -12 261 -17 254 -17 c 0xa0
 245 -17 242 -10 241 1 c 2
 218 281 l 18
 215 281 211 281 210 281 c 8
 179 202 161 173 128 79 c 0
 122 61 127 52 134 40 c 24
 140 28 143 26 160 21 c 0
 160 20 152 -3 152 -3 c 0
 129 -3 113 1 87 1 c 24
 60 1 38 -3 17 -3 c 0
 17 -3 24 20 24 21 c 0
 51 28 74 33 86 63 c 0
 139 188 173 262 191 320 c 0
 194 329 194 334 196 340 c 0
 198 346 196 351 193 358 c 0
 186 374 164 380 151 384 c 0
 145 386 152 410 158 408 c 0
 178 404 196 403 214 403 c 0
 238 403 251 405 262 405 c 0
 267 405 271 405 271 403 c 0
 276 275 293 237 299 106 c 0
 299 93 303 91 312 104 c 0
 396 220 403 226 479 342 c 0
 495 365 516 400 520 400 c 2
 548 400 l 10
 578 400 600 409 628 409 c 0
 633 409 622 389 616 387 c 0
 594 380 595 385 576 373 c 0
 570 369 566 365 564 360 c 0
 562 354 559 348 557 341 c 12
 526 236 509 177 486 73 c 24
 483 60 485 53 491 45 c 24
 500 32 506 26 523 22 c 0
 522 20 516 -3 516 -3 c 0
 498 -3 476 1 447 1 c 8
 414 1 376 -3 362 -3 c 0
 354 -3 361 20 367 22 c 0
 391 29 390 32 403 43 c 24
 413 52 420 60 424 73 c 24
 450 152 454 182 479 276 c 0
 478 276 476 276 471 276 c 2
 471 276 287 19 273 -1 c 0x60
EndSplineSet
Validated: 33
EndChar

StartChar: uni043D
Encoding: 1085 1085 1949
Width: 441
VWidth: 0
Flags: W
HStem: -6 22<336.5 404.214> 191 37<210.912 359> 376 27<258.767 309.748 484.057 536.748>
AnchorPoint: "below_accent" 255 -100 basechar 0
AnchorPoint: "top_accent" 255 550 basechar 0
LayerCount: 2
Fore
SplineSet
405 337 m 6
 413 364 402 370 387 376 c 0
 379 380 370 384 373 394 c 0
 376 402 387 403 393 403 c 0
 394 403 395 403 396 403 c 0
 430 403 427 398 457 398 c 0
 487 398 488 403 522 403 c 0
 523 403 524 403 525 403 c 0
 531 403 542 402 539 394 c 0
 536 384 525 380 514 376 c 0
 495 370 475 364 467 337 c 2
 383 62 l 2
 380 51 374 30 373 24 c 1
 373 20 381 16 388 16 c 0
 394 16 409 20 417 26 c 2
 455 59 l 1
 465 53 l 1
 424 10 393 -6 356 -6 c 0
 317 -6 310 21 324 67 c 2
 360 186 l 2
 362 191 362 191 359 191 c 2
 201 191 l 10
 198 191 198 189 196 184 c 2
 145 17 l 1
 90 0 l 1
 79 4 l 1
 180 337 l 2
 188 364 175 370 160 376 c 0
 152 380 143 384 146 394 c 0
 149 402 159 403 165 403 c 0
 166 403 167 403 168 403 c 0
 202 403 201 398 231 398 c 0
 261 398 261 403 295 403 c 0
 296 403 297 403 298 403 c 0
 304 403 315 402 312 394 c 0
 309 384 298 380 287 376 c 0
 268 370 251 364 243 337 c 2
 211 234 l 2
 209 229 215 228 218 228 c 2
 367 228 l 2
 369 228 372 230 374 236 c 2
 405 337 l 6
EndSplineSet
Validated: 33
EndChar

StartChar: uni0444
Encoding: 1092 1092 1953
Width: 614
Flags: W
HStem: -288 48<61.686 138.866> -14 30<122.149 200.081 309.833 373.736> 384 30<246.264 309.693 421.361 497.851> 599 41<486.363 583.045>
VStem: 45 64<30.5807 194.315> 511 64<205.685 369.419> 592 62<534.853 589.117>
LayerCount: 2
Fore
SplineSet
575 296 m 0
 575 176 475 -14 325 -14 c 0
 313 -14 300 -10 287 -3 c 1
 237 -217 133 -288 80 -288 c 0
 30 -288 -16 -266 -16 -244 c 0
 -16 -220 6 -191 20 -191 c 0
 46 -191 66 -240 108 -240 c 0
 156.106513355 -240 190.993261608 -125.026953568 224 7 c 1
 198 -6 170 -14 140 -14 c 0
 100 -14 45 28 45 104 c 0
 45 224 145 414 295 414 c 0
 308 414 324 409 338 400 c 1
 382.029784999 576.593822182 495 640 551 640 c 0
 594 640 654 630 654 585 c 0
 654 560 633 524 612 524 c 0
 601 524 592 538 592 552 c 0
 592 574 576.991210938 599.959960938 527 599 c 0
 457.012695312 597.65625 426.283430176 462.718176076 402 396 c 1
 426 407 452 414 480 414 c 0
 520 414 575 372 575 296 c 0
511 304 m 0
 511 354 502 384 468 384 c 0
 436 384 383.746693639 354.276579403 371 308 c 2
 303 63 l 2
 296.586278974 39.872869123 316 16 337 16 c 0
 417 16 511 211 511 304 c 0
316 335 m 2
 323.166571251 359.992804094 304 384 283 384 c 0
 203 384 109 189 109 96 c 0
 109 46 118 16 152 16 c 0
 183 16 230.942494853 37.9756535071 245 87 c 2
 316 335 l 2
EndSplineSet
Validated: 33
EndChar

StartChar: uni0446
Encoding: 1094 1094 1966
Width: 447
VWidth: 0
Flags: W
HStem: -169 21G<335 346> -3 27<31.3824 81.7317> 0 39<158.833 322.458> 376 27<259.302 312.748 371.146 407.406 485.759 537.748>
LayerCount: 2
Fore
SplineSet
438 42 m 0xb0
 448 44 449 36 444 28 c 0
 431 8 401 -44 369 -138 c 0
 363 -154 349 -169 343 -169 c 0
 327 -169 331 -146 338 -126 c 0
 365 -52 374 0 341 0 c 2
 93 0 l 2xb0
 73 0 80 -3 46 -3 c 0
 42 -3 26 -4 29 6 c 0
 32 16 43 20 54 24 c 0xd0
 73 30 88 35 96 62 c 2
 181 338 l 2
 189 365 176 370 161 376 c 0
 153 380 144 384 147 394 c 0
 150 402 161 403 167 403 c 0
 168 403 169 403 170 403 c 0
 204 403 203 398 233 398 c 0
 263 398 264 403 298 403 c 0
 299 403 300 403 301 403 c 0
 307 403 318 402 315 394 c 0
 312 384 301 380 290 376 c 0
 271 370 251 365 243 338 c 2
 163 77 l 2
 160 66 151 39 166 39 c 2
 304 39 l 2
 318 39 326 66 329 77 c 2
 409 338 l 2
 417 365 400 370 385 376 c 0
 377 380 368 384 371 394 c 0
 374 402 385 403 391 403 c 0
 392 403 393 403 394 403 c 0
 428 403 426 398 457 398 c 0
 488 398 489 403 523 403 c 0
 524 403 525 403 526 403 c 0
 532 403 543 402 540 394 c 0
 537 384 526 380 515 376 c 0
 495 370 479 365 471 338 c 2
 384 52 l 2
 381 43 393 39 409 39 c 0
 418 39 429 41 438 42 c 0xb0
EndSplineSet
Validated: 33
EndChar

StartChar: uni0447
Encoding: 1095 1095 1961
Width: 432
Flags: W
HStem: -14 61<229.867 316.245> 148 50<108.5 210.137> 398 20G<187.5 212 405.5 415>
VStem: 364 58<341.75 408.152>
AnchorPoint: "below_accent" 181 -100 basechar 0
AnchorPoint: "top_accent" 315 550 basechar 0
LayerCount: 2
Back
SplineSet
236 36 m 4
 264 96 300 175 310 203 c 4
 316 219 305 219 298 211 c 4
 159 59 84 -14 28 -14 c 4
 1 -14 5.453125 29.8046875 16 55 c 30
 106 270 l 6
 115 292 134 339 124 339 c 4
 113 339 75 306 46 280 c 4
 43 277 33 279 33 283 c 4
 33 288 34 298 45 313 c 4
 95 380 171 418 200 418 c 4
 220 418 231 404 215 373 c 6
 94 104 l 6
 82 77 77 50 91 50 c 4
 105 50 131 72 193 136 c 4
 281 226 384 370 398 396 c 4
 407 413 415 414 420 414 c 4
 434 414 441 403 441 391 c 4
 441 385 438 373 428 350 c 6
 313 86 l 6
 302 60 304 47 316 47 c 4
 348 47 414 108 424 118 c 4
 425 119 426 119 427 119 c 4
 431 119 436 115 436 110 c 4
 436 105 433 99 431 96 c 4
 379 33 325 -14 262 -14 c 4
 242 -14 227 16 236 36 c 4
EndSplineSet
Fore
SplineSet
212 28 m 0
 212 48 272 164 299 222 c 0
 306 237 303.270432168 239.755132905 296 232 c 0
 251.000030518 184 182 148 126 148 c 0
 91 148 61 183 87 235 c 10
 123 310 l 2
 133.258789062 331.372070312 136 339 126 339 c 0
 115 339 77 306 48 280 c 0
 45 277 35 279 35 283 c 0
 35 288 36 298 47 313 c 0
 97 380 173 418 202 418 c 0
 222 418 229.6875 404.146484375 215 373 c 2
 157 250 l 2
 141 220 160 198 174 198 c 0
 216.000030518 198 278.000030518 234 310 282 c 0
 324.207477788 303.311237007 341.000030518 334 364 390 c 0
 371.138019107 407.379547843 403 414 408 414 c 0
 422 414 422 403 422 391 c 0
 422 385 419 373 409 350 c 2
 294 86 l 2
 283 60 285 47 297 47 c 0
 329 47 395 108 405 118 c 0
 406 119 407 119 408 119 c 0
 412 119 417 115 417 110 c 0
 417 105 414 99 412 96 c 0
 360 33 307 -14 244 -14 c 0
 224 -14 212 6 212 28 c 0
EndSplineSet
Validated: 33
EndChar

StartChar: uni0449
Encoding: 1097 1097 1968
Width: 613
VWidth: 0
Flags: W
HStem: -169 21G<502 513> -3 27<31.3824 81.7317> 0 39<158.833 293.458 357.787 488.383> 376 27<259.302 312.748 342.146 378.406 456.268 507.637 537.146 573.406 651.352 703.637>
LayerCount: 2
Fore
SplineSet
520 0 m 2xb0
 93 0 l 2xb0
 73 0 80 -3 46 -3 c 0
 42 -3 26 -4 29 6 c 0
 32 16 43 20 54 24 c 0xd0
 73 30 88 35 96 62 c 2
 181 338 l 2
 189 365 176 370 161 376 c 0
 153 380 144 384 147 394 c 0
 150 402 161 403 167 403 c 0
 168 403 169 403 170 403 c 0
 204 403 203 398 233 398 c 0
 263 398 264 403 298 403 c 0
 299 403 300 403 301 403 c 0
 307 403 318 402 315 394 c 0
 312 384 301 380 290 376 c 0
 271 370 251 365 243 338 c 2
 163 77 l 2
 160 66 151 39 166 39 c 2
 275 39 l 2
 289 39 297 66 300 77 c 2
 380 338 l 2
 388 365 371 370 356 376 c 0
 348 380 339 384 342 394 c 0
 345 402 356 403 362 403 c 0
 363 403 364 403 365 403 c 0
 399 403 397 398 427 398 c 0
 457 398 458 403 492 403 c 0
 493 403 494 403 495 403 c 0
 501 403 513 402 510 394 c 0
 507 384 495 380 484 376 c 0
 465 370 450 365 442 338 c 2
 362 77 l 2
 359 66 350 39 364 39 c 2
 469 39 l 2
 484 39 492 66 495 77 c 2
 575 338 l 2
 583 365 566 370 551 376 c 0
 543 380 534 384 537 394 c 0
 540 402 551 403 557 403 c 0
 558 403 559 403 560 403 c 0
 594 403 592 398 623 398 c 0
 654 398 654 403 688 403 c 0
 689 403 690 403 691 403 c 0
 697 403 709 402 706 394 c 0
 703 384 691 380 680 376 c 0
 660 370 645 365 637 338 c 6
 550 53 l 2
 547 43 560 40 577 40 c 0
 586 40 597 41 606 42 c 0
 616 44 616 36 611 28 c 0
 598 8 568 -44 536 -138 c 0
 530 -154 516 -169 510 -169 c 0
 494 -169 498 -146 505 -126 c 0
 510 -113 513 -101 517 -89 c 0
 533 -35 536 0 520 0 c 2xb0
EndSplineSet
Validated: 33
EndChar

StartChar: uni044A
Encoding: 1098 1098 1964
Width: 414
VWidth: 0
Flags: W
HStem: -3 28<86.6808 141.39 226.125 296.154> 210 20<277.688 338.238> 364 37<173.191 242.389> 376 27<319.197 370.785>
LayerCount: 2
Fore
SplineSet
201 364 m 0xe0
 176 364 167 352 136 311 c 0
 131 304 113 286 104 286 c 0
 96 286 100 299 105 308 c 0
 115 327 136 373 144 398 c 0
 147 408 160 416 163 416 c 0
 166 416 169 412 173 407 c 0
 177 402 186 401 202 401 c 2
 290 401 l 2xe0
 320 401 322 403 355 403 c 0
 362 403 375 402 373 394 c 0
 370 384 359 380 348 376 c 0xd0
 329 370 311 364 303 337 c 2
 273 236 l 2
 271 231 275 228 279 230 c 0
 291 236 323 238 339 238 c 0
 378 238 451 211 427 131 c 0
 395 25 318 -3 237 -3 c 0
 203 -3 201 2 171 2 c 0
 141 2 135 -3 102 -3 c 0
 95 -3 82 -2 84 6 c 0
 87 16 98 20 109 24 c 0
 128 30 148 35 157 63 c 2
 241 337 l 2
 249 364 230 364 201 364 c 0xe0
270 203 m 0
 259 196 256 182 254 177 c 2
 223 73 l 2
 214 45 232 25 248 25 c 0
 253 25 273 22 303 43 c 0
 333 64 348 84 357 114 c 0
 377 180 360 210 305 210 c 0
 291 210 276 207 270 203 c 0
EndSplineSet
Validated: 33
EndChar

StartChar: uni044B
Encoding: 1099 1099 1979
Width: 529
VWidth: 0
Flags: W
HStem: -6 22<433.003 492.214> -3 28<25.7949 81.0164 165.519 235.286> 210 20<216.844 277.238> 376 27<258.767 309.785 571.197 622.785>
AnchorPoint: "below_accent" 305 -100 basechar 0
AnchorPoint: "top_accent" 305 550 basechar 0
LayerCount: 2
Fore
SplineSet
471 62 m 2xb0
 468 51 462 30 461 24 c 1
 461 20 469 16 476 16 c 0
 482 16 497 20 505 26 c 2
 543 59 l 1
 553 53 l 1
 512 10 481 -6 444 -6 c 0
 405 -6 397 21 411 67 c 2
 494 337 l 2
 502 364 489 370 473 376 c 0
 465 380 455 384 458 394 c 0
 460 402 475 403 481 403 c 0
 515 403 514 398 544 398 c 0
 574 398 574 403 607 403 c 0
 613 403 628 402 625 394 c 0
 622 384 611 380 600 376 c 0
 581 370 563 364 555 337 c 2
 471 62 l 2xb0
209 203 m 0
 198 196 196 182 194 177 c 2
 162 73 l 2
 153 45 171 25 187 25 c 0x70
 192 25 213 22 242 43 c 0
 272 64 287 84 296 114 c 0
 316 180 299 210 244 210 c 0
 230 210 215 207 209 203 c 0
366 131 m 0
 333 25 257 -3 176 -3 c 0
 142 -3 140 2 110 2 c 0
 80 2 74 -3 41 -3 c 0
 35 -3 20 -2 23 6 c 0
 26 16 38 20 49 24 c 0
 68 30 88 35 97 63 c 2
 180 337 l 2
 188 364 179 370 164 376 c 0
 156 380 147 384 150 394 c 0
 152 402 165 403 172 403 c 0
 206 403 201 398 231 398 c 0
 261 398 261 403 294 403 c 0
 300 403 315 402 312 394 c 0
 309 384 298 380 287 376 c 0
 268 370 251 364 243 337 c 6
 212 236 l 2
 210 231 214 228 218 230 c 0
 230 236 262 238 278 238 c 0
 317 238 390 211 366 131 c 0
EndSplineSet
Validated: 33
EndChar

StartChar: uni044C
Encoding: 1100 1100 1962
Width: 402
Flags: W
HStem: -14 24<121.085 194.382> 237 30<230.219 316> 398 20G<205.5 230>
VStem: 45 63<15.0895 117.486> 298 64<113.83 235.614>
LayerCount: 2
Fore
SplineSet
168.673828125 176 m 24
 133.455078125 135.278320312 108 81 108 52 c 0
 108 28.8349609375 126.834960938 10 150 10 c 0
 173.193781293 10 199.668945312 21.5615234375 220.673828125 39 c 0
 258.673828125 70.548828125 298 129 298 190 c 0
 298 212 289.74609375 237 268 237 c 0
 236 237 198.411147912 210.383776004 168.673828125 176 c 24
134 -14 m 0
 62 -14 45 17 45 55 c 0
 45 85 74.775390625 149.928710938 94 195 c 10
 126 270 l 2
 135.408203125 291.828125 154 339 144 339 c 0
 133 339 95 306 66 280 c 0
 63 277 53 279 53 283 c 0
 53 288 54 298 65 313 c 0
 115 380 191 418 220 418 c 0
 240 418 249.498046875 404.77734375 235 373 c 2
 162 213 l 2
 159 206 163.3046875 203.666015625 171 211 c 0
 208.897460938 247.120117188 250 267 293 267 c 0
 339 267 362 236 362 188 c 0
 362 123 306.673828125 50.9111328125 246.673828125 16 c 0
 209.880859375 -5.408203125 162.2415099 -14 134 -14 c 0
EndSplineSet
Validated: 33
EndChar

StartChar: uni044D
Encoding: 1101 1101 1971
Width: 370
Flags: WO
HStem: -17 32<60.7915 147.552> 171 44<150.167 245.431> 190 47<104.933 234.014> 369 45<140.997 243.753>
VStem: 260 70<198.966 354.382>
AnchorPoint: "top_accent" 234 550 basechar 0
AnchorPoint: "below_accent" 41 -100 basechar 0
LayerCount: 2
Back
SplineSet
319 233 m 0xb0
 347 324 322 364 247 364 c 0
 211 364 183 345 143 308 c 0
 132 298 120 300 124 311 c 0
 127 319 134 331 140 338 c 0
 176 378 225 413 289 413 c 0
 376 413 411 322 380 219 c 8
 343 99 240 -14 137 -14 c 16
 100 -14 79 -8 52 16 c 0
 40 27 37 36 49 74 c 0
 53 88 59 101 67 101 c 0
 75 101 79 80 81 75 c 0
 100 31 122 22 160 22 c 0
 217 22 273 84 304 184 c 0
 306 190 305 193 301 193 c 0xb0
 245 193 200 185 137 185 c 24xd0
 130 185 122 185 124 193 c 0xb0
 127 204 163 229 181 229 c 0xd0
 238 231 254 225 309 225 c 0
 313 225 318 229 319 233 c 0xb0
EndSplineSet
Fore
SplineSet
253.560345879 220.457057076 m 5xd8
 257.759851562 243.012603349 259.999999756 265.558222267 260 287 c 4
 260 323 244 369 208 369 c 4
 163 369 131 358 101 333 c 4
 93 327 88 322 83 322 c 4
 77 322 73 318 73 328 c 4
 73 338 77 344 84 350 c 4
 128 392 174 414 227 414 c 4
 287 414 330 361 330 301 c 4
 330 140 230 -17 68 -17 c 4
 30 -17 -10 14 -10 24 c 4
 -10 37 6 66 20 66 c 4
 43 66 51 15 101 15 c 4
 168.748085034 15 224.596680742 101.696279376 248.071688773 195.325164128 c 5
 234.318158313 181.313588657 218.125670813 170.99999995 208 171 c 4xd8
 174 171 171 190 138 190 c 4
 115 190 98 172 88 172 c 4
 82 172 76 173 76 181 c 4
 76 191 121 237 149 237 c 4xb8
 174 237 192 215 222 215 c 4
 241.06464981 215 248.114064169 217.252856647 253.560345879 220.457057076 c 5xd8
EndSplineSet
Validated: 524289
EndChar

StartChar: uni044E
Encoding: 1102 1102 1972
Width: 573
VWidth: 0
Flags: W
HStem: -14 30<346.324 420.224> 0 21G<79 145> 181 37<207.912 253> 376 27<258.767 309.748> 383 31<431.595 511.461>
LayerCount: 2
Fore
SplineSet
525 189 m 0xa8
 554 284 545 383 472 383 c 0
 424 383 369 320 339 221 c 0
 309 122 313 16 381 16 c 0
 432 16 497 97 525 189 c 0xa8
274 229 m 0
 317 325 404 414 496 414 c 0
 597 414 638 321 605 213 c 0
 569 96 481 -14 360 -14 c 0xa8
 268 -14 227 62 254 171 c 0
 255 176 256 181 253 181 c 2
 197 181 l 10
 197 181 195 179 193 174 c 2
 145 17 l 1
 90 0 l 1
 79 4 l 1
 180 337 l 2
 188 364 175 370 160 376 c 0
 152 380 143 384 146 394 c 0
 149 402 159 403 165 403 c 0
 166 403 167 403 168 403 c 0
 202 403 201 398 231 398 c 0
 261 398 261 403 295 403 c 0
 296 403 297 403 298 403 c 0
 304 403 315 402 312 394 c 0
 309 384 298 380 287 376 c 0x70
 268 370 251 364 243 337 c 2
 208 224 l 2
 206 219 212 218 215 218 c 2
 262 218 l 2
 264 218 268 215 274 229 c 0
EndSplineSet
Validated: 33
EndChar

StartChar: uni044F
Encoding: 1103 1103 1959
Width: 431
Flags: W
HStem: -14 61<233.038 317.925> 196 25<228.898 266.75> 381 28<227.14 328.321>
VStem: 116 64<238.715 343.79>
LayerCount: 2
Back
SplineSet
316 221 m 4
 320 221 328 226 330 233 c 6
 361 335 l 6
 370 365 369 372 332 372 c 4
 314 372 251 358 235 306 c 4
 215 239 256 221 316 221 c 4
333 402 m 4
 357 402 383 400 413 400 c 0
 443 400 441 402 475 402 c 0
 479 402 495 403 492 393 c 0
 489 383 478 379 467 375 c 0
 448 369 430 361 421 330 c 2
 339 62 l 2
 336 51 330 30 329 24 c 1
 329 20 337 16 344 16 c 0
 350 16 365 20 373 26 c 2
 412 59 l 1
 421 53 l 1
 380 10 349 -6 312 -6 c 0
 273 -6 266 21 280 67 c 2
 314 179 l 2
 318 192 314 196 310 196 c 0
 281 196 240 157 222 135 c 6
 147 43 l 6
 112 1 74 -10 52 -10 c 4
 10 -10 -3 2 0 12 c 4
 3 22 19 27 45 32 c 4
 64 36 93 52 111 74 c 6
 161 135 l 5
 188 165 203 181 228 193 c 4
 231 194 234 200 230 200 c 4
 182 207 149 240 167 298 c 4
 188 368 249 402 333 402 c 4
EndSplineSet
Fore
SplineSet
393 414 m 0
 400 414 402 406 402 398 c 0
 402 392 392 380 382 350 c 2
 296 86 l 2
 287 59 287 47 299 47 c 0
 331 47 397 108 407 118 c 0
 408 119 409 119 410 119 c 0
 414 119 419 115 419 110 c 0
 419 105 416 99 414 96 c 0
 362 33 308 -14 245 -14 c 0
 225 -14 214 15 221 36 c 2
 269 181 l 2
 272 191 274 196 268 196 c 0
 227 194 170 145 152 123 c 0
 130 96 120 77 101 43 c 0
 80 6 34 -10 12 -10 c 0
 -26 -10 -40 6 -40 15 c 0
 -40 28 -17 28 9 33 c 0
 28 37 49 49 63 74 c 0
 75 95 104 137 118 152 c 0
 135 170 156 189 182 195 c 0
 185 196 188 200 184 200 c 0
 145 206 116 235 116 274 c 0
 116 365 187 409 274 409 c 0
 287 409 324 405 348 405 c 0
 367 405 389 414 393 414 c 0
270 221 m 0
 274 221 282 226 284 233 c 2
 315 335 l 2
 324 365 304 381 267 381 c 0
 239 381 180 350 180 281 c 0
 180 239 220 221 270 221 c 0
EndSplineSet
Validated: 33
EndChar

StartChar: uni0452
Encoding: 1106 1106 1965
Width: 174
VWidth: 0
Flags: W
HStem: -12 5<88.0022 122.001> -7 4<94 124 263.578 275.38>
VStem: 88 198
LayerCount: 2
Fore
SplineSet
118 -7 m 2xa0
 118 -7 119 -7 122 -7 c 0
 124 -7 122 -12 122 -12 c 0
 122 -12 121 -12 119 -12 c 0
 113 -12 111 -12 106 -12 c 24
 101 -12 97 -12 91 -12 c 0
 88 -12 l 0
 88 -12 91 -7 94 -7 c 0
 99 -7 102 -7 104 -7 c 2xa0
 121 -3 l 2
 120 -3 l 0
 118 -3 116 -3 113 -3 c 0
 112 -3 110 -3 108 -3 c 0
 105 -3 102 -3 99 -3 c 0
 98 -3 96 -3 94 -3 c 0x60
 96 -2 l 0
 103 -7 109 -7 113 -12 c 0
 116 -12 118 -12 120 -12 c 0xa0
 122 -12 125 -7 127 -2 c 0
 128 -3 135 -4 143 -4 c 2
 252 -4 l 2
 261 -4 266 -3 269 -3 c 0
 275 -5 282 -7 286 -7 c 0
 286 -7 287 -7 284 -7 c 0
 273 -7 262 -2 259 -2 c 0
 260 -2 l 0
 260 -3 l 0
 260 -3 256 -3 233 -3 c 0
 214 -3 190 -3 183 -3 c 0
 178 -3 176 -3 173 -3 c 2x60
 118 -7 l 2xa0
EndSplineSet
Validated: 5
EndChar

StartChar: uni0454
Encoding: 1108 1108 1970
Width: 370
Flags: W
HStem: -17 45<126.247 229.003> 170 47<158.484 267.067> 192 44<124.416 227.154> 382 32<212.987 300.226>
VStem: 40 70<42.6183 185.523>
AnchorPoint: "below_accent" 125 -100 basechar 0
AnchorPoint: "top_accent" 318 550 basechar 0
LayerCount: 2
Back
SplineSet
150 195 m 20
 131 108 162 38 237 38 c 4
 273 38 295 54 328 88 c 4
 331 91 334 93 337 93 c 4
 343 93 347 85 343 77 c 4
 324 42 252 -14 173 -14 c 12
 87 -14 54 77 85 180 c 12
 122 303 232 413 337 413 c 20
 374 413 407 402 421 365 c 4
 427 349 412 334 397 325 c 20
 393 322 387 319 383 319 c 4
 375 319 366 323 365 329 c 4
 358 355 332 376 298 376 c 4
 240 376 191 312 164 244 c 4
 162 239 164 235 168 235 c 4
 224 235 260 241 317 240 c 28
 324 240 331 240 329 232 c 4
 326 221 309 201 297 201 c 4
 241 201 214 203 159 203 c 4
 155 203 151 199 150 195 c 20
EndSplineSet
Fore
SplineSet
118 187 m 1xb8
 114 164 110 131 110 110 c 0
 110 74 126 28 162 28 c 0
 207 28 239 39 269 64 c 0
 277 70 282 75 287 75 c 0
 293 75 297 79 297 69 c 0
 297 59 293 53 286 47 c 0
 242 5 196 -17 143 -17 c 0
 83 -17 40 36 40 96 c 0
 40 257 134 414 296 414 c 4
 334 414 370 377 370 367 c 0
 370 354 354 325 340 325 c 0
 317 325 313 382 263 382 c 4
 195 382 150.965774536 308 124 222 c 1
 138 236 154 236 164 236 c 0xb8
 198 236 201 217 234 217 c 0
 257 217 274 235 284 235 c 0
 290 235 296 234 296 226 c 0
 296 216 251 170 223 170 c 0xd8
 198 170 180 192 150 192 c 0
 131 192 123 190 118 187 c 1xb8
EndSplineSet
EndChar

StartChar: uni0459
Encoding: 1113 1113 1968
Width: 588
Flags: W
HStem: -14 60<8.74617 100.437> -14 24<327.236 396.65> 212 30<415.255 500.5> 369 51<332.409 415.105>
VStem: 260 55<14.2546 121.285> 484 64<94.0248 210.541>
LayerCount: 2
Back
SplineSet
375.673828125 176 m 28
 340.455078125 135.278320312 315 81 315 52 c 4
 315 28.8349609375 333.834960938 10 357 10 c 4
 380.193359375 10 406.668945312 21.5615234375 427.673828125 39 c 4
 465.673828125 70.548828125 505 129 505 190 c 4
 505 212 496.74609375 237 475 237 c 4
 443 237 405.411132812 210.383789062 375.673828125 176 c 28
369 213 m 6
 366 206 370.3046875 203.666015625 378 211 c 4
 415.897460938 247.120117188 457 267 500 267 c 4
 546 267 569 236 569 188 c 4
 569 123 513.673828125 50.9111328125 453.673828125 16 c 4
 416.880859375 -5.408203125 369.241210938 -14 341 -14 c 4
 269 -14 252 17 252 55 c 4
246 36 m 14
 350 346 l 22
 353 355 354 369 346 369 c 4
 327 369 301 329 284 302 c 4
 266 274 170 78 118 23 c 4
 92 -5 62 -14 24 -14 c 4
 4 -14 -10 2 -10 28 c 4
 -10 51 9 85 26 85 c 4
 35 85 37 79 42 65 c 4
 46 53 55 46 63 46 c 4
 90 46 108 58 120 79 c 4
 162 148 228 275 266 328 c 4
 314 395 349 420 410 420 c 4
 420 420 422 413 422 401 c 4
 422 395 416 374 408 350 c 6
 321 86 l 6
EndSplineSet
Fore
SplineSet
365 160 m 0x7c
 334.889122714 126.558482854 315 84 315 55 c 0
 315 31 330 10 354 10 c 0
 380 10 402.96251041 22.2569512029 426 43 c 0
 459.441517146 73.1108772861 484 108 484 165 c 0
 484 187 477 212 455 212 c 0
 423 212 391.765224254 189.725793019 365 160 c 0x7c
282 142 m 10
 350 346 l 18
 353 355 354 369 346 369 c 0
 327 369 301 329 284 302 c 0
 266 274 170 78 118 23 c 0
 92 -5 62 -14 24 -14 c 0
 4 -14 -10 2 -10 28 c 0
 -10 51 9 85 26 85 c 0
 35 85 37 79 42 65 c 0
 46 53 55 46 63 46 c 0xbc
 90 46 108 58 120 79 c 0
 162 148 228 275 266 328 c 0
 314 395 349 420 410 420 c 0
 420 420 422 413 422 401 c 0
 422 395 416 374 408 350 c 2
 358 197 l 2
 356 190 358.871894323 188.149168072 367 195 c 0
 402 224.5 437 242 480 242 c 0
 521 242 548 210 548 163 c 0
 548 106 504.120710789 52.794295548 448 20 c 0
 410.873991324 -1.69468782405 366 -14 338 -14 c 0
 278 -14 260 18 260 56 c 0
 260 76 275 121 282 142 c 10
EndSplineSet
Validated: 1
EndChar

StartChar: uni045A
Encoding: 1114 1114 1983
Width: 557
VWidth: 0
Flags: W
HStem: -3 28<240.487 290.746 372.625 449.926> 191 37<210.912 340> 203 20<416.911 482.239> 376 27<255.758 302.785 363.102 391.576 467.057 519.748>
LayerCount: 2
Fore
SplineSet
415 196 m 0xb0
 404 189 401 175 399 170 c 2
 369 73 l 2
 360 45 379 25 395 25 c 0
 400 25 423 18 452 39 c 0
 482 60 493 80 502 110 c 0
 522 176 504 203 449 203 c 0
 435 203 421 200 415 196 c 0xb0
417 229 m 2
 415 224 420 221 424 223 c 0xb0
 436 229 467 231 483 231 c 0
 522 231 596 207 572 127 c 0
 539 21 465 -3 384 -3 c 0
 349 -3 348 2 318 2 c 0
 288 2 289 -3 256 -3 c 0
 250 -3 235 -2 238 6 c 0
 241 16 252 20 263 24 c 0
 282 30 296 36 304 63 c 2
 342 186 l 2
 344 191 343 191 340 191 c 2
 200 191 l 9
 200 191 198 189 196 184 c 2
 145 17 l 1
 90 0 l 1
 79 4 l 1
 180 337 l 2
 188 364 175 370 160 376 c 0
 152 380 143 384 146 394 c 0
 148 402 162 403 168 403 c 0
 202 403 201 398 231 398 c 0
 261 398 255 403 288 403 c 0
 294 403 308 402 305 394 c 0
 302 384 291 380 280 376 c 0
 261 370 251 364 243 337 c 2
 211 234 l 2
 209 229 215 228 218 228 c 2
 350 228 l 2xd0
 352 228 355 230 357 236 c 2
 388 337 l 2
 396 364 392 370 377 376 c 0
 369 380 360 384 363 394 c 0
 365 402 379 403 385 403 c 0
 419 403 409 398 439 398 c 0
 469 398 475 403 508 403 c 0
 514 403 525 402 522 394 c 0
 519 384 508 380 497 376 c 0
 478 370 458 364 450 337 c 2
 417 229 l 2
EndSplineSet
Validated: 33
EndChar

StartChar: uni045B
Encoding: 1115 1115 1966
Width: 428
VWidth: 0
Flags: W
HStem: -6 22<342.5 410.214> 362 52<317.711 425> 508 33<173.742 226 299 440.672> 685 20G<350.5 352.5>
LayerCount: 2
Fore
SplineSet
389 62 m 2
 386 51 379 30 378 24 c 1
 378 20 387 16 394 16 c 0
 400 16 415 20 423 26 c 2
 461 59 l 1
 471 53 l 1
 430 10 399 -6 362 -6 c 0
 323 -6 316 21 330 67 c 2
 393 272 l 2
 409 323 376 362 339 362 c 0
 317 362 282 355 261 340 c 0
 238 323 228 309 215 268 c 2
 139 17 l 1
 84 0 l 1
 72 4 l 1
 226 508 l 1
 180 508 l 2
 172 508 171 517 173 523 c 0
 176 532 189 541 199 541 c 2
 237 541 l 1
 257 608 253 632 228 639 c 0
 220 641 227 662 235 664 c 0
 283 676 316 692 348 704 c 0
 349 704 350 705 351 705 c 0
 354 705 355 701 355 698 c 1
 351 686 334 654 299 541 c 1
 436 541 l 2
 442 541 448 534 443 527 c 0
 433 514 424 508 411 508 c 2
 289 508 l 1
 252 388 l 2
 248 376 246 357 248 351 c 1
 282 374 343 414 397 414 c 0
 453 414 484 372 460 294 c 2
 389 62 l 2
EndSplineSet
Validated: 33
EndChar

StartChar: uni045F
Encoding: 1119 1119 1960
Width: 498
VWidth: 0
Flags: W
HStem: -220 19<85.0268 112.376> -14 61<132.975 134 321.759 384.925> 398 20<235.5 260 467.5 477>
LayerCount: 2
Fore
SplineSet
249 20 m 4
 237.37109375 -5.9970703125 223.41015625 -40.015625 220 -123 c 4
 217 -196 148 -220 101 -220 c 4
 94 -220 85 -218 85 -210 c 4
 85 -205 89.11328125 -203.262695312 94 -201 c 4
 126.38671875 -186 150.747070312 -173.8828125 160 -117 c 4
 171.38671875 -47 191.403320312 -14.021484375 226.388671875 20 c 4
 239.29296875 32.548828125 255.125 33.6923828125 249 20 c 4
EndSplineSet
Refer: 15 117 N 1 0 0 1 0 0 2
Validated: 1
EndChar

StartChar: uni04D2
Encoding: 1234 1234 687
Width: 772
VWidth: 0
Flags: W
HStem: -5 36<17.8519 96.2793 218.75 264.899 429.027 521.115 647.592 701.899> 736 110<519.26 579.74 696.26 755.74>
VStem: 498 103<757.203 824.797> 675 102<757.203 824.797>
LayerCount: 2
Fore
SplineSet
743 846 m 24
 771 846 786 821 777 791 c 24
 768 761 737 736 709 736 c 24
 681 736 666 761 675 791 c 24
 684 821 715 846 743 846 c 24
566 846 m 24
 594 846 610 821 601 791 c 24
 592 761 561 736 533 736 c 24
 505 736 489 761 498 791 c 24
 507 821 538 846 566 846 c 24
EndSplineSet
Refer: 658 1040 N 1 0 0 1 0 0 3
Validated: 33
EndChar

StartChar: uni04DE
Encoding: 1246 1246 1979
Width: 472
VWidth: 0
HStem: -14 31<159.1 271.812> 332 46<234.773 335.202> 339 33<279.705 385.753> 633 31<347.987 446.094> 724 110<372.26 432.74 549.26 608.74>
VStem: 80 33<85.4367 172.625> 351 103<745.203 812.797> 528 102<745.203 812.797>
LayerCount: 2
Fore
SplineSet
596 834 m 24x9f
 624 834 639 809 630 779 c 24
 621 749 590 724 562 724 c 24
 534 724 519 749 528 779 c 24
 537 809 568 834 596 834 c 24x9f
419 834 m 24
 447 834 463 809 454 779 c 24
 445 749 414 724 386 724 c 24
 358 724 342 749 351 779 c 24
 360 809 391 834 419 834 c 24
EndSplineSet
Refer: 1153 1047 N 1 0 0 1 0 0 3
Validated: 1
EndChar

StartChar: uni04E2
Encoding: 1250 1250 1981
Width: 717
VWidth: 0
Flags: W
HStem: -5 29<27.9477 103.938 224.343 290.899 441.698 519.761 633.559 689.899> 622 31<227.102 284.532 395.255 473.442 637.101 695.43 806.674 880.442> 723 54<517.668 784.228>
VStem: 508 288
LayerCount: 2
Fore
SplineSet
543 777 m 26
 788 777 l 26
 795 777 800 770 796 763 c 24
 784 744 773 723 755 723 c 26
 518 723 l 26
 511 723 506 729 508 735 c 0
 511 744 525 777 543 777 c 26
EndSplineSet
Refer: 1140 1048 N 1 0 0 1 0 0 3
Validated: 1
EndChar

StartChar: uni04E4
Encoding: 1252 1252 1983
Width: 770
VWidth: 0
Flags: HW
HStem: -5 29<27.9477 103.938 224.343 290.899 441.698 519.761 633.559 689.899> 622 31<227.102 284.532 395.255 473.442 637.101 695.43 806.674 880.442> 700 110<535.26 595.74 712.26 771.74>
VStem: 514 103<721.203 788.797> 691 102<721.203 788.797>
LayerCount: 2
Fore
SplineSet
759 810 m 24
 787 810 802 785 793 755 c 24
 784 725 753 700 725 700 c 24
 697 700 682 725 691 755 c 24
 700 785 731 810 759 810 c 24
582 810 m 24
 610 810 626 785 617 755 c 24
 608 725 577 700 549 700 c 24
 521 700 505 725 514 755 c 24
 523 785 554 810 582 810 c 24
EndSplineSet
Refer: 1140 1048 N 1 0 0 1 0 0 3
EndChar

StartChar: uni04EC
Encoding: 1260 1260 1987
Width: 595
VWidth: 0
HStem: -15 30<187.922 334.941> 320 49<276.086 537.877> 632 32<361.966 516.312> 724 110<431.26 491.74 608.26 667.74>
VStem: 72 44<73.0096 160.126> 410 103<745.203 812.797> 587 102<745.203 812.797>
LayerCount: 2
Fore
SplineSet
655 834 m 24
 683 834 698 809 689 779 c 24
 680 749 649 724 621 724 c 24
 593 724 578 749 587 779 c 24
 596 809 627 834 655 834 c 24
478 834 m 24
 506 834 522 809 513 779 c 24
 504 749 473 724 445 724 c 24
 417 724 401 749 410 779 c 24
 419 809 450 834 478 834 c 24
EndSplineSet
Refer: 1154 1069 N 1 0 0 1 0 0 3
Validated: 1
EndChar

StartChar: uni04F4
Encoding: 1268 1268 1992
Width: 622
VWidth: 0
HStem: -3 25<343.985 397.605 570.977 612.904> 287 50<350.433 488.649> 632 20<211 243 420 452.5 553 585> 724 110<466.26 526.74 643.26 702.74>
VStem: 445 103<745.203 812.797> 622 102<745.203 812.797>
LayerCount: 2
Fore
SplineSet
690 834 m 24
 718 834 733 809 724 779 c 24
 715 749 684 724 656 724 c 24
 628 724 613 749 622 779 c 24
 631 809 662 834 690 834 c 24
513 834 m 24
 541 834 557 809 548 779 c 24
 539 749 508 724 480 724 c 24
 452 724 436 749 445 779 c 24
 454 809 485 834 513 834 c 24
EndSplineSet
Refer: 1158 1063 N 1 0 0 1 0 0 3
Validated: 1
EndChar

StartChar: uni04F8
Encoding: 1272 1272 1994
Width: 789
VWidth: 0
HStem: -4 31<232.641 353.08 502.367 567.917 713.13 766.903> 343 15<305.739 335.728> 630 21<230.134 263.878 401.788 463.766> 693 110<559.26 619.74 736.26 795.74>
VStem: 538 103<714.203 781.797> 715 102<714.203 781.797>
LayerCount: 2
Fore
SplineSet
783 803 m 24
 811 803 826 778 817 748 c 24
 808 718 777 693 749 693 c 24
 721 693 706 718 715 748 c 24
 724 778 755 803 783 803 c 24
606 803 m 24
 634 803 650 778 641 748 c 24
 632 718 601 693 573 693 c 24
 545 693 529 718 538 748 c 24
 547 778 578 803 606 803 c 24
EndSplineSet
Refer: 1163 1067 N 1 0 0 1 0 0 3
Validated: 1
EndChar

StartChar: uni1DA0
Encoding: 7584 7584 734
Width: 207
VWidth: 0
Flags: W
HStem: 273 21G<109.5 214.5> 481 38<269.5 330.188> 481 27<171.021 198.67> 666 32<336.481 403.93>
LayerCount: 2
Fore
SplineSet
275 560 m 2xb0
 267 532 l 2
 264 521 270 519 277 519 c 10
 342 519 l 18
 348 519 330 481 324 481 c 10
 275 481 l 18xd0
 247 481 249 474 246 465 c 2
 203 323 l 1
 199 307 210 301 221 297 c 0
 227 295 232 288 230 282 c 0
 228 276 216 273 213 273 c 2
 111 273 l 2
 108 273 98 276 100 282 c 0
 102 288 111 295 118 297 c 0
 131 301 146 307 151 323 c 2
 199 480 l 1
 192 480 183 480 170 481 c 0
 167 482 170 507 175 508 c 0
 195 513 197 514 211 520 c 1
 253 659 346 698 399 698 c 0
 426 698 438 695 454 680 c 24
 471 664 432 630 417 630 c 0
 398 630 420 666 369 666 c 0
 332 666 300 641 275 560 c 2xb0
EndSplineSet
Validated: 33
EndChar

StartChar: uni1DBB
Encoding: 7611 7611 735
Width: 222
VWidth: 0
Flags: W
HStem: 273 24<169.818 265.183> 488 39<188.734 270.295> 488 29<198.237 281>
VStem: 96 269
LayerCount: 2
Fore
SplineSet
222 518 m 16xd0
 239 517 256 517 271 517 c 0
 305 517 335 518 365 519 c 0
 368 519 369 514 367 512 c 0
 356 502 352 494 340 482 c 2
 170 306 l 2
 166 301 170 297 174 297 c 2
 239 297 l 2
 258 297 274 317 301 343 c 0
 304 346 316 358 323 358 c 0
 329 358 325 346 324 344 c 0
 322 339 294 292 288 282 c 0
 286 279 281 273 277 273 c 2
 101 273 l 2
 98 273 95 280 96 283 c 0
 97 286 100 294 112 305 c 0
 171 363 220 412 285 482 c 0
 288 485 290 488 281 488 c 2xb0
 225 488 l 2
 214 488 196 476 179 460 c 0
 175 456 165 446 159 446 c 0
 153 446 153 456 157 461 c 0
 165 472 178 501 184 515 c 0
 187 521 190 527 198 527 c 0
 203 527 211 519 222 518 c 16xd0
EndSplineSet
Validated: 1
EndChar

StartChar: uni1E00
Encoding: 7680 7680 353
Width: 772
VWidth: 0
Flags: W
HStem: -5 36<17.8519 96.2793 218.75 264.899 429.027 521.115 647.592 701.899> 700 22<570.933 624.744> 841 23<595.898 651.551>
LayerCount: 2
Fore
SplineSet
639 864 m 16
 684 864 710 835 695 787 c 8
 680 737 627 700 581 700 c 8
 539 700 512 729 527 779 c 8
 542 828 593 864 639 864 c 16
563 782 m 8
 553 750 567 722 597 722 c 24
 624 722 649 754 658 782 c 8
 667 813 655 841 626 841 c 24
 598 841 572 811 563 782 c 8
EndSplineSet
Refer: 31 65 N 1 0 0 1 0 0 3
Validated: 1
EndChar

StartChar: uni1E06
Encoding: 7686 7686 359
Width: 592
VWidth: 0
Flags: W
HStem: -4 29<21.1484 103.953 245.969 355.254> 343 28<316.1 400.267> 621 29<222.195 284.947> 625 26<381.576 486.165> 723 54<372.668 639.228>
VStem: 363 288 474 87<119.333 282.403> 536 81<450.137 588.429>
LayerCount: 2
Fore
SplineSet
398 777 m 26xcc
 643 777 l 26
 650 777 655 770 651 763 c 24
 639 744 628 723 610 723 c 26
 373 723 l 26
 366 723 361 729 363 735 c 0
 366 744 380 777 398 777 c 26xcc
EndSplineSet
Refer: 30 66 N 1 0 0 1 0 0 3
Validated: 1
EndChar

StartChar: uni1E0C
Encoding: 7692 7692 365
Width: 773
VWidth: 0
Flags: W
HStem: -179 110<265.26 325.74> -7 35<192.833 439.505> -5 29<20.7629 111.218> 618 33<187.538 282.055 395.287 554.01>
VStem: 244 103<-157.797 -90.203> 697 86<273.574 501.999>
LayerCount: 2
Fore
SplineSet
312 -69 m 24x9c
 340 -69 356 -94 347 -124 c 24
 338 -154 307 -179 279 -179 c 24
 251 -179 235 -154 244 -124 c 24
 253 -94 284 -69 312 -69 c 24x9c
EndSplineSet
Refer: 43 68 N 1 0 0 1 0 0 3
Validated: 1
EndChar

StartChar: uni1E0E
Encoding: 7694 7694 367
Width: 773
VWidth: 0
Flags: W
HStem: -166 54<185.668 452.228> -7 35<192.833 439.505> -5 29<20.7629 111.218> 618 33<187.538 282.055 395.287 554.01>
VStem: 176 288 697 86<273.574 501.999>
LayerCount: 2
Fore
SplineSet
211 -112 m 26x9c
 456 -112 l 26
 463 -112 468 -119 464 -126 c 24
 452 -145 441 -166 423 -166 c 26
 186 -166 l 26
 179 -166 174 -160 176 -154 c 0
 179 -145 193 -112 211 -112 c 26x9c
EndSplineSet
Refer: 43 68 N 1 0 0 1 0 0 3
Validated: 1
EndChar

StartChar: uni1E10
Encoding: 7696 7696 369
Width: 714
VWidth: 0
Flags: W
HStem: -275 53<191.019 276.032> -7 35<249.465 339> -2 22<30.4871 73.3209> 628 31<415.266 592.886> 628 24<241.535 274.942 423.668 515.722>
LayerCount: 2
Fore
SplineSet
364 -159 m 0x90
 343 -227 250 -275 208 -275 c 0
 189 -275 181 -275 177 -262 c 0
 172 -249 178 -237 188 -221 c 0
 192 -214 199 -207 204 -210 c 0
 222 -220 244 -222 256 -222 c 0
 272 -222 298 -212 307 -183 c 0
 314 -159 311 -133 279 -131 c 0
 273 -131 265 -132 257 -132 c 0
 247 -132 238 -130 236 -122 c 0
 235 -117 241 -105 246 -100 c 2
 339 -7 l 1xd0
 314 -6 232 1 166 2 c 0
 162 2 157 2 153 2 c 0
 106 2 56 -2 32 -2 c 0
 28 -2 28 3 30 8 c 0
 32 13 35 19 39 20 c 0
 68 27 86 34 111 54 c 0
 133 72 147 89 155 114 c 2
 280 522 l 2
 289 550 297 584 290 596 c 0
 278 617 276 619 243 630 c 0
 236 632 241 652 249 652 c 0xa8
 288 652 309 649 348 649 c 0
 383 649 491 659 517 659 c 0
 769 659 831 530 771 335 c 0
 716 154 539 8 369 -6 c 1
 325 -54 l 2
 318 -61 326 -68 330 -70 c 0
 352 -82 378 -112 364 -159 c 0x90
695 346 m 0
 743 503 658 628 512 628 c 0
 431 628 380 607 368 567 c 2
 232 121 l 2
 219 80 228 66 243 50 c 0
 260 32 279 28 303 28 c 0
 320 28 338 30 358 30 c 0
 506 30 646 187 695 346 c 0
EndSplineSet
Validated: 33
EndChar

StartChar: uni1E12
Encoding: 7698 7698 371
Width: 773
VWidth: 0
Flags: W
HStem: -7 35<192.833 439.505> -5 29<20.7629 111.218> 618 33<187.538 282.055 395.287 554.01> 700 132
VStem: 697 86<273.574 501.999>
LayerCount: 2
Fore
SplineSet
605 763 m 0x38
 597 770 598 770 586 763 c 0
 557 748 553 744 499 718 c 0
 486 711 457 700 445 700 c 0
 431 700 430 712 444 722 c 2
 572 810 l 2
 595 826 602 832 616 832 c 0
 630 832 634 826 648 810 c 2
 721 722 l 2
 729 712 721 699 707 699 c 0
 695 699 688 707 679 714 c 0
 641 740 625 748 605 763 c 0x38
EndSplineSet
Refer: 43 68 N 1 0 0 1 0 0 3
Validated: 1
EndChar

StartChar: uni1E18
Encoding: 7704 7704 377
Width: 621
VWidth: 0
Flags: W
HStem: -5 35<8.01822 107.75 228.884 496.445> 322 27<307.177 478.603> 388 20<556.5 561.5> 618 32<218.007 283.946 386.483 609.242> 700 132
VStem: 492 28<252.052 308.246> 618 55<568.25 613.321>
LayerCount: 2
Fore
SplineSet
535 763 m 0
 527 770 528 770 516 763 c 0
 487 748 483 744 429 718 c 0
 416 711 387 700 375 700 c 0
 361 700 360 712 374 722 c 2
 502 810 l 2
 525 826 532 832 546 832 c 0
 560 832 564 826 578 810 c 2
 651 722 l 2
 659 712 651 699 637 699 c 0
 625 699 618 707 609 714 c 0
 571 740 555 748 535 763 c 0
EndSplineSet
Refer: 35 69 N 1 0 0 1 0 0 3
Validated: 1
EndChar

StartChar: uni1E1C
Encoding: 7708 7708 381
Width: 621
VWidth: 0
Flags: W
HStem: -278.567 53<20.3553 105.368> -5 35<8.01822 107.75 228.884 496.445> 322 27<307.177 478.603> 388 20<556.5 561.5> 618 32<218.007 283.946 386.483 609.242> 724 70<640.441 762.827>
VStem: 6.33678 205 492 28<252.052 308.246> 618 55<568.25 613.321> 835 29<841.993 872.004>
LayerCount: 2
Fore
SplineSet
615 857 m 0
 619 835 641 794 706 794 c 0
 771 794 817 835 835 857 c 0
 842 866 853 878 862 878 c 0
 871 878 868 867 864 854 c 0
 844 790 759 724 685 724 c 0
 611 724 562 779 585 854 c 0
 589 867 592 878 601 878 c 0
 610 878 613 866 615 857 c 0
EndSplineSet
Refer: 333 552 N 1 0 0 1 0 0 3
Validated: 5
EndChar

StartChar: uni1E1E
Encoding: 7710 7710 383
Width: 536
VWidth: 0
Flags: W
HStem: -5 29<10.7629 88.706 219.52 283.641> 322 27<288.265 459.603> 388 20<537.5 542.5> 618 32<199.007 265.459 365.112 590.242> 724 110<654.282 714.762>
VStem: 473 28<252.052 308.246> 599 55<565.252 613.321> 633.022 103<745.203 812.797>
LayerCount: 2
Fore
SplineSet
701.022460938 834 m 24xfc
 729.022460938 834 745.022460938 809 736.022460938 779 c 24
 727.022460938 749 696.022460938 724 668.022460938 724 c 24
 640.022460938 724 624.022460938 749 633.022460938 779 c 24
 642.022460938 809 673.022460938 834 701.022460938 834 c 24xfc
EndSplineSet
Refer: 41 70 N 1 0 0 1 0 0 3
Validated: 1
EndChar

StartChar: uni1E2C
Encoding: 7724 7724 397
Width: 371
VWidth: 0
Flags: W
HStem: -5 29<5.7629 87.4897 224.031 286.641> 622 31<210.487 270.933 389.79 472.785> 737 63<367.634 534.295> 745 63<341.772 511.366>
VStem: 277 324
LayerCount: 2
Fore
SplineSet
277 731 m 0x60
 312 767 367 808 381 808 c 0x60
 404 808 502 800 525 800 c 0
 539 800 566 815 589 837 c 0
 590 838 591 838 592 838 c 0
 598 838 605 824 601 819 c 0
 577 794 514 737 500 737 c 0xa0
 477 737 375 745 352 745 c 0
 338 745 311 731 291 713 c 0
 290 712 289 712 288 712 c 0
 281 712 272 726 277 731 c 0x60
EndSplineSet
Refer: 33 73 N 1 0 0 1 0 0 3
Validated: 1
EndChar

StartChar: uni1E36
Encoding: 7734 7734 407
Width: 619
VWidth: 0
Flags: W
HStem: -5 35<12.0182 111.625 232.884 516.445> 622 31<231.494 295.483 409.436 504.821> 700 110<378.26 438.74>
VStem: 357 103<721.203 788.797>
LayerCount: 2
Fore
SplineSet
425 810 m 24
 453 810 469 785 460 755 c 24
 451 725 420 700 392 700 c 24
 364 700 348 725 357 755 c 24
 366 785 397 810 425 810 c 24
EndSplineSet
Refer: 36 76 N 1 0 0 1 0 0 3
Validated: 1
EndChar

StartChar: uni1E38
Encoding: 7736 7736 409
Width: 619
VWidth: 0
Flags: W
HStem: -5 35<12.0182 111.625 232.884 516.445> 622 31<231.494 295.483 409.436 504.821> 700 110<378.26 438.74> 870 54<322.668 589.228>
VStem: 313 288 357 103<721.203 788.797>
LayerCount: 2
Fore
SplineSet
348 924 m 26xf8
 593 924 l 26
 600 924 605 917 601 910 c 24
 589 891 578 870 560 870 c 26
 323 870 l 26
 316 870 311 876 313 882 c 0
 316 891 330 924 348 924 c 26xf8
EndSplineSet
Refer: 407 7734 N 1 0 0 1 0 0 3
Validated: 1
EndChar

StartChar: uni1E3A
Encoding: 7738 7738 411
Width: 619
VWidth: 0
Flags: W
HStem: -5 35<12.0182 111.625 232.884 516.445> 622 31<231.494 295.483 409.436 504.821> 723 54<301.668 568.228>
VStem: 292 288
LayerCount: 2
Fore
SplineSet
327 777 m 26
 572 777 l 26
 579 777 584 770 580 763 c 24
 568 744 557 723 539 723 c 26
 302 723 l 26
 295 723 290 729 292 735 c 0
 295 744 309 777 327 777 c 26
EndSplineSet
Refer: 36 76 N 1 0 0 1 0 0 3
Validated: 1
EndChar

StartChar: uni1E3C
Encoding: 7740 7740 413
Width: 619
VWidth: 0
Flags: W
HStem: -5 35<12.0182 111.625 232.884 516.445> 622 31<231.494 295.483 409.436 504.821> 700 132
LayerCount: 2
Fore
SplineSet
449 763 m 0
 441 770 442 770 430 763 c 0
 401 748 397 744 343 718 c 0
 330 711 301 700 289 700 c 0
 275 700 274 712 288 722 c 2
 416 810 l 2
 439 826 446 832 460 832 c 0
 474 832 478 826 492 810 c 2
 565 722 l 2
 573 712 565 699 551 699 c 0
 539 699 532 707 523 714 c 0
 485 740 469 748 449 763 c 0
EndSplineSet
Refer: 36 76 N 1 0 0 1 0 0 3
Validated: 1
EndChar

StartChar: uni1E40
Encoding: 7744 7744 417
Width: 1004
VWidth: 0
Flags: W
HStem: -14 21<402.5 407> -3 29<-27.3379 57.0534 162.354 215.807 637.461 721.206 885.948 946.749> 622 36<288.205 395.855 1032.98 1136.79> 724 110<729.559 790.039>
VStem: 708.299 103<745.203 812.797>
LayerCount: 2
Fore
SplineSet
776.298828125 834 m 24x38
 804.298828125 834 820.298828125 809 811.298828125 779 c 24
 802.298828125 749 771.298828125 724 743.298828125 724 c 24
 715.298828125 724 699.298828125 749 708.298828125 779 c 24
 717.298828125 809 748.298828125 834 776.298828125 834 c 24x38
EndSplineSet
Refer: 27 77 N 1 0 0 1 0 0 3
Validated: 1
EndChar

StartChar: uni1E44
Encoding: 7748 7748 421
Width: 819
VWidth: 0
Flags: W
HStem: -5 35<18.709 105.045 194.863 280.591> 620 38<148.181 250.623 687 693 855.214 950.99> 724 110<180.059 240.539>
VStem: 158.799 103<745.203 812.797>
LayerCount: 2
Fore
SplineSet
226.798828125 834 m 24
 254.798828125 834 270.798828125 809 261.798828125 779 c 24
 252.798828125 749 221.798828125 724 193.798828125 724 c 24
 165.798828125 724 149.798828125 749 158.798828125 779 c 24
 167.798828125 809 198.798828125 834 226.798828125 834 c 24
EndSplineSet
Refer: 28 78 N 1 0 0 1 0 0 3
Validated: 1
EndChar

StartChar: uni1E46
Encoding: 7750 7750 423
Width: 819
VWidth: 0
Flags: W
HStem: -5 35<18.709 105.045 194.863 280.591> 620 38<148.181 250.623 687 693 855.214 950.99> 700 110<582.26 642.74>
VStem: 561 103<721.203 788.797>
LayerCount: 2
Fore
SplineSet
629 810 m 24
 657 810 673 785 664 755 c 24
 655 725 624 700 596 700 c 24
 568 700 552 725 561 755 c 24
 570 785 601 810 629 810 c 24
EndSplineSet
Refer: 28 78 N 1 0 0 1 0 0 3
Validated: 1
EndChar

StartChar: uni1E48
Encoding: 7752 7752 425
Width: 819
VWidth: 0
Flags: W
HStem: -5 35<18.709 105.045 194.863 280.591> 620 38<148.181 250.623 687 693 855.214 950.99> 723 54<505.668 772.228>
VStem: 496 288
LayerCount: 2
Fore
SplineSet
531 777 m 26
 776 777 l 26
 783 777 788 770 784 763 c 24
 772 744 761 723 743 723 c 26
 506 723 l 26
 499 723 494 729 496 735 c 0
 499 744 513 777 531 777 c 26
EndSplineSet
Refer: 28 78 N 1 0 0 1 0 0 3
Validated: 1
EndChar

StartChar: uni1E4A
Encoding: 7754 7754 427
Width: 819
VWidth: 0
Flags: W
HStem: -5 35<18.709 105.045 194.863 280.591> 620 38<148.181 250.623 687 693 855.214 950.99> 700 132
LayerCount: 2
Fore
SplineSet
653 763 m 0
 645 770 646 770 634 763 c 0
 605 748 601 744 547 718 c 0
 534 711 505 700 493 700 c 0
 479 700 478 712 492 722 c 2
 620 810 l 2
 643 826 650 832 664 832 c 0
 678 832 682 826 696 810 c 2
 769 722 l 2
 777 712 769 699 755 699 c 0
 743 699 736 707 727 714 c 0
 689 740 673 748 653 763 c 0
EndSplineSet
Refer: 28 78 N 1 0 0 1 0 0 3
Validated: 1
EndChar

StartChar: uni1E58
Encoding: 7768 7768 441
Width: 639
VWidth: 0
Flags: W
HStem: -5 29<15.8438 96.063 225.132 280.641 572.394 638.368> 290 28<305.605 355.461> 622 31<186.891 268.787> 630 27<379.162 468.964> 724 110<429.365 489.845>
VStem: 408.105 103<745.203 812.797> 536 83<429.363 575.846>
LayerCount: 2
Fore
SplineSet
476.10546875 834 m 24xce
 504.10546875 834 520.10546875 809 511.10546875 779 c 24
 502.10546875 749 471.10546875 724 443.10546875 724 c 24
 415.10546875 724 399.10546875 749 408.10546875 779 c 24
 417.10546875 809 448.10546875 834 476.10546875 834 c 24xce
EndSplineSet
Refer: 29 82 N 1 0 0 1 0 0 3
Validated: 1
EndChar

StartChar: uni1E5A
Encoding: 7770 7770 443
Width: 639
VWidth: 0
Flags: W
HStem: -177 110<314.26 374.74> -5 29<15.8438 96.063 225.132 280.641 572.394 638.368> 290 28<305.605 355.461> 622 31<186.891 268.787> 630 27<379.162 468.964>
VStem: 293 103<-155.797 -88.203> 536 83<429.363 575.846>
LayerCount: 2
Fore
SplineSet
361 -67 m 24xe6
 389 -67 405 -92 396 -122 c 24
 387 -152 356 -177 328 -177 c 24
 300 -177 284 -152 293 -122 c 24
 302 -92 333 -67 361 -67 c 24xe6
EndSplineSet
Refer: 29 82 N 1 0 0 1 0 0 3
Validated: 1
EndChar

StartChar: uni1E5C
Encoding: 7772 7772 445
Width: 639
VWidth: 0
Flags: W
HStem: -177 110<314.26 374.74> -5 29<15.8438 96.063 225.132 280.641 572.394 638.368> 290 28<305.605 355.461> 622 31<186.891 268.787> 630 27<379.162 468.964> 724 54<398.668 665.228>
VStem: 293 103<-155.797 -88.203> 389 288 536 83<429.363 575.846>
LayerCount: 2
Fore
SplineSet
424 778 m 26xe5
 669 778 l 26
 676 778 681 771 677 764 c 24
 665 745 654 724 636 724 c 26
 399 724 l 26
 392 724 387 730 389 736 c 0
 392 745 406 778 424 778 c 26xe5
EndSplineSet
Refer: 443 7770 N 1 0 0 1 0 0 3
Validated: 1
EndChar

StartChar: uni1E60
Encoding: 7776 7776 449
Width: 464
VWidth: 0
Flags: W
HStem: -14 30<155.901 272.26> 0 21<19 30> 459 21<438 445> 630 29<269.94 382.395> 724 110<346.753 407.233>
VStem: 13 71<23 157> 138 75<443.644 566.63> 325.493 103<745.203 812.797> 339 82<82.0568 191.012> 432 65<493 622>
LayerCount: 2
Fore
SplineSet
393.493164062 834 m 24x3e40
 421.493164062 834 437.493164062 809 428.493164062 779 c 24
 419.493164062 749 388.493164062 724 360.493164062 724 c 24
 332.493164062 724 316.493164062 749 325.493164062 779 c 24
 334.493164062 809 365.493164062 834 393.493164062 834 c 24x3e40
EndSplineSet
Refer: 45 83 N 1 0 0 1 0 0 3
Validated: 1
EndChar

StartChar: uni1E6A
Encoding: 7786 7786 459
Width: 635
VWidth: 0
Flags: W
HStem: -5 27<120.496 198.158 343.086 401.807> 607 35<196.229 388.493 469.995 669.037> 726 110<463.725 524.205>
VStem: 442.465 103<747.203 814.797> 681 25<497.112 565.837>
LayerCount: 2
Fore
SplineSet
510.46484375 836 m 24
 538.46484375 836 554.46484375 811 545.46484375 781 c 24
 536.46484375 751 505.46484375 726 477.46484375 726 c 24
 449.46484375 726 433.46484375 751 442.46484375 781 c 24
 451.46484375 811 482.46484375 836 510.46484375 836 c 24
EndSplineSet
Refer: 34 84 N 1 0 0 1 0 0 3
Validated: 1
EndChar

StartChar: uni1E6E
Encoding: 7790 7790 463
Width: 635
VWidth: 0
Flags: W
HStem: -5 27<120.496 198.158 343.086 401.807> 607 35<196.229 388.493 469.995 669.037> 723 54<456.668 723.228>
VStem: 447 288 681 25<497.112 565.837>
LayerCount: 2
Fore
SplineSet
482 777 m 26xf0
 727 777 l 26
 734 777 739 770 735 763 c 24
 723 744 712 723 694 723 c 26
 457 723 l 26
 450 723 445 729 447 735 c 0
 450 744 464 777 482 777 c 26xf0
EndSplineSet
Refer: 34 84 N 1 0 0 1 0 0 3
Validated: 1
EndChar

StartChar: uni1E70
Encoding: 7792 7792 465
Width: 635
VWidth: 0
Flags: W
HStem: -5 27<120.496 198.158 343.086 401.807> 607 35<196.229 388.493 469.995 669.037> 700 132
VStem: 681 25<497.112 565.837>
LayerCount: 2
Fore
SplineSet
604 763 m 0
 596 770 597 770 585 763 c 0
 556 748 552 744 498 718 c 0
 485 711 456 700 444 700 c 0
 430 700 429 712 443 722 c 2
 571 810 l 2
 594 826 601 832 615 832 c 0
 629 832 633 826 647 810 c 2
 720 722 l 2
 728 712 720 699 706 699 c 0
 694 699 687 707 678 714 c 0
 640 740 624 748 604 763 c 0
EndSplineSet
Refer: 34 84 N 1 0 0 1 0 0 3
Validated: 1
EndChar

StartChar: uni1E76
Encoding: 7798 7798 471
Width: 737
VWidth: 0
Flags: W
HStem: -14 40<287.692 457.017> 620 33<194.681 245.501 355.376 416.649 658.732 696.984 785.167 856.043> 700 132
LayerCount: 2
Fore
SplineSet
646 763 m 0
 638 770 639 770 627 763 c 0
 598 748 594 744 540 718 c 0
 527 711 498 700 486 700 c 0
 472 700 471 712 485 722 c 2
 613 810 l 2
 636 826 643 832 657 832 c 0
 671 832 675 826 689 810 c 2
 762 722 l 2
 770 712 762 699 748 699 c 0
 736 699 729 707 720 714 c 0
 682 740 666 748 646 763 c 0
EndSplineSet
Refer: 48 85 N 1 0 0 1 0 0 3
Validated: 1
EndChar

StartChar: uni1E7C
Encoding: 7804 7804 477
Width: 644
VWidth: 0
Flags: W
HStem: 620 31<117.546 187.476 304.406 374.128 522.633 572.665 686.723 760.4> 749 63<411.99 578.651> 757 63<386.129 555.722>
VStem: 321.356 324
LayerCount: 2
Fore
SplineSet
321.356445312 743 m 0x60
 356.356445312 779 411.356445312 820 425.356445312 820 c 0x60
 448.356445312 820 546.356445312 812 569.356445312 812 c 0
 583.356445312 812 610.356445312 827 633.356445312 849 c 0
 634.356445312 850 635.356445312 850 636.356445312 850 c 0
 642.356445312 850 649.356445312 836 645.356445312 831 c 0
 621.356445312 806 558.356445312 749 544.356445312 749 c 0xa0
 521.356445312 749 419.356445312 757 396.356445312 757 c 0
 382.356445312 757 355.356445312 743 335.356445312 725 c 0
 334.356445312 724 333.356445312 724 332.356445312 724 c 0
 325.356445312 724 316.356445312 738 321.356445312 743 c 0x60
EndSplineSet
Refer: 37 86 N 1 0 0 1 0 0 3
Validated: 1
EndChar

StartChar: uni1E7E
Encoding: 7806 7806 479
Width: 644
VWidth: 0
Flags: W
HStem: 620 31<117.546 187.476 304.406 374.128 522.633 572.665 686.723 760.4> 700 110<518.26 578.74>
VStem: 497 103<721.203 788.797>
LayerCount: 2
Fore
SplineSet
565 810 m 24
 593 810 609 785 600 755 c 24
 591 725 560 700 532 700 c 24
 504 700 488 725 497 755 c 24
 506 785 537 810 565 810 c 24
EndSplineSet
Refer: 37 86 N 1 0 0 1 0 0 3
Validated: 1
EndChar

StartChar: Wdieresis
Encoding: 7812 7812 485
Width: 976
VWidth: 0
Flags: W
HStem: 620 36<84.3975 158.098 268.913 343.625 454.397 527.823 649.703 730.294 860.17 912.796 1019.19 1100.29> 724 110<515.671 576.151 692.671 752.151>
VStem: 494.411 103<745.203 812.797> 671.411 102<745.203 812.797>
LayerCount: 2
Fore
SplineSet
739.411132812 834 m 24
 767.411132812 834 782.411132812 809 773.411132812 779 c 24
 764.411132812 749 733.411132812 724 705.411132812 724 c 24
 677.411132812 724 662.411132812 749 671.411132812 779 c 24
 680.411132812 809 711.411132812 834 739.411132812 834 c 24
562.411132812 834 m 24
 590.411132812 834 606.411132812 809 597.411132812 779 c 24
 588.411132812 749 557.411132812 724 529.411132812 724 c 24
 501.411132812 724 485.411132812 749 494.411132812 779 c 24
 503.411132812 809 534.411132812 834 562.411132812 834 c 24
EndSplineSet
Refer: 38 87 N 1 0 0 1 0 0 3
Validated: 1
EndChar

StartChar: uni1E86
Encoding: 7814 7814 487
Width: 976
VWidth: 0
Flags: W
HStem: 620 36<84.3975 158.098 268.913 343.625 454.397 527.823 649.703 730.294 860.17 912.796 1019.19 1100.29> 724 110<603.671 664.151>
VStem: 582.411 103<745.203 812.797>
LayerCount: 2
Fore
SplineSet
650.411132812 834 m 24
 678.411132812 834 694.411132812 809 685.411132812 779 c 24
 676.411132812 749 645.411132812 724 617.411132812 724 c 24
 589.411132812 724 573.411132812 749 582.411132812 779 c 24
 591.411132812 809 622.411132812 834 650.411132812 834 c 24
EndSplineSet
Refer: 38 87 N 1 0 0 1 0 0 3
Validated: 1
EndChar

StartChar: uni1E88
Encoding: 7816 7816 489
Width: 976
VWidth: 0
Flags: W
HStem: 620 36<84.3975 158.098 268.913 343.625 454.397 527.823 649.703 730.294 860.17 912.796 1019.19 1100.29> 701 110<689.26 749.74>
VStem: 668 103<722.203 789.797>
LayerCount: 2
Fore
SplineSet
736 811 m 24
 764 811 780 786 771 756 c 24
 762 726 731 701 703 701 c 24
 675 701 659 726 668 756 c 24
 677 786 708 811 736 811 c 24
EndSplineSet
Refer: 38 87 N 1 0 0 1 0 0 3
Validated: 1
EndChar

StartChar: uni1EAC
Encoding: 7852 7852 516
Width: 772
VWidth: 0
Flags: W
HStem: -177 110<260.26 320.74> -5 36<17.8519 96.2793 218.75 264.899 429.027 521.115 647.592 701.899> 737 132
VStem: 239 103<-155.797 -88.2026>
LayerCount: 2
Fore
SplineSet
849.180664062 800 m 0
 841.180664062 807 842.180664062 807 830.180664062 800 c 0
 801.180664062 785 797.180664062 781 743.180664062 755 c 0
 730.180664062 748 701.180664062 737 689.180664062 737 c 0
 675.180664062 737 674.180664062 749 688.180664062 759 c 2
 816.180664062 847 l 2
 839.180664062 863 846.180664062 869 860.180664062 869 c 0
 874.180664062 869 878.180664062 863 892.180664062 847 c 2
 965.180664062 759 l 2
 973.180664062 749 965.180664062 736 951.180664062 736 c 0
 939.180664062 736 932.180664062 744 923.180664062 751 c 0
 885.180664062 777 869.180664062 785 849.180664062 800 c 0
EndSplineSet
Refer: 508 7840 N 1 0 0 1 0 0 3
Validated: 1
EndChar

StartChar: uni1EB6
Encoding: 7862 7862 524
Width: 772
VWidth: 0
Flags: W
HStem: -177 110<260.26 320.74> -5 36<17.8519 96.2793 218.75 264.899 429.027 521.115 647.592 701.899> 736 70<775.335 897.722>
VStem: 239 103<-155.797 -88.2026> 969.895 29<853.993 884.004>
LayerCount: 2
Fore
SplineSet
749.89453125 869 m 0
 753.89453125 847 775.89453125 806 840.89453125 806 c 0
 905.89453125 806 951.89453125 847 969.89453125 869 c 0
 976.89453125 878 987.89453125 890 996.89453125 890 c 0
 1005.89453125 890 1002.89453125 879 998.89453125 866 c 0
 978.89453125 802 893.89453125 736 819.89453125 736 c 0
 745.89453125 736 696.89453125 791 719.89453125 866 c 0
 723.89453125 879 726.89453125 890 735.89453125 890 c 0
 744.89453125 890 747.89453125 878 749.89453125 869 c 0
EndSplineSet
Refer: 508 7840 N 1 0 0 1 0 0 3
Validated: 1
EndChar

StartChar: uni1EC4
Encoding: 7876 7876 534
Width: 621
VWidth: 0
Flags: HW
HStem: -5 35<8.01822 107.75 228.884 496.445> 322 27<307.177 478.603> 388 20<556.5 561.5> 618 32<218.007 283.946 386.483 609.242> 725 132 942 63<693.784 860.445> 950 63<667.922 837.516>
VStem: 492 28<252.052 308.246> 603.15 324 618 55<568.25 613.321>
LayerCount: 2
Fore
SplineSet
603.150390625 936 m 0x60
 638.150390625 972 693.150390625 1013 707.150390625 1013 c 0x60
 730.150390625 1013 828.150390625 1005 851.150390625 1005 c 0
 865.150390625 1005 892.150390625 1020 915.150390625 1042 c 0
 916.150390625 1043 917.150390625 1043 918.150390625 1043 c 0
 924.150390625 1043 931.150390625 1029 927.150390625 1024 c 0
 903.150390625 999 840.150390625 942 826.150390625 942 c 0xa0
 803.150390625 942 701.150390625 950 678.150390625 950 c 0
 664.150390625 950 637.150390625 936 617.150390625 918 c 0
 616.150390625 917 615.150390625 917 614.150390625 917 c 0
 607.150390625 917 598.150390625 931 603.150390625 936 c 0x60
EndSplineSet
Refer: 139 202 N 1 0 0 1 0 0 3
EndChar

StartChar: uni1ED8
Encoding: 7896 7896 548
Width: 712
VWidth: 0
Flags: W
HStem: -192 101<298.302 359.595> -14 35<264.006 414.248> 628 36<391.576 555.605>
VStem: 89 82<128.393 340.569> 279 100<-172.518 -110.482> 642 82<325.945 533.828>
LayerCount: 2
Fore
SplineSet
532.180664062 788 m 0
 524.180664062 795 525.180664062 795 513.180664062 788 c 0
 484.180664062 773 480.180664062 769 426.180664062 743 c 0
 413.180664062 736 384.180664062 725 372.180664062 725 c 0
 358.180664062 725 357.180664062 737 371.180664062 747 c 2
 499.180664062 835 l 2
 522.180664062 851 529.180664062 857 543.180664062 857 c 0
 557.180664062 857 561.180664062 851 575.180664062 835 c 2
 648.180664062 747 l 2
 656.180664062 737 648.180664062 724 634.180664062 724 c 0
 622.180664062 724 615.180664062 732 606.180664062 739 c 0
 568.180664062 765 552.180664062 773 532.180664062 788 c 0
EndSplineSet
Refer: 540 7884 N 1 0 0 1 0 0 3
Validated: 1
EndChar

StartChar: uni1EE2
Encoding: 7906 7906 556
Width: 726
VWidth: 0
Flags: W
HStem: -184 110<304.26 364.74> -14 39<308.088 467.934> 625 39<454.027 626.048>
VStem: 283 103<-162.797 -95.203>
LayerCount: 2
Fore
SplineSet
351 -74 m 24
 379 -74 395 -99 386 -129 c 24
 377 -159 346 -184 318 -184 c 24
 290 -184 274 -159 283 -129 c 24
 292 -99 323 -74 351 -74 c 24
EndSplineSet
Refer: 288 416 N 1 0 0 1 0 0 3
Validated: 1
EndChar

StartChar: uni1EF8
Encoding: 7928 7928 564
Width: 595
VWidth: 0
Flags: W
HStem: -5 29<87.8438 164.653 310.55 368.641> 620 33<123.308 190.385 295.351 366.821 488.633 544.872 642.804 714.896> 749 63<395.408 562.069> 757 63<369.546 539.14>
VStem: 304.774 324
LayerCount: 2
Fore
SplineSet
304.774414062 743 m 0x60
 339.774414062 779 394.774414062 820 408.774414062 820 c 0x60
 431.774414062 820 529.774414062 812 552.774414062 812 c 0
 566.774414062 812 593.774414062 827 616.774414062 849 c 0
 617.774414062 850 618.774414062 850 619.774414062 850 c 0
 625.774414062 850 632.774414062 836 628.774414062 831 c 0
 604.774414062 806 541.774414062 749 527.774414062 749 c 0xa0
 504.774414062 749 402.774414062 757 379.774414062 757 c 0
 365.774414062 757 338.774414062 743 318.774414062 725 c 0
 317.774414062 724 316.774414062 724 315.774414062 724 c 0
 308.774414062 724 299.774414062 738 304.774414062 743 c 0x60
EndSplineSet
Refer: 49 89 N 1 0 0 1 0 0 3
Validated: 1
EndChar

StartChar: uni1FB8
Encoding: 8120 8120 737
Width: 772
VWidth: 0
Flags: W
HStem: -5 36<17.8519 96.2793 218.75 264.899 429.027 521.115 647.592 701.899> 730 70<578.441 700.827>
VStem: 773 29<847.993 878.004>
LayerCount: 2
Fore
SplineSet
553 863 m 0
 557 841 579 800 644 800 c 0
 709 800 755 841 773 863 c 0
 780 872 791 884 800 884 c 0
 809 884 806 873 802 860 c 0
 782 796 697 730 623 730 c 0
 549 730 500 785 523 860 c 0
 527 873 530 884 539 884 c 0
 548 884 551 872 553 863 c 0
EndSplineSet
Refer: 632 913 N 1 0 0 1 0 0 3
Validated: 1
EndChar

StartChar: quoteleft
Encoding: 8216 8216 59
Width: 238
VWidth: 0
Flags: W
HStem: 665 25<297.9 340.656>
VStem: 162 60<508.999 592.888>
LayerCount: 2
Back
SplineSet
278 514 m 4
 304 511 316 494 309 472 c 4
 301 445 271 426 244 426 c 4
 199 426 179 467 196 523 c 4
 227 624 331 688 379 690 c 4
 380 690 380 690 381 690 c 4
 402 690 398 671 378 667 c 4
 335 658 276 628 255 558 c 4
 250 542 258 516 278 514 c 4
EndSplineSet
Fore
Refer: 60 8217 N -1 0 0 -1 489 1131 2
Validated: 1
EndChar

StartChar: quotedblleft
Encoding: 8220 8220 57
Width: 399
VWidth: 0
Flags: W
HStem: 665 25<297.9 340.656 458.9 501.656>
VStem: 162 60<508.999 592.888> 323 60<508.999 592.888>
LayerCount: 2
Back
SplineSet
278 514 m 4
 304 511 316 494 309 472 c 4
 301 445 271 426 244 426 c 4
 199 426 179 467 196 523 c 4
 227 624 331 688 379 690 c 4
 380 690 380 690 381 690 c 4
 402 690 398 671 378 667 c 4
 335 658 276 628 255 558 c 4
 250 542 258 516 278 514 c 4
444 514 m 4
 470 511 482 494 475 472 c 4
 467 445 436 426 409 426 c 4
 364 426 345 467 362 523 c 4
 393 624 497 688 545 690 c 4
 546 690 546 690 547 690 c 4
 568 690 564 671 544 667 c 4
 501 658 442 628 421 558 c 4
 416 542 424 516 444 514 c 4
EndSplineSet
Fore
Refer: 59 8216 N 1 0 0 1 161 0 2
Refer: 59 8216 N 1 0 0 1 0 0 2
Validated: 1
EndChar

StartChar: bullet
Encoding: 8226 8226 1951
Width: 286
VWidth: 0
Flags: W
HStem: 250 220<219.426 287.574>
LayerCount: 2
Fore
SplineSet
287 470 m 24
 343 470 375 421 356 360 c 24
 337 299 276 250 220 250 c 24
 164 250 132 299 151 360 c 24
 170 421 231 470 287 470 c 24
EndSplineSet
Validated: 33
EndChar

StartChar: guilsinglleft
Encoding: 8249 8249 119
Width: 427
VWidth: 0
Flags: W
LayerCount: 2
Fore
SplineSet
250 200 m 0
 240.821050946 194.277383796 244.145507812 190.142578125 250 184 c 0
 284.314453125 148 340.314453125 89 367 42 c 0
 372.155273438 32.9208984375 371 19 364 19 c 0
 352.866210938 19 337.455078125 32.6142578125 333 37 c 0
 289.314453125 80 191.314453125 155 145 181 c 0
 139.252929688 184.2265625 134.252929688 187.849609375 134.252929688 196.336914062 c 0
 134.252929688 202.869140625 141.009765625 206.96875 145 209 c 0
 237.314453125 256 367.314453125 324 439 371 c 0
 445.986328125 375.580078125 454.26171875 381 467 381 c 0
 473 381 470.151367188 365.829101562 460 357 c 0
 393.314453125 299 300.525299072 231.5 250 200 c 0
EndSplineSet
Validated: 1
EndChar

StartChar: uni2075
Encoding: 8309 8309 800
Width: 276
VWidth: 0
Flags: W
HStem: 430 25<189.666 266.607> 721 54<309.196 424.921>
VStem: 188 250
LayerCount: 2
Fore
SplineSet
403 567 m 0
 385 509 343 477 303 457 c 0
 279 445 238 430 199 430 c 16
 190 430 187 435 188 439 c 0
 190 445 197 455 211 455 c 0
 263 455 319 475 341 547 c 0
 360 609 284 617 254 629 c 0
 246 632 244 644 246 650 c 0
 254 674 284 721 295 737 c 0
 303 749 312 758 326 761 c 0
 365 770 396 775 438 775 c 0
 442 775 442 770 440 765 c 0
 439 761 418 727 400 726 c 1
 367 722 341 724 321 721 c 0
 318 721 308 719 303 711 c 1
 297 704 294 700 292 693 c 0
 291 689 294 683 301 681 c 0
 362 661 429 653 403 567 c 0
EndSplineSet
Validated: 33
EndChar

StartChar: uni207F
Encoding: 8319 8319 809
Width: 308
VWidth: 0
Flags: W
HStem: 273 24<89.1035 130.828> 482 42<277.898 371.5>
LayerCount: 2
Fore
SplineSet
366 324 m 2
 361 307 371 300 382 297 c 1
 388 294 394 289 392 283 c 0
 390 277 378 273 375 273 c 2
 275 273 l 2
 272 273 262 277 264 283 c 0
 266 289 275 294 282 297 c 1
 295 300 311 307 316 324 c 2
 347 426 l 2
 358 461 340 482 307 482 c 0
 287 482 274 480 255 468 c 0
 245 462 230 449 222 424 c 2
 191 324 l 18
 187 310 194 300 205 297 c 1
 212 294 217 289 215 283 c 0
 213 277 202 273 198 273 c 2
 99 273 l 2
 96 273 86 277 88 283 c 0
 90 289 100 294 107 297 c 1
 120 300 137 309 141 324 c 10
 177 441 l 2
 184 463 183 480 164 485 c 8
 159 486 162 499 168 500 c 16
 202 507 232 522 248 533 c 1
 250 533 l 0
 254 533 260 530 259 528 c 0
 257 521 240 488 242 484 c 1
 264 498 314 524 352 524 c 0
 391 524 419 499 405 452 c 2
 366 324 l 2
EndSplineSet
Validated: 33
EndChar

StartChar: Euro
Encoding: 8364 8364 1037
Width: 618
VWidth: 0
Flags: W
HStem: -15 40<306.015 470.558> 252 39<61.3064 129 228 329> 256 44<295.333 533.559> 356 39<122.669 158 263 395> 361 44<362 595.559> 624 39<474.441 648.24>
VStem: 698 24<472.906 537.322>
LayerCount: 2
Fore
SplineSet
585 663 m 0xc6
 615 663 664 657 679 651 c 0
 694 645 731 638 745 633 c 0
 752 631 751 617 748 603 c 0
 742 572 737 546 722 494 c 0
 720 485 713 470 704 471 c 0
 694 472 695 479 698 502 c 1
 706 542 689 570 681 581 c 0
 675 591 636 624 550 624 c 0
 433 624 321 518 263 395 c 1xd6
 593 405 l 2
 600 405 606 398 601 391 c 0
 591 375 579 361 563 361 c 2x8e
 246 356 l 1
 244 349 240 341 238 334 c 0
 234 320 230 305 228 291 c 1xd6
 531 300 l 2
 538 300 544 293 539 286 c 0
 529 270 517 256 501 256 c 2xa6
 223 252 l 1
 211 128 264 25 383 25 c 0
 419 25 467 40 510 62 c 0
 553 85 577 119 587 137 c 0
 594 149 610 152 616 156 c 0
 617 157 618 157 619 157 c 0
 624 157 621 140 616 130 c 0
 605 105 567 50 546 27 c 0
 539 19 527 16 501 5 c 0
 464 -11 395 -15 339 -15 c 0
 193 -15 108 100 129 250 c 1
 65 249 l 2
 58 249 53 255 55 261 c 0
 58 270 72 287 85 287 c 2
 136 288 l 1
 138 296 140 303 142 310 c 0
 147 325 152 340 158 355 c 1
 126 354 l 2
 119 354 115 360 117 366 c 0
 120 375 134 392 147 392 c 2
 176 393 l 1
 260 549 429 663 585 663 c 0xc6
EndSplineSet
Validated: 33
EndChar

StartChar: arrowleft
Encoding: 8592 8592 2032
Width: 1000
Flags: W
HStem: 269 46<194 945.583>
LayerCount: 2
Fore
SplineSet
289 123 m 0
 296 105 263 112 253 123 c 0
 196 182 139 239 62 279 c 0
 53 284 50 286 50 292 c 0
 50 298 50 299 63 305 c 0
 140 345 197 402 254 461 c 0
 264 472 297 479 290 461 c 0
 266 399 228 351 194 315 c 1
 937 315 l 2
 944 315 953 308 950 301 c 0
 944 285 936 269 919 269 c 2
 194 269 l 1
 227 235 265 185 289 123 c 0
EndSplineSet
Validated: 33
EndChar

StartChar: arrowboth
Encoding: 8596 8596 2036
Width: 1000
Flags: W
HStem: 269 46<194 806>
LayerCount: 2
Fore
SplineSet
194 269 m 1
 227 235 265 185 289 123 c 0
 296 105 263 112 253 123 c 0
 196 182 139 239 62 279 c 0
 53 284 50 286 50 292 c 0
 50 298 50 299 63 305 c 0
 140 345 197 402 254 461 c 0
 264 472 297 479 290 461 c 0
 266 399 228 351 194 315 c 1
 806 315 l 1
 773 349 735 399 711 461 c 0
 704 479 737 472 747 461 c 0
 804 402 861 345 938 305 c 0
 947 300 950 298 950 292 c 0
 950 286 950 285 937 279 c 0
 860 239 803 182 746 123 c 0
 736 112 703 105 710 123 c 0
 734 185 772 233 806 269 c 1
 194 269 l 1
EndSplineSet
Validated: 33
EndChar

StartChar: arrowupdn
Encoding: 8597 8597 2053
Width: 438
Flags: W
HStem: -179 21G<216 222> 641 20G<216 222>
VStem: 196 46<-35 517>
LayerCount: 2
Fore
SplineSet
242 -35 m 1
 278 -1 326 37 388 61 c 0
 406 68 399 35 388 25 c 0
 329 -32 272 -89 232 -166 c 0
 226 -179 225 -179 219 -179 c 0
 213 -179 211 -176 206 -167 c 0
 166 -90 109 -33 50 24 c 0
 39 34 32 67 50 60 c 0
 112 36 162 -2 196 -35 c 1
 196 517 l 1
 160 483 112 445 50 421 c 0
 32 414 39 447 50 457 c 0
 109 514 166 571 206 648 c 0
 212 661 213 661 219 661 c 0
 225 661 227 658 232 649 c 0
 272 572 329 515 388 458 c 0
 399 448 406 415 388 422 c 0
 326 446 276 484 242 517 c 1
 242 -35 l 1
EndSplineSet
Validated: 33
EndChar

StartChar: openbullet
Encoding: 9702 9702 1952
Width: 286
VWidth: 0
Flags: W
HStem: 250 35<191.26 278.511> 435 35<226.934 314.354>
LayerCount: 2
Fore
SplineSet
276 435 m 24
 238 435 197 401 184 360 c 24
 171 319 192 285 230 285 c 24
 268 285 310 319 323 360 c 24
 336 401 314 435 276 435 c 24
287 470 m 24
 343 470 375 421 356 360 c 24
 337 299 276 250 220 250 c 24
 164 250 132 299 151 360 c 24
 170 421 231 470 287 470 c 24
EndSplineSet
Validated: 33
EndChar

StartChar: uni261E
Encoding: 9758 9758 1199
Width: 1088
Flags: W
HStem: -10 54<530.299 632.741> -0 71<458.047 481.717> 8 59<461.329 482.899> 23 37<96.8443 121.464 336.887 425.766> 177 11<634.094 662.702> 196 33<553.565 583.953> 273 37<300.081 396.065> 280 30<325.654 460.193> 437 66<499.823 568.533> 445 34<206.234 248.045> 462 60<111.012 148.844> 466 28<797.589 991.314> 477 41<615.194 669.879> 477 13<581.665 613.059> 478 25<734.107 965.925> 549 60<395.676 553.929> 567 37<694.297 953.051> 572 20<562.457 670.222>
VStem: 48 52<61.5096 334.632> 160 36<150.391 441.763> 474 46<70.3289 117.944>
LayerCount: 2
Fore
SplineSet
528 118 m 0x8c0038
 518 117 521 104 520 94 c 0
 519 85 517 77 524 70 c 0
 532 62 541 64 552 60 c 0x1c0038
 567 55 585 44 601 44 c 0
 609 44 617 46 624 54 c 0
 632 62 640 74 632 82 c 0
 616 98 599 95 578 102 c 0
 561 108 551 118 534 118 c 0
 532 118 530 118 528 118 c 0x8c0038
564 196 m 0
 550 195 541 187 534 174 c 0
 511 134 570 130 592 124 c 0
 612 119 625 111 644 111 c 0
 647 111 651 112 654 112 c 0
 670 114 686 120 688 136 c 0
 690 153 677 163 662 172 c 0
 655 176 649 177 642 177 c 0
 637 177 633 176 628 176 c 0
 624 176 619 177 614 178 c 0
 595 183 585 196 566 196 c 0
 565 196 565 196 564 196 c 0
572 284 m 0
 561 283 562 270 558 260 c 0
 554 249 543 238 552 231 c 0
 554 229 555 229 557 229 c 0
 564 229 572 238 581 238 c 0
 582 238 583 238 584 238 c 0
 591 236 585 225 590 220 c 0
 601 208 608 200 624 196 c 0
 635 193 657 188 676 188 c 0
 696 188 712 194 706 214 c 0
 697 246 658 255 628 266 c 0
 608 273 597 284 577 284 c 0
 575 284 574 284 572 284 c 0
570 456 m 0
 569 439 590 436 606 430 c 0
 641 416 662 409 700 406 c 0
 708 405 719 412 716 420 c 0
 708 437 695 439 680 450 c 0
 668 458 661 463 648 468 c 0
 636 472 627 477 616 477 c 0x0c0838
 614 477 611 476 608 476 c 0
 591 473 571 473 570 456 c 0
206 442 m 0
 197 437 196 428 196 418 c 0
 196 357 207 323 206 262 c 0
 205 218 193 194 192 150 c 0
 191 116 223 112 256 112 c 0
 262 112 266 117 272 114 c 0
 286 108 290 97 304 90 c 0
 323 81 335 79 356 74 c 0
 371 70 379 71 394 68 c 0
 405 66 412 60 423 60 c 0
 424 60 l 0x1c4138
 438 60 444 68 458 70 c 0
 459 70 460 71 461 71 c 0x4c0038
 468 71 476 67 482 67 c 0
 485 67 488 68 490 72 c 0
 496 85 474 90 474 104 c 0
 474 121 488 127 492 144 c 0
 496 159 489 169 494 184 c 0
 501 205 514 213 522 234 c 0
 526 244 524 251 522 262 c 0
 520 277 516 306 497 306 c 0
 496 306 l 0
 486 305 482 298 472 294 c 0
 459 289 452 286 438 284 c 0
 410 280 394 282 366 280 c 0x2d0038
 350 279 339 273 325 273 c 0
 322 273 319 274 316 274 c 0
 307 275 300 281 300 290 c 0
 300 299 307 307 316 308 c 0
 324 309 332 310 339 310 c 0x0e0038
 360 310 377 306 397 306 c 0
 405 306 413 307 422 308 c 0
 445 312 455 323 476 334 c 0
 488 340 496 350 506 358 c 0
 509 360 510 365 514 364 c 0
 519 363 519 357 524 354 c 0
 555 333 574 323 606 302 c 0
 620 293 625 285 640 278 c 0
 657 270 667 265 686 264 c 0
 692 264 690 274 696 276 c 0
 712 282 725 275 740 284 c 0
 750 290 750 299 754 310 c 0
 757 320 765 330 758 338 c 0
 745 353 730 351 712 360 c 0
 696 368 688 374 672 380 c 0
 644 390 626 392 598 402 c 0
 565 414 549 430 514 436 c 0
 512 436 510 437 508 437 c 0
 493 437 484 427 468 424 c 0
 462 423 457 420 452 424 c 0
 448 428 448 434 452 438 c 0
 470 458 481 469 504 484 c 0
 520 495 531 501 550 502 c 0
 551 502 551 503 552 503 c 0x0d8038
 567 503 576 490 591 490 c 0
 592 490 593 490 594 490 c 0x0c0438
 615 493 624 506 644 514 c 0
 650 517 654 520 661 518 c 0x0c0838
 668 516 669 507 676 506 c 0
 698 503 716 503 734 503 c 0
 741 503 747 503 754 503 c 0x0c0238
 766 503 778 503 792 502 c 0
 828 500 849 494 884 494 c 0
 886 494 888 494 890 494 c 0
 928 495 951 496 988 506 c 0
 1001 510 1003 541 992 548 c 0
 972 560 957 561 934 564 c 0
 919 566 909 567 897 567 c 0x0c10b8
 889 567 881 567 872 566 c 0
 837 563 819 554 784 552 c 0
 774 551 770 558 760 558 c 0
 759 558 759 558 758 558 c 0
 746 558 738 554 726 554 c 0
 725 554 723 554 722 554 c 0
 694 556 678 561 650 566 c 0
 639 568 633 572 622 572 c 0
 617 572 612 572 607 572 c 0x0c0078
 572 572 548 572 510 566 c 0
 495 564 489 553 474 550 c 0
 468 549 463 549 458 549 c 0
 446 549 435 551 424 551 c 0
 416 551 407 550 398 546 c 0
 348 526 325 503 280 474 c 0
 266 465 261 455 246 448 c 0
 241 446 236 445 232 445 c 0x0c4138
 228 445 225 446 221 446 c 0
 216 446 211 445 206 442 c 0
138 458 m 0
 136 461 133 462 131 462 c 0x1c2038
 120 462 108 437 104 422 c 0
 87 362 88 326 82 264 c 0
 79 236 79 220 82 192 c 0
 86 163 95 147 100 118 c 0
 104 96 91 78 106 62 c 0
 107 60 109 60 110 60 c 0
 117 60 121 80 127 90 c 0
 136 106 141 115 146 132 c 0
 153 159 156 174 158 202 c 0
 162 260 165 294 160 352 c 0
 157 394 164 425 138 458 c 0
64 472 m 1
 74 503 101 509 132 520 c 0
 135 521 138 522 141 522 c 0x1c2038
 151 522 161 515 172 510 c 0
 191 501 195 483 216 480 c 0
 217 480 218 479 219 479 c 0
 233 479 241 492 254 500 c 0
 318 538 349 567 416 598 c 0
 435 607 450 609 468 609 c 0x0c4138
 475 609 483 608 492 608 c 0
 561 606 599 593 668 592 c 0
 670 592 673 592 675 592 c 0x0c0078
 733 592 771 604 822 604 c 0
 834 604 846 604 860 602 c 0
 934 593 980 585 1044 546 c 0
 1063 534 1058 507 1046 488 c 0
 1036 471 1018 470 998 468 c 0
 987 467 976 466 967 466 c 0x0c10b8
 944 466 926 469 898 470 c 0
 857 471 830 478 796 478 c 0
 786 478 776 477 764 476 c 0
 746 474 729 468 724 450 c 0
 720 437 743 439 750 428 c 0
 759 413 753 399 764 386 c 0
 777 371 798 377 808 360 c 0
 819 343 821 326 812 308 c 0
 792 264 762 250 738 208 c 0
 732 198 741 189 736 178 c 0
 731 168 716 169 714 158 c 0
 709 135 724 121 720 98 c 0
 717 81 704 76 698 60 c 0x1c0238
 695 53 703 47 698 42 c 0
 679 22 668 8 642 -0 c 0x4c0038
 616 -8 597 -10 575 -10 c 0x8c0038
 561 -10 547 -9 530 -8 c 0
 518 -7 516 7 504 8 c 0
 503 8 501 8 500 8 c 0x2c0038
 487 8 478 0 465 -0 c 0
 463 0 462 0 460 -0 c 0x4c0038
 444 3 442 19 426 22 c 0
 421 23 416 23 412 23 c 0
 396 23 383 18 367 18 c 0
 362 18 357 19 352 20 c 0
 285 34 252 58 186 74 c 0
 182 75 179 75 176 75 c 0
 139 75 122 23 98 23 c 0
 95 23 92 24 88 26 c 0
 51 49 57 89 50 132 c 0
 41 187 46 219 48 274 c 0
 51 351 39 399 64 472 c 1
EndSplineSet
Validated: 33
EndChar

StartChar: uniFB06
Encoding: 64262 64262 965
Width: 579
Flags: W
HStem: -14 73<330.346 427.5> -14 48<22 130.035> 358 40<367 417.133> 360 38<351.854 407 502.868 613.906> 610 45<359.978 510.394> 628.604 77.3957<574.156 614.607> 629 49<246.419 439.598>
VStem: 105 57<248.66 339.374> 161 64<65.1854 184.928> 165 42<465.786 596.047>
AnchorPoint: "below_accent" 167 -100 basechar 0
AnchorPoint: "cedilla" 114 8 basechar 0
LayerCount: 2
Back
SplineSet
589 674 m 16
 569.380228137 614 l 2
 503 411 l 2
 500.051757812 401.983398438 505 400 516 400 c 0
 543 400 573 395 591 392 c 0
 612 388 614 384 614 377 c 0
 614 374 610 366 595 365 c 0
 585 364 525 362 509 362 c 0
 497 362 481 357 478 348 c 2
 396 99 l 2
 390 80 395 59 414 59 c 0xa0
 441 59 460 76 482 93 c 0
 498 105 510 106 510 98 c 0
 510 89 505 79 493 68 c 0
 445 23 374 -14 346 -14 c 0
 325 -14 313 -5 313 23 c 0
 313 35 315 42 327 79 c 2
 417 346 l 2
 420 355 413 358 407 358 c 2
 367 360 l 2
 350 361 349 369 349 374 c 0
 349 377 365 398 383 398 c 0
 393 398 397 398 419 398 c 0
 433 398 438 400 443 416 c 2
 527 661 l 2
 538 683 564 706 589 706 c 0
 608 706 625 689.817633719 625 672 c 0
 625 625 503 610 438 610 c 0x0880
 400 610 377 629 315 629 c 8
 262.115234375 629 207 599.884765625 207 547 c 16
 207 480 229.745361328 440.100006104 247.745117188 417.099609375 c 0
 255.780798957 406.831477399 263.995117188 393.799804688 260.745117188 378.099609375 c 24
 259.098795341 370.147427288 247.407226562 379.885742188 241.099609375 385 c 24
 228.626071157 395.11339792 217.430886294 409.65718175 214 416 c 0x0480
 202.100006104 438 165 486.725585938 165 538 c 16
 165 616 247.711914062 678 333 678 c 16x0480
 408 678 410.896484375 655 462 655 c 16
 490 655 505.44140625 658.876953125 533 663 c 24
 555.012655932 666.29323199 589 674 589 674 c 16
238 414 m 0x52
 269 414 289 388 289 377 c 0
 289 365 273 335 261 335 c 0
 246 335 238 368 202 368 c 0
 180 368 162 348 162 319 c 0x52
 162 302 179 254 195 227 c 0
 211 200 225 153 225 123 c 0
 225 44 119 -14 39 -14 c 0
 5 -14 -15 10 -15 30 c 0
 -15 45 3 76 13 76 c 0
 29 76 47 34 104 34 c 0
 138 34 160 62 161 94 c 0x51
 162 132 151 164 137 190 c 0
 118 225 105 255 105 275 c 0
 105 355 201 414 238 414 c 0x52
EndSplineSet
Fore
SplineSet
217.780077659 410.109323909 m 5x43
 216.124120661 412.435897017 214.833136194 414.459747423 214 416 c 4
 202.100006104 438 165 486.725585938 165 538 c 4
 165 616 247.711914062 678 333 678 c 4x4340
 408 678 410.896484375 655 462 655 c 4x0940
 488.118189906 655 503.309124259 658.373344054 527.600270938 662.173137752 c 5
 538.923334977 683.809818885 564.444062725 706.000000098 589 706 c 4
 608 706 625 689.817633719 625 672 c 4
 625 652.360991833 603.698841875 638.309172682 574.155771822 628.604278943 c 5
 569.380228137 614 l 5
 503 411 l 2
 500.051757812 401.983398438 505 400 516 400 c 0
 543 400 573 395 591 392 c 0
 612 388 614 384 614 377 c 0
 614 374 610 366 595 365 c 0
 585 364 525 362 509 362 c 0
 497 362 481 357 478 348 c 2
 396 99 l 2
 390 80 395 59 414 59 c 0
 441 59 460 76 482 93 c 0
 498 105 510 106 510 98 c 0
 510 89 505 79 493 68 c 0
 445 23 374 -14 346 -14 c 0
 325 -14 313 -5 313 23 c 0
 313 35 315 42 327 79 c 2
 417 346 l 2
 420 355 413 358 407 358 c 2xa540
 367 360 l 2x1140
 350 361 349 369 349 374 c 0
 349 377 365 398 383 398 c 0x2140
 393 398 397 398 419 398 c 0
 433 398 438 400 443 416 c 2
 511.248116032 615.057005093 l 5
 484.90560302 611.505488259 458.592373819 610 438 610 c 4x1940
 400 610 377 629 315 629 c 4
 262.115234375 629 207 599.884765625 207 547 c 4
 207 480 229.745361328 440.100006104 247.745117188 417.099609375 c 4
 248.935423303 415.578615807 250.12964902 413.996985235 251.289952607 412.355026483 c 5
 274.596494029 406.472520869 289 386.334945696 289 377 c 4
 289 365 273 335 261 335 c 4
 246 335 238 368 202 368 c 4
 180 368 162 348 162 319 c 4x0340
 162 302 179 254 195 227 c 4
 211 200 225 153 225 123 c 4
 225 44 119 -14 39 -14 c 4
 5 -14 -15 10 -15 30 c 4
 -15 45 3 76 13 76 c 4
 29 76 47 34 104 34 c 4
 138 34 160 62 161 94 c 4x4280
 162 132 151 164 137 190 c 4
 118 225 105 255 105 275 c 4
 105 342.942466167 174.242680633 395.738095946 217.780077659 410.109323909 c 5x43
EndSplineSet
Validated: 33
Ligature2: "'dlig' optionale Ligaturen lookup 42 subtable" s t
LCarets2: 1 284 
EndChar

StartChar: A.sw
Encoding: 66374 -1 2063
Width: 1066
VWidth: 0
Flags: W
HStem: -32 56<151.162 360.618> 0 24<640.57 737.438 922.468 996.566>
VStem: 0 105<139.042 214.957>
LayerCount: 2
Back
SplineSet
217 132 m 2xbc
 652 564 l 2
 705 617 748 676 782 676 c 0
 800 676 805 656 799 637 c 2
 644 128 l 2
 626 67 644 26 701 22 c 0
 721 21 740 14 737 5 c 0
 735 -3 711 -5 695 -5 c 0
 669 -5 586 1 544 1 c 0
 508 1 435 0 413 0 c 0x7c
 397 0 376 3 378 11 c 0
 381 20 407 27 426 28 c 0
 504 34 530 55 548 112 c 2
 606 260 l 2
 610 271 597 279 578 278 c 2
 456 270 l 2
 451 270 433 263 421 252 c 2
 257 96 l 10
 167 11 90 -32 -34 -32 c 8
 -169 -32 -308 43 -308 178 c 16
 -308 287 -225 382 -116 382 c 16
 -27 382 40 307 40 218 c 8
 40 163 -24 144 -78 144 c 8
 -115 144 -147 170 -147 208 c 8
 -147 248 -114 272 -72 278 c 0
 -54 281 -28 288 -28 292 c 0
 -28 304 -75 336 -112 336 c 8
 -189 336 -250 271 -250 194 c 8
 -250 93 -157 24 -56 24 c 16
 64 24 163 78 217 132 c 2xbc
640 506 m 2
 480 336 l 2
 468 324 460 312 496 314 c 2
 602 322 l 2
 616 323 624 329 632 350 c 2
 686 496 l 2
 695 523 690 539 684 539 c 0
 679 539 664 532 640 506 c 2
EndSplineSet
Fore
SplineSet
252 24 m 16xa0
 372 24 419.23828125 59.4921875 568.799804688 212 c 2
 914 564 l 2
 966.48046875 617.514648438 1018 676 1052 676 c 0
 1070 676 1067 656 1061 637 c 2
 906 128 l 2
 888 67 906 26 963 22 c 0
 983 21 1002 14 999 5 c 0
 997 -3 973 -5 957 -5 c 0
 931 -5 848 1 806 1 c 0
 770 1 697 0 675 0 c 0x60
 659 0 638 3 640 11 c 0
 643 20 669 27 688 28 c 0
 766 34 792 55 810 112 c 2
 868 260 l 2
 872 271 859 279 840 278 c 2
 718 270 l 2
 713 270 695 263 683 252 c 2
 519 96 l 10
 429.166992188 10.548828125 352 -32 228 -32 c 8
 110.485351562 -32 0 47.4853515625 0 165 c 16
 0 196 28 235 62 235 c 0
 88 235 105 210 105 186 c 0
 105 138 61.0302734375 139.87890625 78 107 c 0
 103.684570312 57.2373046875 176.814453125 24 252 24 c 16xa0
902 506 m 2
 742 336 l 2
 730 324 722 312 758 314 c 2
 864 322 l 2
 878 323 886 329 894 350 c 2
 948 496 l 2
 957 523 952 539 946 539 c 0
 941 539 926 532 902 506 c 2
EndSplineSet
Validated: 33
Substitution2: "c2sc subtable" A.sc
EndChar

StartChar: C.sw
Encoding: 66360 -1 2049
Width: 623
VWidth: 0
Flags: W
HStem: -14 37<299.982 434.038> 628 35<406.993 575.501>
VStem: 80 84<142.219 360.884> 606 33<467.178 536.318>
LayerCount: 2
Fore
SplineSet
368 -14 m 8
 218 -14 80 90 80 240 c 16
 80 494 277 663 513 663 c 16
 594 663 646 629 656 629 c 0
 668 629 684 645 699 645 c 0
 711 645 710 634 706 629 c 0
 684 599 648 532 639 487 c 0
 637 477 628 467 621 467 c 8
 609 467 604 481 606 493 c 0
 612 523 618 565 597 593 c 0
 580 616 542 628 503 628 c 0
 310 628 164 432 164 228 c 8
 164 110 278 23 386 23 c 0
 449 23 497 76 536 139 c 0
 542 149 548 157 553 157 c 0
 559 157 560 149 560 138 c 0
 560 115 507 -7 496 -9 c 0
 486 -11 476 11 456 11 c 0
 436 11 419 -14 368 -14 c 8
EndSplineSet
Validated: 33
Substitution2: "c2sc subtable" C.sc
EndChar

StartChar: Egrave.sinf
Encoding: 65808 -1 1401
Width: 369
VWidth: -144
Flags: W
HStem: -147 17<-35.0859 12.8019> -147 24<89.75 216.559> 48 19<139 210.174> 227 21<85.0967 123.749 184.962 305.395> 625 153
VStem: 216 18<7.00726 40.58> 312 14<175.248 207.103> 365 167
LayerCount: 2
Fore
SplineSet
526 625 m 4x3f
 523 625 517 627 508 634 c 4
 468 664 418 702 378 736 c 4
 369 744 365 748 365 755 c 4
 365 769 409 778 423 778 c 4
 434 778 443 775 450 765 c 4
 477 726 503 686 527 646 c 4
 530 641 532 635 532 631 c 4
 532 628 530 625 526 625 c 4x3f
EndSplineSet
Refer: 1340 -1 N 1 0 0 1 0 0 3
Validated: 1
Comment: "." 
EndChar

StartChar: F.subs
Encoding: 65646 -1 1239
Width: 282
VWidth: 0
Flags: W
HStem: -3 17<13.9141 58.9951 138.124 171.903> 190 21<184.54 266.898> 367 23<134.714 169.186 225.389 345.316>
VStem: 269 16<153.007 186.58> 290 18<226.191 244.311> 353 14<314.303 348.148>
LayerCount: 2
Fore
SplineSet
245 367 m 2
 228 367 223 353 217 337 c 0
 212 322 205 301 199 280 c 0
 193 259 186 238 182 224 c 0
 180 217 179 211 184 211 c 0
 207 211 235 213 249 213 c 0
 264 213 281 222 290 236 c 0
 292 239 301 247 304 247 c 0
 307 247 310 242 308 237 c 0
 299 206 294 194 285 163 c 0
 283 158 281 153 277 153 c 8
 270 153 269 163 269 167 c 0
 270 186 258 190 249 190 c 0
 238 190 227 191 216 191 c 0
 205 191 195 190 185 190 c 0
 177 190 170 185 167 175 c 0
 156 138 145 101 134 61 c 0
 127 35 131 19 157 14 c 0
 169 12 174 9 172 4 c 0
 170 -1 163 -3 153 -3 c 0
 123 -3 121 1 99 1 c 24
 71 1 57 -3 27 -3 c 0
 17 -3 11 -1 13 4 c 0
 15 9 21 12 34 14 c 0
 63 19 77 31 86 60 c 2
 163 313 l 2
 174 349 174 368 148 373 c 0
 136 375 131 380 133 385 c 0
 135 390 141 392 151 392 c 0
 181 392 185 392 207 391 c 0
 220 391 235 390 249 390 c 0
 297 390 347 392 367 392 c 0
 370 392 372 392 374 392 c 0
 378 392 383 390 383 386 c 0
 380 363 373 347 367 326 c 0
 366 322 362 314 359 314 c 0
 355 314 353 317 353 321 c 0
 353 334 352 344 349 350 c 0
 343 363 330 367 316 367 c 2
 245 367 l 2
EndSplineSet
Validated: 33
EndChar

StartChar: G.sw
Encoding: 66364 -1 2053
Width: 694
VWidth: 0
Flags: W
HStem: -305 42<257 370.582> -14 37<303.91 443.538> 256 30<460.065 537.18> 270 30<641.2 696.101> 628 35<453.048 606.501>
VStem: 111 84<139.462 362.958> 637 33<467.178 536.318>
LayerCount: 2
Fore
SplineSet
365 -14 m 0xde
 189 -14 111 82 111 254 c 0
 111 469 326 663 544 663 c 0
 625 663 677 629 687 629 c 0
 699 629 715 645 730 645 c 0
 742 645 741 634 737 629 c 0
 715 599 679 532 670 487 c 0
 668 477 659 467 652 467 c 8
 640.294 467 635 481 637 493 c 0
 643 523 649 565 628 593 c 0
 611 616 573 628 534 628 c 0
 381 628 195 450 195 242 c 0
 195 125 271 23 378 23 c 0
 441 23 496 58 507 100 c 2
 546 208 l 2
 561.49 250.896 502 256 483 256 c 0xee
 469 256 460 261 460 270 c 0xde
 460 279 470 286 484 286 c 8xee
 561.802 286 631.028 294.2 683 300 c 0
 687.969 300.555 697 298 697 289 c 0
 697 280 684 272 672 270 c 0
 642 265 624.075 240.397 615 213 c 2
 562 53 l 2
 508 -151 460 -214 419 -250 c 0
 379 -285 342 -305 287 -305 c 0
 227 -305 192 -280 192 -258 c 0
 192 -230 216 -201 233 -201 c 0
 251 -201 296 -263 337 -263 c 0
 381 -263 401 -230 435 -134 c 9
 485 14 l 18
 489 26 487 29 483 24 c 0
 471 9 393 -14 365 -14 c 0xde
EndSplineSet
Validated: 33
Substitution2: "c2sc subtable" G.sc
EndChar

StartChar: K.subs
Encoding: 65667 -1 1260
Width: 380
VWidth: 0
Flags: W
HStem: -3 17<19.9141 64.9951 145.009 176.903 231.097 264.879 348.221 384.903> 373 19<135.097 172.481 238.496 284.384 346.097 365.313 433.694 492.547>
LayerCount: 2
Fore
SplineSet
359 372 m 0
 347 374 344 379 346 384 c 0
 348 389 355 391 364 391 c 0
 388 391 399 390 415 390 c 0
 419 390 424 390 429 390 c 8
 449 391 451 393 481 393 c 0
 490 393 497 391 495 386 c 0
 493 381 486 376 473 374 c 0
 444 369 409 358 376 335 c 0
 325 298 291 270 238 224 c 24
 235 221 235 218 238 214 c 2
 322 57 l 2
 337 28 342 21 371 14 c 0
 383 11 387 9 385 4 c 0
 383 -1 376 -3 367 -3 c 0
 337 -3 326 -1 300 0 c 16
 296 0 292 0 289 0 c 0
 276 0 269 -1 245 -1 c 0
 236 -1 229 1 231 6 c 0
 233 11 239 14 250 16 c 0
 273 21 271 32 265 43 c 2
 191 184 l 26
 188 189 184 194 181 194 c 0
 178 194 175 185 174 181 c 0
 162 143 155 114 142 66 c 0
 135 40 136 19 162 14 c 0
 174 12 179 9 177 4 c 0
 175 -1 169 -3 159 -3 c 0
 129 -3 127 1 105 1 c 24
 77 1 63 -3 33 -3 c 0
 23 -3 17 -1 19 4 c 0
 21 9 27 12 40 14 c 0
 69 19 83 31 92 61 c 2
 174 331 l 2
 183 359 176 368 150 373 c 0
 138 375 133 380 135 385 c 0
 137 390 144 392 154 392 c 0
 184 392 193 390 219 390 c 24
 239 390 241 392 271 392 c 0
 281 392 288 390 286 385 c 0
 284 380 276 375 263 373 c 0
 234 368 227 354 220 331 c 2
 186 218 l 2
 185 215 183 211 186 211 c 0
 190 211 196 213 201 217 c 0
 233 240 359 346 359 346 c 2
 370 355 385 367 359 372 c 0
EndSplineSet
Validated: 33
EndChar

StartChar: N.subs
Encoding: 65670 -1 1263
Width: 432
VWidth: 0
Flags: W
HStem: -11 21G<350 361.5> -3 17<12.8436 51.3873 115.632 146.903> 373 19<125.1 156.155 495.198 545.45>
LayerCount: 2
Fore
SplineSet
437 390 m 0x60
 484 390 485 392 534 392 c 0
 543 392 549 390 547 385 c 0
 545 380 538 375 525 373 c 0
 496 368 486 361 480 341 c 0
 438 210 413 136 375 8 c 0
 371 -5 366 -11 357 -11 c 24xa0
 343 -11 336 0 333 9 c 0
 286 118 262 178 208 287 c 0
 204 295 201 298 198 298 c 0
 194 298 190 292 189 287 c 0
 171 233 138 145 113 59 c 0
 107 37 107 19 133 14 c 0
 145 12 149 9 147 4 c 0
 145 -1 138 -3 129 -3 c 0
 99 -3 98 0 77 0 c 24
 57 0 56 -3 26 -3 c 0
 17 -3 10 -1 12 4 c 0
 14 9 20 12 33 14 c 0
 62 19 79 57 82 65 c 0
 96 98 134 206 167 304 c 0
 173 321 172 339 168 348 c 0
 162 361 157 365 138 372 c 0
 135 373 123 379 125 386 c 0
 127 393 137 395 141 395 c 0
 184 394 185 392 225 392 c 0
 232 392 232 387 235 382 c 24
 285 271 307 203 360 94 c 16
 362 91 364 82 367 82 c 0
 369 82 371 85 374 94 c 0
 382 120 439 307 447 337 c 0
 451 353 443 369 432 371 c 0
 420 373 416 378 418 383 c 0
 420 388 428 390 437 390 c 0x60
EndSplineSet
Validated: 33
EndChar

StartChar: N.sw
Encoding: 66371 -1 2060
Width: 848
VWidth: 0
Flags: W
HStem: -5 35<56.709 137.93 238.533 318.591> 620 38<182.181 281.196 726 732 894.214 989.99>
LayerCount: 2
Fore
SplineSet
839 650 m 0
 884 650 910 653 967 653 c 0
 983 653 990 650 990 642 c 0
 990 633 976 624 953 622 c 0
 895 616 875 588 857 555 c 0
 845 533 730 167 713 112 c 0
 712 109 712 94 717 82 c 0
 728 57 755 16 755 6 c 0
 755 0 751 0 747 0 c 0
 726 0 679 0 674 0 c 0
 663 0 654 5 632 43 c 2
 388 456 l 2
 382 467 369 485 364 485 c 0
 357 485 347 463 344 455 c 2
 235 117 l 2
 216 52 238 34 295 24 c 0
 315 20 320 15 320 6 c 0
 320 -2 306 -5 290 -5 c 0
 240 -5 225 0 184 0 c 24
 143 0 130 -5 80 -5 c 0
 64 -5 56 -2 56 6 c 0
 56 15 58 25 81 30 c 0
 144 44 160 50 180 108 c 2
 316 500 l 2
 322 518 328 549 322 557 c 2
 289 596 l 2
 281 606 242 615 203 620 c 0
 198 621 182 631 182 644 c 0
 182 657 200 658 207 658 c 0
 279 656 297 653 364 653 c 0
 375 653 376 645 381 636 c 2
 659 188 l 2
 663 182 672 169 679 169 c 0
 684 169 686 174 692 189 c 0
 707 233 798 513 808 564 c 0
 815 599 745 615 726 619 c 0
 706 623 701 630 701 639 c 0
 701 647 716 650 732 650 c 0
 765 650 829 650 839 650 c 0
EndSplineSet
Validated: 33
Substitution2: "c2sc subtable" N.sc
EndChar

StartChar: O.subs
Encoding: 65671 -1 1264
Width: 442
VWidth: 0
Flags: W
HStem: -8 23<188.851 277.082> 375 23<278.643 370.636>
LayerCount: 2
Fore
SplineSet
329 375 m 0
 247 375 183 294 157 210 c 0
 126 107 148 16 230 15 c 0
 231 15 l 0
 311 15 379 102 404 183 c 0
 431 272 418 375 329 375 c 0
86 192 m 0
 119 300 216 395 340 398 c 0
 341 398 343 398 344 398 c 0
 442 398 507 320 471 201 c 0
 438 93 339 -8 216 -8 c 0
 116 -8 51 78 86 192 c 0
EndSplineSet
Validated: 33
EndChar

StartChar: Q.short
Encoding: 66451 -1 2183
Width: 675
VWidth: 0
Flags: W
HStem: -214 57<350.304 537.842> 630 32<402.983 517.638>
VStem: 65 90<115.739 323.138> 580 78<335.717 559.316>
AnchorPoint: "top_accent" 405 700 basechar 0
LayerCount: 2
Fore
SplineSet
467 630 m 0
 337 630 155 419 155 217 c 0
 155 110 199 28 290 28 c 0
 401 28 580 275 580 448 c 0
 580 528 556 630 467 630 c 0
219 -2 m 0
 142.691859723 18.4467045631 65 100 65 214 c 0
 65 242 70 274 80 307 c 0
 141 505 274 662 475 662 c 0
 590 662 658 583 658 441 c 0
 658 278 535.947916902 119.073588012 413 32 c 0
 342.399993896 -18 279.400390625 -49 196 -63 c 0
 184.45703125 -64.9375 186 -68 203 -70 c 0
 307 -82 320 -157 456 -157 c 0
 513 -157 610 -126 639 -103 c 0
 647 -97 652 -94 661 -94 c 0
 667 -94 667 -115 664 -118 c 0
 635 -157 516 -214 426 -214 c 0
 286 -214 277 -115 114 -115 c 4
 64 -115 10 -149 0 -149 c 0
 -13 -149 -31 -159 -31 -144 c 0
 -31 -131 -31 -123 -15 -119 c 0
 56 -99 147 -61 227 -22 c 0
 243 -15 244.278278874 -8.77329441033 219 -2 c 0
EndSplineSet
Validated: 33
EndChar

StartChar: Q.subs
Encoding: 65673 -1 1266
Width: 452
VWidth: 0
Flags: W
HStem: -149 34<356.525 445.741> -129 18<433.891 464.63> 376 21<286.006 383.332>
LayerCount: 2
Fore
SplineSet
335 376 m 0x20
 253 376 174 295 149 211 c 0
 118 108 156 7 248 7 c 0
 333 7 411 110 437 194 c 0
 465 286 426 376 335 376 c 0x20
204 -32 m 0
 196 -22 160 4 152 6 c 0
 113 18 55 84 86 184 c 0
 122 303 234 397 351 397 c 0
 450 397 533 332 496 210 c 0
 453 68 349 22 296 0 c 0
 286 -4 279 -10 282 -17 c 0
 296 -42 310 -55 331 -77 c 0
 359 -105 374 -114 414 -115 c 0
 416 -115 419 -115 421 -115 c 0xa0
 434 -115 447 -113 452 -111 c 0
 460 -108 470 -106 468 -113 c 0
 466 -120 463 -124 453 -129 c 0x60
 427 -142 403 -149 382 -149 c 0xa0
 329 -149 298 -132 270 -104 c 0
 247 -82 232 -63 204 -32 c 0
EndSplineSet
Validated: 33
EndChar

StartChar: T.subs
Encoding: 65676 -1 1269
Width: 337
VWidth: 0
Flags: W
HStem: 0 22<74.953 126.393 215.352 253.903> 358 32<168.402 230.629 307.527 406.945> 392 20G<452 455.5>
LayerCount: 2
Fore
SplineSet
210 69 m 2
 201 40 214 27 240 22 c 0
 252 20 256 13 254 8 c 0
 252 3 245 0 235 0 c 2
 87 0 l 2
 77 0 71 3 73 8 c 0
 75 13 83 20 96 22 c 0
 125 27 144 40 153 69 c 2
 233 330 l 2
 236 341 239 354 231 356 c 0
 223 358 221 358 212 358 c 0
 206 358 197 358 183 358 c 0
 165 358 145 355 132 339 c 0
 126 332 111 316 102 316 c 0
 97 316 100 328 107 336 c 0
 124 359 134 378 145 403 c 0
 151 416 155 416 158 416 c 0
 161 416 167 411 168 404 c 0
 170 396 188 390 204 390 c 2
 391 390 l 2
 407 390 428 397 436 405 c 0
 445 414 450 412 454 412 c 0
 457 412 460 407 457 401 c 0
 446 378 433 352 427 331 c 0
 425 324 419 315 413 316 c 0
 406 317 409 330 408 335 c 0
 406 346 409 358 373 358 c 0
 344 358 318 357 307 356 c 0
 299 355 293 341 290 330 c 2
 210 69 l 2
EndSplineSet
Validated: 33
EndChar
